<svg width="118" height="118" viewBox="0 0 118 118" fill="none" xmlns="http://www.w3.org/2000/svg">
<path d="M47.9375 84.8125C47.9375 84.3235 48.1318 83.8545 48.4775 83.5088C48.8233 83.163 49.2923 82.9687 49.7812 82.9687H53.4688C53.9577 82.9687 54.4267 83.163 54.7725 83.5088C55.1182 83.8545 55.3125 84.3235 55.3125 84.8125C55.3125 85.3015 55.1182 85.7704 54.7725 86.1162C54.4267 86.462 53.9577 86.6562 53.4688 86.6562H49.7812C49.2923 86.6562 48.8233 86.462 48.4775 86.1162C48.1318 85.7704 47.9375 85.3015 47.9375 84.8125ZM68.2188 108.781H35.0312C34.5423 108.781 34.0733 108.975 33.7275 109.321C33.3818 109.667 33.1875 110.136 33.1875 110.625C33.1875 111.114 33.3818 111.583 33.7275 111.929C34.0733 112.274 34.5423 112.469 35.0312 112.469H68.2188C68.7077 112.469 69.1767 112.274 69.5225 111.929C69.8682 111.583 70.0625 111.114 70.0625 110.625C70.0625 110.136 69.8682 109.667 69.5225 109.321C69.1767 108.975 68.7077 108.781 68.2188 108.781ZM79.2812 108.781H75.5938C75.1048 108.781 74.6358 108.975 74.29 109.321C73.9443 109.667 73.75 110.136 73.75 110.625C73.75 111.114 73.9443 111.583 74.29 111.929C74.6358 112.274 75.1048 112.469 75.5938 112.469H79.2812C79.7702 112.469 80.2392 112.274 80.585 111.929C80.9307 111.583 81.125 111.114 81.125 110.625C81.125 110.136 80.9307 109.667 80.585 109.321C80.2392 108.975 79.7702 108.781 79.2812 108.781ZM53.4688 71.9062C53.4688 72.3952 53.2745 72.8642 52.9287 73.21C52.583 73.5557 52.114 73.75 51.625 73.75H23.9688C23.7539 73.7438 23.5417 73.7001 23.3419 73.6209H22.9916L22.715 73.3997C22.5716 73.2472 22.4533 73.073 22.3647 72.8834V72.7543C22.2174 72.4952 22.1352 72.2042 22.125 71.9062V47.9375C22.126 47.6232 22.2072 47.3143 22.3611 47.0403C22.515 46.7663 22.7364 46.5361 23.0043 46.3717C23.2721 46.2073 23.5776 46.1141 23.8916 46.1009C24.2056 46.0878 24.5178 46.1551 24.7984 46.2965L39.5484 53.6715C39.8525 53.8248 40.1082 54.0592 40.2872 54.3488C40.4662 54.6385 40.5615 54.972 40.5625 55.3125V62.6875H46.0938C46.5827 62.6875 47.0517 62.8817 47.3975 63.2275C47.7432 63.5733 47.9375 64.0422 47.9375 64.5312C47.9375 65.0202 47.7432 65.4892 47.3975 65.835C47.0517 66.1807 46.5827 66.375 46.0938 66.375H39.1612L31.7862 70.0625H51.625C52.114 70.0625 52.583 70.2567 52.9287 70.6025C53.2745 70.9483 53.4688 71.4172 53.4688 71.9062ZM36.875 56.4556L33.1875 54.6119V65.2318L36.875 63.3881V56.4556ZM25.8125 68.9193L29.5 67.0756V52.7681L25.8125 50.9244V68.9193ZM103.25 20.8344L101.406 26.3656C101.285 26.7541 101.038 27.0914 100.704 27.3249C100.371 27.5583 99.9692 27.6748 99.5625 27.6562C99.3627 27.6512 99.1643 27.6202 98.9725 27.564C98.7421 27.4871 98.5292 27.3653 98.3461 27.2058C98.1629 27.0464 98.013 26.8522 97.9051 26.6347C97.7971 26.4171 97.7333 26.1803 97.7171 25.938C97.701 25.6956 97.7328 25.4525 97.8109 25.2225L98.4009 23.4709L94.0312 25.2225V49.7812C94.0283 50.0222 93.9782 50.2602 93.8837 50.4818C93.8394 50.5802 93.7837 50.673 93.7178 50.7584C93.6552 50.8703 93.581 50.9753 93.4966 51.0718C93.333 51.2498 93.1313 51.3884 92.9066 51.4775L88.4816 53.3212C88.496 53.369 88.5022 53.4189 88.5 53.4687V86.6562C88.5 88.1232 87.9172 89.5301 86.8799 90.5674C85.8426 91.6047 84.4357 92.1875 82.9688 92.1875H60.8438V101.406H64.5312C65.0202 101.406 65.4892 101.6 65.835 101.946C66.1807 102.292 66.375 102.761 66.375 103.25C66.375 103.739 66.1807 104.208 65.835 104.554C65.4892 104.899 65.0202 105.094 64.5312 105.094H38.7188C38.2298 105.094 37.7608 104.899 37.415 104.554C37.0693 104.208 36.875 103.739 36.875 103.25C36.875 102.761 37.0693 102.292 37.415 101.946C37.7608 101.6 38.2298 101.406 38.7188 101.406H42.4062V92.1875H20.2812C18.8143 92.1875 17.4074 91.6047 16.3701 90.5674C15.3328 89.5301 14.75 88.1232 14.75 86.6562V44.25C14.75 42.783 15.3328 41.3761 16.3701 40.3388C17.4074 39.3015 18.8143 38.7187 20.2812 38.7187H46.0938V25.2962L39.7881 23.1944L40.4703 25.2225C40.6268 25.687 40.5923 26.1947 40.3745 26.6338C40.1566 27.073 39.7733 27.4076 39.3088 27.564C38.8442 27.7205 38.3365 27.686 37.8974 27.4682C37.4583 27.2504 37.1237 26.867 36.9672 26.4025L35.1234 20.8712C35.0556 20.6822 35.0243 20.482 35.0312 20.2812C35.0213 20.2202 35.0213 20.1579 35.0312 20.0968C35.0481 19.9252 35.0917 19.7573 35.1603 19.599V19.4884C35.2408 19.3198 35.3465 19.1643 35.4737 19.0275H35.6028C35.7415 18.9171 35.8972 18.8299 36.0637 18.7694L41.595 16.9256C42.0595 16.7691 42.5672 16.8036 43.0063 17.0214C43.4455 17.2393 43.7801 17.6226 43.9366 18.0872C44.093 18.5517 44.0586 19.0594 43.8407 19.4985C43.6229 19.9376 43.2395 20.2722 42.775 20.4287L42.48 20.5209L47.9375 22.125L69.4725 14.9344C69.8552 14.8051 70.2698 14.8051 70.6525 14.9344L92.1875 22.0143L96.0962 20.4472L95.285 20.2812C94.8205 20.1247 94.4371 19.7901 94.2193 19.351C94.0014 18.9119 93.967 18.4042 94.1234 17.9397C94.2799 17.4751 94.6145 17.0918 95.0536 16.8739C95.4928 16.6561 96.0005 16.6216 96.465 16.7781L101.996 18.6219C102.205 18.6971 102.399 18.8096 102.568 18.9537C102.62 18.9939 102.664 19.044 102.697 19.1012C102.804 19.205 102.897 19.3228 102.973 19.4515L103.084 19.6359C103.146 19.7899 103.19 19.9509 103.213 20.1153C103.213 20.1153 103.213 20.2075 103.213 20.2628C103.249 20.4511 103.261 20.643 103.25 20.8344ZM90.3438 48.4906V26.5315L71.9062 32.6712V56.2343L90.3438 48.4906ZM49.7812 48.4906L68.2188 56.2343V32.6712L49.7812 26.5315V48.4906ZM53.7637 23.9687L70.0625 29.5L86.3613 23.9687L70.0625 18.5297L53.7637 23.9687ZM57.1562 92.1875H46.0938V101.406H57.1562V92.1875ZM84.8125 81.125H18.4375V86.6562C18.4375 87.1452 18.6318 87.6142 18.9775 87.96C19.3233 88.3057 19.7923 88.5 20.2812 88.5H82.9688C83.4577 88.5 83.9267 88.3057 84.2725 87.96C84.6182 87.6142 84.8125 87.1452 84.8125 86.6562V81.125ZM84.8125 54.8515L71.9062 60.2353V65.619L72.4409 65.0659C72.7881 64.7187 73.259 64.5237 73.75 64.5237C74.241 64.5237 74.7119 64.7187 75.0591 65.0659C75.4062 65.4131 75.6013 65.884 75.6013 66.375C75.6013 66.866 75.4062 67.3368 75.0591 67.684L71.3716 71.3715C71.2002 71.5443 70.9962 71.6815 70.7716 71.7751C70.5469 71.8687 70.3059 71.9169 70.0625 71.9169C69.8191 71.9169 69.5781 71.8687 69.3534 71.7751C69.1288 71.6815 68.9248 71.5443 68.7534 71.3715L65.0659 67.684C64.7188 67.3368 64.5237 66.866 64.5237 66.375C64.5237 65.884 64.7188 65.4131 65.0659 65.0659C65.4131 64.7187 65.884 64.5237 66.375 64.5237C66.866 64.5237 67.3369 64.7187 67.6841 65.0659L68.2188 65.619V60.2353L47.2369 51.4775C47.0122 51.3884 46.8105 51.2498 46.6469 51.0718C46.5749 50.9871 46.5131 50.8943 46.4625 50.7953C46.3742 50.7057 46.3052 50.5991 46.2597 50.4818C46.1589 50.2615 46.1025 50.0234 46.0938 49.7812V42.4062H20.2812C19.7923 42.4062 19.3233 42.6005 18.9775 42.9462C18.6318 43.292 18.4375 43.761 18.4375 44.25V77.4375H84.8125V54.8515Z" fill="#0773BD"/>
</svg>
