<svg width="96" height="96" viewBox="0 0 96 96" fill="none" xmlns="http://www.w3.org/2000/svg">
<g clip-path="url(#clip0_2206_220)">
<path d="M48 96C21.54 96 0 74.46 0 48C0 21.54 21.54 0 48 0C74.46 0 96 21.54 96 48C96 74.46 74.46 96 48 96ZM48 2.91C23.13 2.91 2.91 23.13 2.91 48C2.91 72.87 23.13 93.09 48 93.09C72.87 93.09 93.09 72.87 93.09 48C93.09 23.13 72.87 2.91 48 2.91Z" fill="#0773BD"/>
<path d="M22.3499 49.455H9.37492C8.56492 49.455 7.91992 48.81 7.91992 48C7.91992 25.89 25.8899 7.90503 47.9999 7.90503C59.9549 7.90503 71.2049 13.185 78.8699 22.38C79.3799 22.995 79.3049 23.91 78.6899 24.435C78.0749 24.945 77.1599 24.87 76.6349 24.255C69.5249 15.705 59.0849 10.815 47.9999 10.815C27.9899 10.815 11.6099 26.715 10.8449 46.545H20.9399C21.7049 32.28 33.5399 20.91 47.9999 20.91C55.4099 20.91 62.3249 23.835 67.4549 29.145C68.0099 29.73 67.9949 30.645 67.4249 31.2C66.8549 31.755 65.9249 31.74 65.3699 31.17C60.7799 26.43 54.6149 23.82 47.9999 23.82C34.6649 23.82 23.8049 34.665 23.8049 48C23.8049 48.795 23.1599 49.455 22.3499 49.455Z" fill="#0773BD"/>
<path d="M86.6549 49.4551H73.6499C72.8399 49.4551 72.1949 48.8101 72.1949 48C72.1949 42.4051 70.2299 36.9451 66.6749 32.625C66.1649 32.01 66.2549 31.095 66.8699 30.585C67.4849 30.075 68.3999 30.1651 68.9099 30.7801C72.5849 35.2501 74.7449 40.8001 75.0449 46.5601H85.1549C84.8399 38.5201 81.9149 30.7651 76.8449 24.5401C76.3349 23.9251 76.4249 22.9951 77.0549 22.5001C77.6699 21.9901 78.5999 22.0801 79.0949 22.7101C84.8999 29.8201 88.0949 38.8051 88.0949 48.0301C88.1099 48.7951 87.4499 49.4551 86.6549 49.4551Z" fill="#0773BD"/>
<path d="M70.2601 36.705C69.7651 36.705 69.2851 36.465 69.0151 36.015C68.5951 35.325 68.8051 34.44 69.4951 34.02L80.5951 27.225C81.2851 26.805 82.1701 27.015 82.5901 27.705C83.0101 28.395 82.8001 29.28 82.1101 29.7L71.0101 36.495C70.7851 36.645 70.5151 36.705 70.2601 36.705ZM60.7801 27.24C60.5101 27.24 60.2401 27.165 60.0001 27.015C59.3251 26.58 59.1151 25.68 59.5501 25.005L66.5251 14.01C66.9601 13.335 67.8601 13.125 68.5351 13.56C69.2101 13.995 69.4201 14.895 68.9851 15.57L62.0101 26.565C61.7401 27 61.2601 27.24 60.7801 27.24ZM48.0001 23.82C47.1901 23.82 46.5451 23.175 46.5451 22.365V9.36003C46.5451 8.55003 47.1901 7.90503 48.0001 7.90503C48.8101 7.90503 49.4551 8.55003 49.4551 9.36003V22.365C49.4551 23.175 48.8101 23.82 48.0001 23.82ZM35.1901 27.255C34.7101 27.255 34.2301 27.015 33.9601 26.58L27.0001 15.57C26.5651 14.895 26.7751 13.995 27.4501 13.56C28.1251 13.125 29.0251 13.335 29.4601 14.01L36.4201 25.02C36.8551 25.695 36.6451 26.595 35.9701 27.03C35.7151 27.18 35.4601 27.255 35.1901 27.255ZM25.5751 37.005C25.3051 37.005 25.0501 36.93 24.8101 36.78L13.7851 29.88C13.1101 29.46 12.9001 28.56 13.3201 27.87C13.7401 27.195 14.6401 26.985 15.3301 27.405L26.3551 34.305C27.0301 34.725 27.2401 35.625 26.8201 36.315C26.5351 36.765 26.0551 37.005 25.5751 37.005ZM70.9651 75.915H25.0351C24.2251 75.915 23.5801 75.27 23.5801 74.46V68.82C23.5801 68.01 24.2251 67.365 25.0351 67.365H70.9651C71.7751 67.365 72.4201 68.01 72.4201 68.82V74.46C72.4201 75.255 71.7751 75.915 70.9651 75.915ZM26.4901 73.005H69.5101V70.275H26.4901V73.005ZM53.7151 44.355C53.2951 44.355 52.8601 44.16 52.5751 43.8C52.0801 43.17 52.1851 42.255 52.8001 41.76L61.5451 34.8L51.9601 40.605C51.2701 41.025 50.3851 40.8 49.9651 40.11C49.5451 39.42 49.7701 38.535 50.4601 38.115L79.4701 20.565C80.1301 20.175 80.9851 20.355 81.4201 20.985C81.8551 21.615 81.7351 22.47 81.1351 22.95L54.6301 44.04C54.3601 44.25 54.0301 44.355 53.7151 44.355Z" fill="#0773BD"/>
<path d="M48.2247 51.15C45.9447 51.15 43.7247 50.055 42.3597 48.03C40.1847 44.805 41.0397 40.395 44.2647 38.22C47.4897 36.045 51.8997 36.9 54.0747 40.125C56.2497 43.35 55.3947 47.76 52.1697 49.935C50.9547 50.76 49.5897 51.15 48.2247 51.15ZM48.2097 39.93C47.4147 39.93 46.6047 40.155 45.8847 40.635C43.9797 41.91 43.4847 44.505 44.7597 46.41C46.0347 48.315 48.6297 48.81 50.5347 47.535C52.4397 46.26 52.9347 43.665 51.6597 41.76C50.8647 40.575 49.5447 39.93 48.2097 39.93Z" fill="#0773BD"/>
</g>
<defs>
<clipPath id="clip0_2206_220">
<rect width="96" height="96" fill="white"/>
</clipPath>
</defs>
</svg>
