<svg width="78" height="78" viewBox="0 0 78 78" fill="none" xmlns="http://www.w3.org/2000/svg">
<g id="analytics (1) 2">
<g id="Group">
<path id="Vector" d="M53.7105 73.5989H24.2895M3 48.8489H75M71.481 60.0359H6.519C5.5857 60.0359 4.69063 59.6651 4.03069 59.0052C3.37075 58.3452 3 57.4502 3 56.5169V7.91988C3 6.98658 3.37075 6.09151 4.03069 5.43157C4.69063 4.77163 5.5857 4.40088 6.519 4.40088H71.481C72.4143 4.40088 73.3094 4.77163 73.9693 5.43157C74.6293 6.09151 75 6.98658 75 7.91988V56.5169C75 57.4502 74.6293 58.3452 73.9693 59.0052C73.3094 59.6651 72.4143 60.0359 71.481 60.0359ZM50.898 73.5989H27.102L32.523 60.0359H45.477L50.898 73.5989Z" stroke="#0773BD" stroke-width="2.83636" stroke-miterlimit="10" stroke-linecap="round" stroke-linejoin="round"/>
<g id="Group_2">
<path id="Vector_2" d="M29.6474 26.7731L20.3774 36.0431M57.5924 19.4531L46.3274 30.7181M39.9524 30.6881L36.0224 26.7581" stroke="#0773BD" stroke-width="2.83636" stroke-miterlimit="10" stroke-linecap="round" stroke-linejoin="round"/>
<path id="Vector_3" d="M60.7783 20.7671C63.2636 20.7671 65.2783 18.7524 65.2783 16.2671C65.2783 13.7818 63.2636 11.7671 60.7783 11.7671C58.293 11.7671 56.2783 13.7818 56.2783 16.2671C56.2783 18.7524 58.293 20.7671 60.7783 20.7671Z" stroke="#0773BD" stroke-width="2.83636" stroke-miterlimit="10" stroke-linecap="round" stroke-linejoin="round"/>
<path id="Vector_4" d="M43.1387 38.3682C45.624 38.3682 47.6387 36.3534 47.6387 33.8682C47.6387 31.3829 45.624 29.3682 43.1387 29.3682C40.6534 29.3682 38.6387 31.3829 38.6387 33.8682C38.6387 36.3534 40.6534 38.3682 43.1387 38.3682Z" stroke="#0773BD" stroke-width="2.83636" stroke-miterlimit="10" stroke-linecap="round" stroke-linejoin="round"/>
<path id="Vector_5" d="M32.8315 28.0884C35.3168 28.0884 37.3315 26.0737 37.3315 23.5884C37.3315 21.1031 35.3168 19.0884 32.8315 19.0884C30.3463 19.0884 28.3315 21.1031 28.3315 23.5884C28.3315 26.0737 30.3463 28.0884 32.8315 28.0884Z" stroke="#0773BD" stroke-width="2.83636" stroke-miterlimit="10" stroke-linecap="round" stroke-linejoin="round"/>
<path id="Vector_6" d="M17.2212 43.7349C19.7065 43.7349 21.7212 41.7201 21.7212 39.2349C21.7212 36.7496 19.7065 34.7349 17.2212 34.7349C14.7359 34.7349 12.7212 36.7496 12.7212 39.2349C12.7212 41.7201 14.7359 43.7349 17.2212 43.7349Z" stroke="#0773BD" stroke-width="2.83636" stroke-miterlimit="10" stroke-linecap="round" stroke-linejoin="round"/>
</g>
</g>
</g>
</svg>
