<svg width="88" height="88" viewBox="0 0 88 88" fill="none" xmlns="http://www.w3.org/2000/svg">
<g id="computer (2) 1">
<g id="Outline">
<path id="Vector" d="M81.125 2.75H64.625C63.5036 2.78026 62.4399 3.25361 61.6668 4.06642C60.8937 4.87923 60.4741 5.96527 60.5 7.08675V58.9133C60.4741 60.0347 60.8937 61.1208 61.6668 61.9336C62.4399 62.7464 63.5036 63.2197 64.625 63.25H81.125C82.2464 63.2197 83.3101 62.7464 84.0832 61.9336C84.8563 61.1208 85.2759 60.0347 85.25 58.9133V7.08675C85.2759 5.96527 84.8563 4.87923 84.0832 4.06642C83.3101 3.25361 82.2464 2.78026 81.125 2.75ZM82.5 58.9133C82.5258 59.3055 82.3959 59.692 82.1385 59.9891C81.8811 60.2861 81.5169 60.4697 81.125 60.5H64.625C64.2331 60.4697 63.8689 60.2861 63.6115 59.9891C63.3541 59.692 63.2242 59.3055 63.25 58.9133V17.875H82.5V58.9133ZM82.5 15.125H63.25V12.375H82.5V15.125ZM82.5 9.625H63.25V7.08675C63.2242 6.69453 63.3541 6.30796 63.6115 6.01091C63.8689 5.71386 64.2331 5.53028 64.625 5.5H81.125C81.5169 5.53028 81.8811 5.71386 82.1385 6.01091C82.3959 6.30796 82.5258 6.69453 82.5 7.08675V9.625ZM6.875 85.25H53.625C54.6659 85.2983 55.6837 84.9331 56.4564 84.2341C57.2291 83.535 57.6941 82.5588 57.75 81.5182V69.7318C57.6941 68.6912 57.2291 67.715 56.4564 67.0159C55.6837 66.3169 54.6659 65.9517 53.625 66H6.875C5.8341 65.9517 4.81632 66.3169 4.04359 67.0159C3.27086 67.715 2.80586 68.6912 2.75 69.7318V81.5182C2.80586 82.5588 3.27086 83.535 4.04359 84.2341C4.81632 84.9331 5.8341 85.2983 6.875 85.25ZM5.5 69.7318C5.5 69.1996 6.12975 68.75 6.875 68.75H53.625C54.3702 68.75 55 69.1996 55 69.7318V81.5182C55 82.0504 54.3702 82.5 53.625 82.5H6.875C6.12975 82.5 5.5 82.0504 5.5 81.5182V69.7318ZM6.875 49.5H24.75V55H19.25C17.4273 55.0022 15.6799 55.7272 14.3911 57.0161C13.1022 58.3049 12.3772 60.0523 12.375 61.875C12.375 62.2397 12.5199 62.5894 12.7777 62.8473C13.0356 63.1051 13.3853 63.25 13.75 63.25H46.75C47.1147 63.25 47.4644 63.1051 47.7223 62.8473C47.9801 62.5894 48.125 62.2397 48.125 61.875C48.1228 60.0523 47.3978 58.3049 46.1089 57.0161C44.8201 55.7272 43.0727 55.0022 41.25 55H35.75V49.5H53.625C54.719 49.5 55.7682 49.0654 56.5418 48.2918C57.3154 47.5182 57.75 46.469 57.75 45.375V6.875C57.75 5.78098 57.3154 4.73177 56.5418 3.95818C55.7682 3.1846 54.719 2.75 53.625 2.75H6.875C5.78098 2.75 4.73177 3.1846 3.95818 3.95818C3.1846 4.73177 2.75 5.78098 2.75 6.875V45.375C2.75 46.469 3.1846 47.5182 3.95818 48.2918C4.73177 49.0654 5.78098 49.5 6.875 49.5ZM41.25 57.75C42.1029 57.751 42.9345 58.0159 43.631 58.5082C44.3274 59.0006 44.8544 59.6963 45.1399 60.5H15.3601C15.6456 59.6963 16.1726 59.0006 16.869 58.5082C17.5655 58.0159 18.3971 57.751 19.25 57.75H41.25ZM27.5 55V49.5H33V55H27.5ZM5.5 6.875C5.5 6.51033 5.64487 6.16059 5.90273 5.90273C6.16059 5.64487 6.51033 5.5 6.875 5.5H53.625C53.9897 5.5 54.3394 5.64487 54.5973 5.90273C54.8551 6.16059 55 6.51033 55 6.875V38.5H5.5V6.875ZM5.5 41.25H55V45.375C55 45.7397 54.8551 46.0894 54.5973 46.3473C54.3394 46.6051 53.9897 46.75 53.625 46.75H6.875C6.51033 46.75 6.16059 46.6051 5.90273 46.3473C5.64487 46.0894 5.5 45.7397 5.5 45.375V41.25Z" fill="#0773BD"/>
<path id="Vector_2" d="M11 74.25C11.7594 74.25 12.375 73.6344 12.375 72.875C12.375 72.1156 11.7594 71.5 11 71.5C10.2406 71.5 9.625 72.1156 9.625 72.875C9.625 73.6344 10.2406 74.25 11 74.25Z" fill="#0773BD"/>
<path id="Vector_3" d="M16.5 74.25C17.2594 74.25 17.875 73.6344 17.875 72.875C17.875 72.1156 17.2594 71.5 16.5 71.5C15.7406 71.5 15.125 72.1156 15.125 72.875C15.125 73.6344 15.7406 74.25 16.5 74.25Z" fill="#0773BD"/>
<path id="Vector_4" d="M22 74.25C22.7594 74.25 23.375 73.6344 23.375 72.875C23.375 72.1156 22.7594 71.5 22 71.5C21.2406 71.5 20.625 72.1156 20.625 72.875C20.625 73.6344 21.2406 74.25 22 74.25Z" fill="#0773BD"/>
<path id="Vector_5" d="M27.5 74.25C28.2594 74.25 28.875 73.6344 28.875 72.875C28.875 72.1156 28.2594 71.5 27.5 71.5C26.7406 71.5 26.125 72.1156 26.125 72.875C26.125 73.6344 26.7406 74.25 27.5 74.25Z" fill="#0773BD"/>
<path id="Vector_6" d="M33 74.25C33.7594 74.25 34.375 73.6344 34.375 72.875C34.375 72.1156 33.7594 71.5 33 71.5C32.2406 71.5 31.625 72.1156 31.625 72.875C31.625 73.6344 32.2406 74.25 33 74.25Z" fill="#0773BD"/>
<path id="Vector_7" d="M38.5 74.25C39.2594 74.25 39.875 73.6344 39.875 72.875C39.875 72.1156 39.2594 71.5 38.5 71.5C37.7406 71.5 37.125 72.1156 37.125 72.875C37.125 73.6344 37.7406 74.25 38.5 74.25Z" fill="#0773BD"/>
<path id="Vector_8" d="M44 74.25C44.7594 74.25 45.375 73.6344 45.375 72.875C45.375 72.1156 44.7594 71.5 44 71.5C43.2406 71.5 42.625 72.1156 42.625 72.875C42.625 73.6344 43.2406 74.25 44 74.25Z" fill="#0773BD"/>
<path id="Vector_9" d="M49.5 74.25C50.2594 74.25 50.875 73.6344 50.875 72.875C50.875 72.1156 50.2594 71.5 49.5 71.5C48.7406 71.5 48.125 72.1156 48.125 72.875C48.125 73.6344 48.7406 74.25 49.5 74.25Z" fill="#0773BD"/>
<path id="Vector_10" d="M44 79.75C44.7594 79.75 45.375 79.1344 45.375 78.375C45.375 77.6156 44.7594 77 44 77C43.2406 77 42.625 77.6156 42.625 78.375C42.625 79.1344 43.2406 79.75 44 79.75Z" fill="#0773BD"/>
<path id="Vector_11" d="M49.5 79.75C50.2594 79.75 50.875 79.1344 50.875 78.375C50.875 77.6156 50.2594 77 49.5 77C48.7406 77 48.125 77.6156 48.125 78.375C48.125 79.1344 48.7406 79.75 49.5 79.75Z" fill="#0773BD"/>
<path id="Vector_12" d="M11 79.75C11.7594 79.75 12.375 79.1344 12.375 78.375C12.375 77.6156 11.7594 77 11 77C10.2406 77 9.625 77.6156 9.625 78.375C9.625 79.1344 10.2406 79.75 11 79.75Z" fill="#0773BD"/>
<path id="Vector_13" d="M16.5 79.75C17.2594 79.75 17.875 79.1344 17.875 78.375C17.875 77.6156 17.2594 77 16.5 77C15.7406 77 15.125 77.6156 15.125 78.375C15.125 79.1344 15.7406 79.75 16.5 79.75Z" fill="#0773BD"/>
<path id="Vector_14" d="M50.875 24.75C51.6344 24.75 52.25 24.1344 52.25 23.375C52.25 22.6156 51.6344 22 50.875 22C50.1156 22 49.5 22.6156 49.5 23.375C49.5 24.1344 50.1156 24.75 50.875 24.75Z" fill="#0773BD"/>
<path id="Vector_15" d="M50.875 8.25C50.5103 8.25 50.1606 8.39487 49.9027 8.65273C49.6449 8.91059 49.5 9.26033 49.5 9.625V17.875C49.5 18.2397 49.6449 18.5894 49.9027 18.8473C50.1606 19.1051 50.5103 19.25 50.875 19.25C51.2397 19.25 51.5894 19.1051 51.8473 18.8473C52.1051 18.5894 52.25 18.2397 52.25 17.875V9.625C52.25 9.26033 52.1051 8.91059 51.8473 8.65273C51.5894 8.39487 51.2397 8.25 50.875 8.25ZM72.875 85.25C74.6977 85.2478 76.4451 84.5228 77.7339 83.2339C79.0228 81.9451 79.7478 80.1977 79.75 78.375V72.875C79.75 71.0516 79.0257 69.303 77.7364 68.0136C76.447 66.7243 74.6984 66 72.875 66C71.0516 66 69.303 66.7243 68.0136 68.0136C66.7243 69.303 66 71.0516 66 72.875V78.375C66.0022 80.1977 66.7272 81.9451 68.0161 83.2339C69.3049 84.5228 71.0523 85.2478 72.875 85.25ZM68.75 72.875C68.75 71.781 69.1846 70.7318 69.9582 69.9582C70.7318 69.1846 71.781 68.75 72.875 68.75C73.969 68.75 75.0182 69.1846 75.7918 69.9582C76.5654 70.7318 77 71.781 77 72.875V78.375C77 79.469 76.5654 80.5182 75.7918 81.2918C75.0182 82.0654 73.969 82.5 72.875 82.5C71.781 82.5 70.7318 82.0654 69.9582 81.2918C69.1846 80.5182 68.75 79.469 68.75 78.375V72.875Z" fill="#0773BD"/>
<path id="Vector_16" d="M72.875 77C73.2397 77 73.5894 76.8551 73.8473 76.5973C74.1051 76.3394 74.25 75.9897 74.25 75.625V72.875C74.25 72.5103 74.1051 72.1606 73.8473 71.9027C73.5894 71.6449 73.2397 71.5 72.875 71.5C72.5103 71.5 72.1606 71.6449 71.9027 71.9027C71.6449 72.1606 71.5 72.5103 71.5 72.875V75.625C71.5 75.9897 71.6449 76.3394 71.9027 76.5973C72.1606 76.8551 72.5103 77 72.875 77ZM67.375 45.375H78.375C78.7397 45.375 79.0894 45.2301 79.3473 44.9723C79.6051 44.7144 79.75 44.3647 79.75 44C79.75 43.6353 79.6051 43.2856 79.3473 43.0277C79.0894 42.7699 78.7397 42.625 78.375 42.625H67.375C67.0103 42.625 66.6606 42.7699 66.4027 43.0277C66.1449 43.2856 66 43.6353 66 44C66 44.3647 66.1449 44.7144 66.4027 44.9723C66.6606 45.2301 67.0103 45.375 67.375 45.375ZM67.375 50.875H78.375C78.7397 50.875 79.0894 50.7301 79.3473 50.4723C79.6051 50.2144 79.75 49.8647 79.75 49.5C79.75 49.1353 79.6051 48.7856 79.3473 48.5277C79.0894 48.2699 78.7397 48.125 78.375 48.125H67.375C67.0103 48.125 66.6606 48.2699 66.4027 48.5277C66.1449 48.7856 66 49.1353 66 49.5C66 49.8647 66.1449 50.2144 66.4027 50.4723C66.6606 50.7301 67.0103 50.875 67.375 50.875ZM72.875 34.375C73.6908 34.375 74.4884 34.1331 75.1667 33.6798C75.8451 33.2266 76.3738 32.5823 76.686 31.8286C76.9982 31.0748 77.0799 30.2454 76.9207 29.4453C76.7616 28.6451 76.3687 27.9101 75.7918 27.3332C75.2149 26.7563 74.4799 26.3634 73.6797 26.2043C72.8796 26.0451 72.0502 26.1268 71.2964 26.439C70.5427 26.7512 69.8985 27.2799 69.4452 27.9583C68.9919 28.6366 68.75 29.4342 68.75 30.25C68.75 31.344 69.1846 32.3932 69.9582 33.1668C70.7318 33.9404 71.781 34.375 72.875 34.375ZM72.875 28.875C73.1469 28.875 73.4128 28.9556 73.6389 29.1067C73.865 29.2578 74.0413 29.4726 74.1453 29.7238C74.2494 29.9751 74.2766 30.2515 74.2236 30.5183C74.1705 30.785 74.0396 31.03 73.8473 31.2223C73.655 31.4146 73.41 31.5455 73.1433 31.5986C72.8765 31.6516 72.6001 31.6244 72.3488 31.5203C72.0976 31.4163 71.8828 31.24 71.7317 31.0139C71.5806 30.7878 71.5 30.522 71.5 30.25C71.5 29.8853 71.6449 29.5356 71.9027 29.2777C72.1606 29.0199 72.5103 28.875 72.875 28.875ZM22 79.75H38.5C38.8647 79.75 39.2144 79.6051 39.4723 79.3473C39.7301 79.0894 39.875 78.7397 39.875 78.375C39.875 78.0103 39.7301 77.6606 39.4723 77.4027C39.2144 77.1449 38.8647 77 38.5 77H22C21.6353 77 21.2856 77.1449 21.0277 77.4027C20.7699 77.6606 20.625 78.0103 20.625 78.375C20.625 78.7397 20.7699 79.0894 21.0277 79.3473C21.2856 79.6051 21.6353 79.75 22 79.75Z" fill="#0773BD"/>
</g>
</g>
</svg>
