<svg width="92" height="104" viewBox="0 0 92 104" fill="none" xmlns="http://www.w3.org/2000/svg">
<g id="computer (1) 1" clip-path="url(#clip0_210_188)">
<path id="Vector" d="M92 28.6242C92 23.6875 88.0809 19.7702 83.1909 19.7702H50.3854L55.7286 1.13379L42.4414 19.7702H8.79393C3.90393 19.7702 0 23.6875 0 28.6242V79.0304C0 83.9671 3.90393 87.9365 8.79393 87.9365H31.0659C29.7217 92.8791 27.2217 97.3961 23.7032 101.177L21.1206 104H70.8194L68.2368 101.177C64.7184 97.3961 62.2184 92.8791 60.8743 87.9365H83.1909C88.0809 87.9365 92 83.9671 92 79.0304L92 28.6242ZM55.023 29.8613L43.3742 47.1556L46.3004 34.392H36.0034L47.3407 18.4842L44.077 29.8613H55.023ZM3.26387 28.6242C3.26387 25.5044 5.70359 23.0652 8.79393 23.0652H40.0921L29.6327 37.687H42.1955L36.2636 63.5672L61.1905 26.5662H48.4194L49.4407 23.0652H83.1909C86.2813 23.0652 88.7361 25.5043 88.7361 28.6242V66.3128H3.26387V28.6242ZM63.5293 100.705H28.4107C31.2781 96.9058 33.3215 92.6732 34.4507 87.9366H57.4895C58.6187 92.6732 60.6621 96.9058 63.5293 100.705ZM83.1909 84.6415H8.79393C5.70359 84.6415 3.26387 82.1503 3.26387 79.0304V69.6078H88.7362V79.0304C88.7361 82.1503 86.2813 84.6415 83.1909 84.6415Z" fill="#0773BD"/>
<path id="Vector_2" d="M45.9926 71.2866C43.4178 71.2866 41.3231 73.4014 41.3231 76.0007C41.3231 78.6001 43.4178 80.7149 45.9926 80.7149C48.5674 80.7149 50.6621 78.6001 50.6621 76.0007C50.6621 73.4013 48.5674 71.2866 45.9926 71.2866ZM45.9926 77.4198C45.2175 77.4198 44.5869 76.7833 44.5869 76.0007C44.5869 75.2182 45.2174 74.5817 45.9926 74.5817C46.7677 74.5817 47.3982 75.2182 47.3982 76.0007C47.3982 76.7833 46.7677 77.4198 45.9926 77.4198ZM44.6742 0H48.1421V8.44356H44.6742V0ZM26.3884 6.21086L33.3348 11.0166L31.3962 13.8727L24.4497 9.06693L26.3884 6.21086ZM66.4081 6.03262L68.4624 8.8051L61.7191 13.8973L59.6649 11.1249L66.4081 6.03262Z" fill="#0773BD"/>
</g>
<defs>
<clipPath id="clip0_210_188">
<rect width="92" height="104" fill="white"/>
</clipPath>
</defs>
</svg>
