<svg width="24" height="24" viewBox="0 0 24 24" fill="none" xmlns="http://www.w3.org/2000/svg">
<g id="arrow (6) 1">
<path id="Vector" d="M12.5113 14.7555C12.5188 14.7465 12.5218 14.7345 12.5293 14.7255L17.7658 8.94C18.0583 8.6145 18.0583 8.0865 17.7658 7.761C17.7628 7.758 17.7598 7.7565 17.7568 7.755C17.6917 7.67618 17.6102 7.61253 17.518 7.56848C17.4258 7.52444 17.325 7.50107 17.2228 7.5H6.74833C6.64424 7.50168 6.5418 7.5262 6.44823 7.57181C6.35467 7.61743 6.27226 7.68304 6.20683 7.764L6.20383 7.761C6.06227 7.92478 5.98438 8.13403 5.98438 8.3505C5.98438 8.56697 6.06227 8.77622 6.20383 8.94L11.4523 14.7555C11.5177 14.8321 11.5988 14.8936 11.6903 14.9358C11.7817 14.9779 11.8812 14.9998 11.9818 14.9998C12.0825 14.9998 12.182 14.9779 12.2734 14.9358C12.3648 14.8936 12.446 14.8321 12.5113 14.7555Z" fill="#0773BD"/>
</g>
</svg>
