<svg width="78" height="78" viewBox="0 0 78 78" fill="none" xmlns="http://www.w3.org/2000/svg">
<path d="M53.7105 73.5991H24.2895M3 48.8491H75M71.481 60.0361H6.519C5.5857 60.0361 4.69063 59.6654 4.03069 59.0054C3.37075 58.3455 3 57.4504 3 56.5171V7.92012C3 6.98683 3.37075 6.09176 4.03069 5.43181C4.69063 4.77187 5.5857 4.40112 6.519 4.40112H71.481C72.4143 4.40112 73.3094 4.77187 73.9693 5.43181C74.6293 6.09176 75 6.98683 75 7.92012V56.5171C75 57.4504 74.6293 58.3455 73.9693 59.0054C73.3094 59.6654 72.4143 60.0361 71.481 60.0361ZM50.898 73.5991H27.102L32.523 60.0361H45.477L50.898 73.5991Z" stroke="#0773BD" stroke-width="2.83636" stroke-miterlimit="10" stroke-linecap="round" stroke-linejoin="round"/>
<path d="M29.6474 26.7736L20.3774 36.0436M57.5924 19.4536L46.3274 30.7186M39.9524 30.6886L36.0224 26.7586" stroke="#0773BD" stroke-width="2.83636" stroke-miterlimit="10" stroke-linecap="round" stroke-linejoin="round"/>
<path d="M60.7783 20.7676C63.2636 20.7676 65.2783 18.7529 65.2783 16.2676C65.2783 13.7823 63.2636 11.7676 60.7783 11.7676C58.293 11.7676 56.2783 13.7823 56.2783 16.2676C56.2783 18.7529 58.293 20.7676 60.7783 20.7676Z" stroke="#0773BD" stroke-width="2.83636" stroke-miterlimit="10" stroke-linecap="round" stroke-linejoin="round"/>
<path d="M43.1387 38.3684C45.624 38.3684 47.6387 36.3537 47.6387 33.8684C47.6387 31.3831 45.624 29.3684 43.1387 29.3684C40.6534 29.3684 38.6387 31.3831 38.6387 33.8684C38.6387 36.3537 40.6534 38.3684 43.1387 38.3684Z" stroke="#0773BD" stroke-width="2.83636" stroke-miterlimit="10" stroke-linecap="round" stroke-linejoin="round"/>
<path d="M32.8315 28.0891C35.3168 28.0891 37.3315 26.0744 37.3315 23.5891C37.3315 21.1038 35.3168 19.0891 32.8315 19.0891C30.3463 19.0891 28.3315 21.1038 28.3315 23.5891C28.3315 26.0744 30.3463 28.0891 32.8315 28.0891Z" stroke="#0773BD" stroke-width="2.83636" stroke-miterlimit="10" stroke-linecap="round" stroke-linejoin="round"/>
<path d="M17.2212 43.7354C19.7065 43.7354 21.7212 41.7206 21.7212 39.2354C21.7212 36.7501 19.7065 34.7354 17.2212 34.7354C14.7359 34.7354 12.7212 36.7501 12.7212 39.2354C12.7212 41.7206 14.7359 43.7354 17.2212 43.7354Z" stroke="#0773BD" stroke-width="2.83636" stroke-miterlimit="10" stroke-linecap="round" stroke-linejoin="round"/>
</svg>
