<svg width="72" height="67" viewBox="0 0 72 67" fill="none" xmlns="http://www.w3.org/2000/svg">
<path d="M70.3906 18.5938C71.1251 18.5938 71.7188 17.9987 71.7188 17.2656V1.32812C71.7188 0.595 71.1251 0 70.3906 0H1.32812C0.595 0 0 0.595 0 1.32812V17.2656C0 17.9987 0.595 18.5938 1.32812 18.5938H34.5312V23.9062H1.32812C0.595 23.9062 0 24.5013 0 25.2344V41.1719C0 41.9063 0.595 42.5 1.32812 42.5H34.5312V47.8125H1.32812C0.595 47.8125 0 48.4062 0 49.1406V65.0781C0 65.8126 0.595 66.4062 1.32812 66.4062H70.3906C71.1251 66.4062 71.7188 65.8126 71.7188 65.0781V49.1406C71.7188 48.4062 71.1251 47.8125 70.3906 47.8125H37.1875V42.5H70.3906C71.1251 42.5 71.7188 41.9063 71.7188 41.1719V25.2344C71.7188 24.5013 71.1251 23.9062 70.3906 23.9062H37.1875V18.5938H70.3906ZM69.0625 63.75H2.65625V50.4688H69.0625V63.75ZM69.0625 39.8438H2.65625V26.5625H69.0625V39.8438ZM2.65625 2.65625H69.0625V15.9375H2.65625V2.65625Z" fill="#0773BD"/>
<path d="M6.64062 7.96875H46.4844C47.2188 7.96875 47.8125 7.37375 47.8125 6.64062C47.8125 5.9075 47.2188 5.3125 46.4844 5.3125H6.64062C5.9075 5.3125 5.3125 5.9075 5.3125 6.64062C5.3125 7.37375 5.9075 7.96875 6.64062 7.96875ZM47.8125 11.9531C47.8125 11.22 47.2188 10.625 46.4844 10.625H6.64062C5.9075 10.625 5.3125 11.22 5.3125 11.9531C5.3125 12.6862 5.9075 13.2812 6.64062 13.2812H46.4844C47.2188 13.2812 47.8125 12.6862 47.8125 11.9531ZM59.7656 13.2812C61.9623 13.2812 63.75 11.4936 63.75 9.29688C63.75 7.10016 61.9623 5.3125 59.7656 5.3125C57.5689 5.3125 55.7812 7.10016 55.7812 9.29688C55.7812 11.4936 57.5689 13.2812 59.7656 13.2812ZM59.7656 7.96875C60.4987 7.96875 61.0938 8.56508 61.0938 9.29688C61.0938 10.0287 60.4987 10.625 59.7656 10.625C59.0325 10.625 58.4375 10.0287 58.4375 9.29688C58.4375 8.56508 59.0325 7.96875 59.7656 7.96875ZM5.3125 30.5469C5.3125 31.28 5.9075 31.875 6.64062 31.875H46.4844C47.2188 31.875 47.8125 31.28 47.8125 30.5469C47.8125 29.8138 47.2188 29.2188 46.4844 29.2188H6.64062C5.9075 29.2188 5.3125 29.8138 5.3125 30.5469ZM46.4844 34.5312H6.64062C5.9075 34.5312 5.3125 35.1249 5.3125 35.8594C5.3125 36.5938 5.9075 37.1875 6.64062 37.1875H46.4844C47.2188 37.1875 47.8125 36.5938 47.8125 35.8594C47.8125 35.1249 47.2188 34.5312 46.4844 34.5312ZM59.7656 37.1875C61.9623 37.1875 63.75 35.3998 63.75 33.2031C63.75 31.0064 61.9623 29.2188 59.7656 29.2188C57.5689 29.2188 55.7812 31.0064 55.7812 33.2031C55.7812 35.3998 57.5689 37.1875 59.7656 37.1875ZM59.7656 31.875C60.4987 31.875 61.0938 32.4713 61.0938 33.2031C61.0938 33.9349 60.4987 34.5312 59.7656 34.5312C59.0325 34.5312 58.4375 33.9349 58.4375 33.2031C58.4375 32.4713 59.0325 31.875 59.7656 31.875ZM5.3125 54.4531C5.3125 55.1876 5.9075 55.7812 6.64062 55.7812H46.4844C47.2188 55.7812 47.8125 55.1876 47.8125 54.4531C47.8125 53.7187 47.2188 53.125 46.4844 53.125H6.64062C5.9075 53.125 5.3125 53.7187 5.3125 54.4531ZM46.4844 58.4375H6.64062C5.9075 58.4375 5.3125 59.0312 5.3125 59.7656C5.3125 60.5001 5.9075 61.0938 6.64062 61.0938H46.4844C47.2188 61.0938 47.8125 60.5001 47.8125 59.7656C47.8125 59.0312 47.2188 58.4375 46.4844 58.4375ZM59.7656 61.0938C61.9623 61.0938 63.75 59.3061 63.75 57.1094C63.75 54.9127 61.9623 53.125 59.7656 53.125C57.5689 53.125 55.7812 54.9127 55.7812 57.1094C55.7812 59.3061 57.5689 61.0938 59.7656 61.0938ZM59.7656 55.7812C60.4987 55.7812 61.0938 56.3763 61.0938 57.1094C61.0938 57.8425 60.4987 58.4375 59.7656 58.4375C59.0325 58.4375 58.4375 57.8425 58.4375 57.1094C58.4375 56.3763 59.0325 55.7812 59.7656 55.7812Z" fill="#0773BD"/>
</svg>
