<svg width="67" height="68" viewBox="0 0 67 68" fill="none" xmlns="http://www.w3.org/2000/svg">
<path d="M58.1147 25.0143C63.0035 25.0143 66.9878 21.0557 66.9878 16.1986C66.9878 11.3414 63.0035 7.38286 58.1147 7.38286C53.226 7.38286 49.2417 11.3414 49.2417 16.1986C49.2417 17.8986 49.755 19.4771 50.5983 20.825L45.1841 25.2936C43.8889 23.989 42.3457 22.9533 40.6441 22.2466C38.9425 21.54 37.1164 21.1764 35.2722 21.1771C31.8623 21.1771 28.7824 22.44 26.3502 24.4679L18.6994 16.8664C20.0171 15.2094 20.7971 13.1937 20.936 11.0864L31.3367 10.5279C32.0334 13.1871 34.3677 15.1907 37.2643 15.1907C40.6986 15.1907 43.4974 12.41 43.4974 8.99786C43.4974 5.58571 40.6986 2.805 37.2643 2.805C34.1478 2.805 31.6667 5.13643 31.2145 8.11143L20.8382 8.67C19.9827 3.75214 15.6928 0 10.5108 0C4.71762 0 0 4.68714 0 10.4429C0 16.1986 4.71762 20.8857 10.5108 20.8857C12.9673 20.8857 15.2039 20.0114 17.0005 18.6029L24.6514 26.2043C22.6104 28.6207 21.3393 31.6807 21.3393 35.0686C21.3393 35.8214 21.4493 36.5379 21.5593 37.2543L16.0961 38.6264C15.0939 36.55 12.9918 35.0807 10.5108 35.0807C7.07643 35.0807 4.27764 37.8614 4.27764 41.2736C4.27764 44.6857 7.07643 47.4664 10.5108 47.4664C10.7185 47.4664 10.8896 47.3693 11.0852 47.345L12.2585 51.2064C9.22747 52.6029 7.10088 55.6507 7.10088 59.1843C7.10088 64.0414 11.0852 68 15.9739 68C20.8626 68 24.847 64.0414 24.847 59.1843C24.847 56.8286 23.9059 54.7036 22.3904 53.125L27.6091 46.6164C29.7723 48.0493 32.3634 48.8871 35.1377 48.9114L35.6022 54.9707C32.9989 55.7114 31.0434 58.0064 31.0434 60.8236C31.0434 64.2357 33.8422 67.0164 37.2765 67.0164C40.7109 67.0164 43.5097 64.2357 43.5097 60.8236C43.5097 57.6786 41.102 55.165 38.0343 54.7764L37.5699 48.6929C40.002 48.2921 42.1897 47.26 44.023 45.7907L46.7484 48.5957C45.7951 49.8707 45.1229 51.3643 45.1229 53.0764C45.1229 57.2779 48.5695 60.7021 52.7982 60.7021C57.027 60.7021 60.4735 57.2779 60.4735 53.0764C60.4735 50.3686 58.9703 48.11 56.8314 46.75L59.5447 40.3993C59.948 40.4843 60.3269 40.6421 60.7669 40.6421C64.2012 40.6421 67 37.8614 67 34.4493C67 31.0371 64.2012 28.2564 60.7669 28.2564C57.3325 28.2564 54.5337 31.0371 54.5337 34.4493C54.5337 36.5621 55.6704 38.335 57.2959 39.4643L54.5826 45.815C53.996 45.6693 53.1038 45.5964 52.4683 45.6329C51.515 45.6936 49.755 46.07 48.5206 46.92L45.7829 44.1029C47.9095 41.6621 49.2539 38.5293 49.2539 35.0564C49.2539 32.13 48.3251 29.4221 46.7607 27.1757L52.1872 22.695C53.8075 24.1835 55.9324 25.0115 58.1392 25.0143H58.1147ZM37.2521 5.23357C39.342 5.23357 41.0409 6.92143 41.0409 8.99786C41.0409 11.0743 39.342 12.7621 37.2521 12.7621C35.1622 12.7621 33.4633 11.0743 33.4633 8.99786C33.4633 6.92143 35.1622 5.23357 37.2521 5.23357ZM60.7424 30.685C62.8324 30.685 64.5312 32.3729 64.5312 34.4493C64.5312 36.5257 62.8324 38.2136 60.7424 38.2136C58.6525 38.2136 56.9537 36.5257 56.9537 34.4493C56.9537 32.3729 58.6525 30.685 60.7424 30.685ZM2.41992 10.4307C2.41992 6.01071 6.03758 2.41643 10.4863 2.41643C14.9351 2.41643 18.5527 6.01071 18.5527 10.4307C18.5527 14.8507 14.9351 18.445 10.4863 18.445C6.03758 18.445 2.41992 14.8507 2.41992 10.4307ZM6.69756 41.2614C6.69756 39.185 8.39639 37.4971 10.4863 37.4971C12.5762 37.4971 14.2751 39.185 14.2751 41.2614C14.2751 43.3379 12.5762 45.0257 10.4863 45.0257C8.39639 45.0257 6.69756 43.3379 6.69756 41.2614ZM15.9495 65.5593C12.4051 65.5593 9.52079 62.6936 9.52079 59.1721C9.52079 55.6507 12.4051 52.785 15.9495 52.785C19.4938 52.785 22.3781 55.6507 22.3781 59.1721C22.3781 62.6936 19.4938 65.5593 15.9495 65.5593ZM20.4349 51.6193C19.1149 50.8421 17.5872 50.3686 15.9495 50.3686C15.485 50.3686 15.0328 50.4414 14.5806 50.5021L13.4073 46.6407C15.4117 45.56 16.7928 43.5686 16.6706 40.97L22.1459 39.5979C22.8915 41.6986 24.0892 43.5807 25.678 45.0864L20.4471 51.6193H20.4349ZM41.0409 60.8236C41.0409 62.9 39.342 64.5879 37.2521 64.5879C35.1622 64.5879 33.4633 62.9 33.4633 60.8236C33.4633 58.7471 35.1622 57.0593 37.2521 57.0593C39.342 57.0593 41.0409 58.7471 41.0409 60.8236ZM57.9925 53.0764C57.9925 55.9421 55.6459 58.2736 52.7616 58.2736C49.8772 58.2736 47.5306 55.9421 47.5306 53.0764C47.5306 50.2107 49.8772 47.8793 52.7616 47.8793C55.6459 47.8793 57.9925 50.2107 57.9925 53.0764ZM35.2477 46.495C28.8924 46.495 23.7348 41.3586 23.7348 35.0564C23.7348 28.7543 28.9046 23.6179 35.2477 23.6179C41.5908 23.6179 46.7607 28.7543 46.7607 35.0564C46.7607 41.3586 41.5908 46.495 35.2477 46.495ZM58.1147 9.82357C61.6591 9.82357 64.5434 12.6893 64.5434 16.2107C64.5434 19.7321 61.6591 22.5979 58.1147 22.5979C54.5704 22.5979 51.6861 19.7321 51.6861 16.2107C51.6861 12.6893 54.5704 9.82357 58.1147 9.82357Z" fill="#0773BD"/>
</svg>
