<svg width="68" height="68" viewBox="0 0 68 68" fill="none" xmlns="http://www.w3.org/2000/svg">
<path d="M33.949 1.57249L32.4147 3.29374C25.9122 10.5952 16.8852 14.042 6.11575 15.3552L4.25 15.5805V17.4632C4.25 28.4282 6.5705 39.066 11.373 47.787C16.1755 56.508 23.545 63.3122 33.3922 66.249L34.0255 66.4402L34.6545 66.2235C53.686 60.0737 63.75 40.0392 63.75 17.4632V15.7717L62.0968 15.3807C51.6205 12.9667 41.9602 10.0342 35.5427 3.25549L33.949 1.56824V1.57249ZM34.051 7.22499C40.9318 13.651 49.9672 16.745 59.3257 18.9805C58.8795 39.2997 49.9885 56.2487 33.983 61.829C25.6487 59.1302 19.3545 53.4565 15.1002 45.7342C10.9522 38.2117 8.89525 28.8107 8.67425 19.0357C18.513 17.544 27.2977 14.0207 34.0467 7.22499H34.051ZM45.3475 25.4192L29.8477 38.9895L22.7503 31.9005L19.7455 34.9052L29.648 44.8077L48.1525 28.6195L45.3475 25.4192Z" fill="#0773BD"/>
</svg>
