<svg width="78" height="78" viewBox="0 0 78 78" fill="none" xmlns="http://www.w3.org/2000/svg">
<path d="M52.1416 7.3126C51.8184 7.3126 51.5084 7.441 51.2798 7.66956C51.0513 7.89812 50.9229 8.20812 50.9229 8.53135C50.9229 8.85458 51.0513 9.16457 51.2798 9.39313C51.5084 9.62169 51.8184 9.7501 52.1416 9.7501C56.4125 9.73446 60.5166 11.4069 63.5601 14.4033C63.7934 14.6145 64.0993 14.7273 64.4139 14.7181C64.7285 14.7088 65.0273 14.5782 65.2477 14.3537C65.4682 14.1291 65.5933 13.8279 65.5967 13.5132C65.6002 13.1985 65.4818 12.8947 65.2663 12.6653C61.7682 9.22047 57.0511 7.29665 52.1416 7.3126Z" fill="#0773BD"/>
<path d="M67.0312 18.2812C67.7043 18.2812 68.25 17.7356 68.25 17.0625C68.25 16.3894 67.7043 15.8438 67.0312 15.8438C66.3582 15.8438 65.8125 16.3894 65.8125 17.0625C65.8125 17.7356 66.3582 18.2812 67.0312 18.2812Z" fill="#0773BD"/>
<path d="M25.5938 35.4207C26.2668 35.4207 26.8125 34.875 26.8125 34.2019C26.8125 33.5288 26.2668 32.9832 25.5938 32.9832C24.9207 32.9832 24.375 33.5288 24.375 34.2019C24.375 34.875 24.9207 35.4207 25.5938 35.4207Z" fill="#0773BD"/>
<path d="M35.3438 35.4207C36.0168 35.4207 36.5625 34.875 36.5625 34.2019C36.5625 33.5288 36.0168 32.9832 35.3438 32.9832C34.6707 32.9832 34.125 33.5288 34.125 34.2019C34.125 34.875 34.6707 35.4207 35.3438 35.4207Z" fill="#0773BD"/>
<path d="M30.4688 35.4207C31.1418 35.4207 31.6875 34.875 31.6875 34.2019C31.6875 33.5288 31.1418 32.9832 30.4688 32.9832C29.7957 32.9832 29.25 33.5288 29.25 34.2019C29.25 34.875 29.7957 35.4207 30.4688 35.4207Z" fill="#0773BD"/>
<path d="M53.625 32.9819H41.4375C41.1143 32.9819 40.8043 33.1103 40.5757 33.3389C40.3472 33.5675 40.2188 33.8775 40.2188 34.2007C40.2188 34.5239 40.3472 34.8339 40.5757 35.0625C40.8043 35.291 41.1143 35.4194 41.4375 35.4194H53.625C53.9482 35.4194 54.2582 35.291 54.4868 35.0625C54.7153 34.8339 54.8438 34.5239 54.8438 34.2007C54.8438 33.8775 54.7153 33.5675 54.4868 33.3389C54.2582 33.1103 53.9482 32.9819 53.625 32.9819Z" fill="#0773BD"/>
<path d="M52.1416 2.43759C46.8953 2.43791 41.7976 4.18099 37.6495 7.39303C35.4487 6.62759 33.1168 6.31106 30.7916 6.46214C28.4663 6.61322 26.195 7.22884 24.1117 8.27263C22.0285 9.31642 20.1756 10.7672 18.6625 12.5392C17.1495 14.3113 16.0069 16.3686 15.3025 18.5897C12.3432 19.024 9.57968 20.3275 7.36243 22.3349C5.14518 24.3423 3.57418 26.9631 2.84874 29.8647C2.1233 32.7663 2.27611 35.8181 3.28779 38.6327C4.29947 41.4474 6.12443 43.8981 8.53112 45.674V68.2501C8.53112 68.5733 8.65952 68.8833 8.88808 69.1119C9.11664 69.3404 9.42663 69.4688 9.74987 69.4688H19.2561V71.8308C19.2561 72.8005 19.6413 73.7305 20.327 74.4161C21.0127 75.1018 21.9427 75.487 22.9124 75.487H57.5249C58.4946 75.487 59.4245 75.1018 60.1102 74.4161C60.7959 73.7305 61.1811 72.8005 61.1811 71.8308V69.4688H68.2499C68.5731 69.4688 68.8831 69.3404 69.1117 69.1119C69.3402 68.8833 69.4686 68.5733 69.4686 68.2501V59.7188C69.4686 59.3956 69.3402 59.0856 69.1117 58.8571C68.8831 58.6285 68.5731 58.5001 68.2499 58.5001C67.9266 58.5001 67.6166 58.6285 67.3881 58.8571C67.1595 59.0856 67.0311 59.3956 67.0311 59.7188V67.0313H61.1811V64.6694C61.1811 63.6997 60.7959 62.7697 60.1102 62.084C59.4245 61.3984 58.4946 61.0132 57.5249 61.0132H56.3671V58.4245H57.5249C58.4946 58.4245 59.4245 58.0393 60.1102 57.3536C60.7959 56.668 61.1811 55.738 61.1811 54.7683V47.6069C61.1791 47.3868 61.157 47.1673 61.1153 46.9512C63.2494 46.0785 65.2428 44.8953 67.0311 43.44V49.9688C67.0311 50.2921 67.1595 50.6021 67.3881 50.8306C67.6166 51.0592 67.9266 51.1876 68.2499 51.1876C68.5731 51.1876 68.8831 51.0592 69.1117 50.8306C69.3402 50.6021 69.4686 50.2921 69.4686 49.9688V41.1524C73.3968 36.9221 75.5866 31.3667 75.6014 25.5938C75.554 19.4144 73.0575 13.5061 68.6595 9.16497C64.2615 4.82387 58.3212 2.40449 52.1416 2.43759ZM19.2561 64.6694V67.0313H10.9686V47.1657C13.0849 48.2069 15.4119 48.749 17.7705 48.7501H19.2561V54.7683C19.2561 55.738 19.6413 56.668 20.327 57.3536C21.0127 58.0393 21.9427 58.4245 22.9124 58.4245H24.0702V61.0132H22.9124C21.9427 61.0132 21.0127 61.3984 20.327 62.084C19.6413 62.7697 19.2561 63.6997 19.2561 64.6694ZM57.5249 63.4507C57.8481 63.4507 58.1581 63.5791 58.3867 63.8076C58.6152 64.0362 58.7436 64.3462 58.7436 64.6694V71.8308C58.7436 72.154 58.6152 72.464 58.3867 72.6926C58.1581 72.9211 57.8481 73.0495 57.5249 73.0495H22.9124C22.5891 73.0495 22.2791 72.9211 22.0506 72.6926C21.822 72.464 21.6936 72.154 21.6936 71.8308V64.6694C21.6936 64.3462 21.822 64.0362 22.0506 63.8076C22.2791 63.5791 22.5891 63.4507 22.9124 63.4507H57.5249ZM26.5077 61.0132V58.5757H53.9296V61.0132H26.5077ZM58.7436 54.7683C58.7436 55.0915 58.6152 55.4015 58.3867 55.6301C58.1581 55.8586 57.8481 55.987 57.5249 55.987H22.9124C22.5891 55.987 22.2791 55.8586 22.0506 55.6301C21.822 55.4015 21.6936 55.0915 21.6936 54.7683V47.6069C21.7016 47.2862 21.8326 46.9808 22.0595 46.754C22.2863 46.5272 22.5917 46.3962 22.9124 46.3882H57.5249C57.8461 46.3944 58.1525 46.5248 58.3797 46.752C58.607 46.9792 58.7374 47.2856 58.7436 47.6069V54.7683ZM26.5077 41.5132H53.9296V43.9507H26.5077V41.5132ZM22.9124 38.9245C22.5891 38.9245 22.2791 38.7961 22.0506 38.5676C21.822 38.339 21.6936 38.029 21.6936 37.7058V30.5444C21.6936 30.2212 21.822 29.9112 22.0506 29.6826C22.2791 29.4541 22.5891 29.3257 22.9124 29.3257H57.5249C57.8481 29.3257 58.1581 29.4541 58.3867 29.6826C58.6152 29.9112 58.7436 30.2212 58.7436 30.5444V37.7058C58.7436 38.029 58.6152 38.339 58.3867 38.5676C58.1581 38.7961 57.8481 38.9245 57.5249 38.9245H22.9124ZM59.9002 44.8294C59.2309 44.2757 58.3934 43.9659 57.5249 43.9507H56.3671V41.362H57.5249C58.4946 41.362 59.4245 40.9768 60.1102 40.2911C60.7959 39.6055 61.1811 38.6755 61.1811 37.7058V30.5444C61.1811 29.5747 60.7959 28.6447 60.1102 27.959C59.4245 27.2734 58.4946 26.8882 57.5249 26.8882H22.9124C21.9427 26.8882 21.0127 27.2734 20.327 27.959C19.6413 28.6447 19.2561 29.5747 19.2561 30.5444V37.7058C19.2561 38.6755 19.6413 39.6055 20.327 40.2911C21.0127 40.9768 21.9427 41.362 22.9124 41.362H24.0702V43.9507H22.9124C22.1725 43.9578 21.4519 44.1867 20.8435 44.6077C20.2351 45.0288 19.7671 45.6227 19.4999 46.3126H17.7705C14.4802 46.3634 11.298 45.1384 8.89121 42.8943C6.48439 40.6503 5.03986 37.5616 4.86049 34.2758C4.68113 30.9901 5.78087 27.7625 7.92912 25.2698C10.0774 22.7771 13.1073 21.2129 16.3835 20.9053C16.6312 20.8794 16.865 20.7783 17.0535 20.6156C17.242 20.4528 17.3761 20.2362 17.4377 19.9949C18.2721 16.7938 20.1489 13.9617 22.7719 11.9459C25.3949 9.93003 28.6145 8.84526 31.9226 8.86284C33.8077 8.86407 35.6758 9.21876 37.4301 9.90853C37.6322 9.98746 37.8517 10.011 38.066 9.97672C38.2803 9.94244 38.4815 9.85158 38.6489 9.71353C42.4493 6.58483 47.2191 4.87442 52.1416 4.87509C57.6749 4.84133 62.9956 7.00369 66.9367 10.8878C70.8777 14.7719 73.1172 20.0607 73.1639 25.5938C73.1405 29.7613 71.8627 33.8251 69.4969 37.256C67.1312 40.6869 63.7871 43.326 59.9002 44.8294Z" fill="#0773BD"/>
<path d="M25.5938 52.4832C26.2668 52.4832 26.8125 51.9375 26.8125 51.2644C26.8125 50.5913 26.2668 50.0457 25.5938 50.0457C24.9207 50.0457 24.375 50.5913 24.375 51.2644C24.375 51.9375 24.9207 52.4832 25.5938 52.4832Z" fill="#0773BD"/>
<path d="M35.3438 52.4832C36.0168 52.4832 36.5625 51.9375 36.5625 51.2644C36.5625 50.5913 36.0168 50.0457 35.3438 50.0457C34.6707 50.0457 34.125 50.5913 34.125 51.2644C34.125 51.9375 34.6707 52.4832 35.3438 52.4832Z" fill="#0773BD"/>
<path d="M30.4688 52.4832C31.1418 52.4832 31.6875 51.9375 31.6875 51.2644C31.6875 50.5913 31.1418 50.0457 30.4688 50.0457C29.7957 50.0457 29.25 50.5913 29.25 51.2644C29.25 51.9375 29.7957 52.4832 30.4688 52.4832Z" fill="#0773BD"/>
<path d="M53.625 50.0444H41.4375C41.1143 50.0444 40.8043 50.1728 40.5757 50.4014C40.3472 50.63 40.2188 50.94 40.2188 51.2632C40.2188 51.5864 40.3472 51.8964 40.5757 52.125C40.8043 52.3535 41.1143 52.4819 41.4375 52.4819H53.625C53.9482 52.4819 54.2582 52.3535 54.4868 52.125C54.7153 51.8964 54.8438 51.5864 54.8438 51.2632C54.8438 50.94 54.7153 50.63 54.4868 50.4014C54.2582 50.1728 53.9482 50.0444 53.625 50.0444Z" fill="#0773BD"/>
<path d="M25.5938 69.5457C26.2668 69.5457 26.8125 69 26.8125 68.3269C26.8125 67.6538 26.2668 67.1082 25.5938 67.1082C24.9207 67.1082 24.375 67.6538 24.375 68.3269C24.375 69 24.9207 69.5457 25.5938 69.5457Z" fill="#0773BD"/>
<path d="M35.3438 69.5457C36.0168 69.5457 36.5625 69 36.5625 68.3269C36.5625 67.6538 36.0168 67.1082 35.3438 67.1082C34.6707 67.1082 34.125 67.6538 34.125 68.3269C34.125 69 34.6707 69.5457 35.3438 69.5457Z" fill="#0773BD"/>
<path d="M30.4688 69.5457C31.1418 69.5457 31.6875 69 31.6875 68.3269C31.6875 67.6538 31.1418 67.1082 30.4688 67.1082C29.7957 67.1082 29.25 67.6538 29.25 68.3269C29.25 69 29.7957 69.5457 30.4688 69.5457Z" fill="#0773BD"/>
<path d="M41.4375 69.5443H53.625C53.9482 69.5443 54.2582 69.4159 54.4868 69.1874C54.7153 68.9588 54.8438 68.6488 54.8438 68.3256C54.8438 68.0023 54.7153 67.6923 54.4868 67.4638C54.2582 67.2352 53.9482 67.1068 53.625 67.1068H41.4375C41.1143 67.1068 40.8043 67.2352 40.5757 67.4638C40.3472 67.6923 40.2188 68.0023 40.2188 68.3256C40.2188 68.6488 40.3472 68.9588 40.5757 69.1874C40.8043 69.4159 41.1143 69.5443 41.4375 69.5443ZM24.375 14.625C24.0518 14.625 23.7418 14.7534 23.5132 14.982C23.2847 15.2105 23.1562 15.5205 23.1562 15.8438V23.1562C23.1562 23.4795 23.2847 23.7895 23.5132 24.018C23.7418 24.2466 24.0518 24.375 24.375 24.375C24.6982 24.375 25.0082 24.2466 25.2368 24.018C25.4653 23.7895 25.5938 23.4795 25.5938 23.1562V15.8438C25.5938 15.5205 25.4653 15.2105 25.2368 14.982C25.0082 14.7534 24.6982 14.625 24.375 14.625ZM34.125 14.625C33.1553 14.625 32.2253 15.0102 31.5396 15.6959C30.854 16.3816 30.4688 17.3116 30.4688 18.2812V20.7188C30.4688 21.6884 30.854 22.6184 31.5396 23.3041C32.2253 23.9898 33.1553 24.375 34.125 24.375C35.0947 24.375 36.0247 23.9898 36.7104 23.3041C37.396 22.6184 37.7812 21.6884 37.7812 20.7188V18.2812C37.7812 17.3116 37.396 16.3816 36.7104 15.6959C36.0247 15.0102 35.0947 14.625 34.125 14.625ZM35.3438 20.7188C35.3438 21.042 35.2153 21.352 34.9868 21.5805C34.7582 21.8091 34.4482 21.9375 34.125 21.9375C33.8018 21.9375 33.4918 21.8091 33.2632 21.5805C33.0347 21.352 32.9062 21.042 32.9062 20.7188V18.2812C32.9062 17.958 33.0347 17.648 33.2632 17.4195C33.4918 17.1909 33.8018 17.0625 34.125 17.0625C34.4482 17.0625 34.7582 17.1909 34.9868 17.4195C35.2153 17.648 35.3438 17.958 35.3438 18.2812V20.7188ZM43.875 14.625C43.5518 14.625 43.2418 14.7534 43.0132 14.982C42.7847 15.2105 42.6562 15.5205 42.6562 15.8438V23.1562C42.6562 23.4795 42.7847 23.7895 43.0132 24.018C43.2418 24.2466 43.5518 24.375 43.875 24.375C44.1982 24.375 44.5082 24.2466 44.7368 24.018C44.9653 23.7895 45.0938 23.4795 45.0938 23.1562V15.8438C45.0938 15.5205 44.9653 15.2105 44.7368 14.982C44.5082 14.7534 44.1982 14.625 43.875 14.625ZM53.625 14.625C52.6553 14.625 51.7253 15.0102 51.0396 15.6959C50.354 16.3816 49.9688 17.3116 49.9688 18.2812V20.7188C49.9688 21.6884 50.354 22.6184 51.0396 23.3041C51.7253 23.9898 52.6553 24.375 53.625 24.375C54.5947 24.375 55.5247 23.9898 56.2104 23.3041C56.896 22.6184 57.2812 21.6884 57.2812 20.7188V18.2812C57.2812 17.3116 56.896 16.3816 56.2104 15.6959C55.5247 15.0102 54.5947 14.625 53.625 14.625ZM54.8438 20.7188C54.8438 21.042 54.7153 21.352 54.4868 21.5805C54.2582 21.8091 53.9482 21.9375 53.625 21.9375C53.3018 21.9375 52.9918 21.8091 52.7632 21.5805C52.5347 21.352 52.4062 21.042 52.4062 20.7188V18.2812C52.4062 17.958 52.5347 17.648 52.7632 17.4195C52.9918 17.1909 53.3018 17.0625 53.625 17.0625C53.9482 17.0625 54.2582 17.1909 54.4868 17.4195C54.7153 17.648 54.8438 17.958 54.8438 18.2812V20.7188Z" fill="#0773BD"/>
<path d="M68.25 56.0625C68.9231 56.0625 69.4688 55.5168 69.4688 54.8438C69.4688 54.1707 68.9231 53.625 68.25 53.625C67.5769 53.625 67.0312 54.1707 67.0312 54.8438C67.0312 55.5168 67.5769 56.0625 68.25 56.0625Z" fill="#0773BD"/>
</svg>
