<svg width="191" height="191" viewBox="0 0 191 191" fill="none" xmlns="http://www.w3.org/2000/svg">
<path d="M179.062 109.303C179.854 109.303 180.613 108.988 181.173 108.429C181.732 107.869 182.047 107.11 182.047 106.318V34.6934C182.047 33.9019 181.732 33.1428 181.173 32.5831C180.613 32.0234 179.854 31.709 179.062 31.709H59.6875C58.896 31.709 58.1369 32.0234 57.5772 32.5831C57.0175 33.1428 56.7031 33.9019 56.7031 34.6934V79.459H35.8125C35.021 79.459 34.2619 79.7734 33.7022 80.3331C33.1425 80.8928 32.8281 81.6519 32.8281 82.4434V93.7429C30.1405 94.2933 27.6566 95.5739 25.6494 97.4441C23.6422 99.3142 22.1895 101.702 21.4508 104.344C20.7121 106.986 20.7161 109.78 21.4623 112.42C22.2085 115.06 23.668 117.443 25.6805 119.308C20.7399 121.326 16.5111 124.768 13.5324 129.196C10.5537 133.624 8.95964 138.838 8.95312 144.175C8.95313 147.253 10.5871 151.528 18.3688 154.393C22.3082 155.844 27.363 156.739 32.8281 156.978V163.021H11.9375C11.146 163.021 10.3869 163.336 9.82723 163.896C9.26755 164.455 8.95313 165.214 8.95312 166.006V177.943C8.95313 178.735 9.26755 179.494 9.82723 180.054C10.3869 180.613 11.146 180.928 11.9375 180.928H179.062C179.854 180.928 180.613 180.613 181.173 180.054C181.732 179.494 182.047 178.735 182.047 177.943V166.006C182.047 165.214 181.732 164.455 181.173 163.896C180.613 163.336 179.854 163.021 179.062 163.021H158.172V109.303H179.062ZM62.6719 37.6777H176.078V103.334H83.5625C82.771 103.334 82.0119 103.648 81.4522 104.208C80.8925 104.768 80.5781 105.527 80.5781 106.318C80.5776 108.169 80.0033 109.975 78.9344 111.486C77.8655 112.997 76.3545 114.14 74.6094 114.757V106.318C74.6094 105.527 74.295 104.768 73.7353 104.208C73.1756 103.648 72.4165 103.334 71.625 103.334H62.6719V37.6777ZM26.8594 108.363C26.8594 106.592 27.3845 104.861 28.3682 103.389C29.352 101.916 30.7503 100.769 32.3863 100.091C34.0223 99.4134 35.8224 99.2361 37.5592 99.5816C39.2959 99.927 40.8912 100.78 42.1433 102.032C43.3954 103.284 44.2481 104.879 44.5936 106.616C44.9391 108.353 44.7617 110.153 44.0841 111.789C43.4065 113.425 42.2589 114.823 40.7866 115.807C39.3143 116.791 37.5833 117.316 35.8125 117.316C33.438 117.316 31.1607 116.373 29.4817 114.693C27.8026 113.014 26.8594 110.737 26.8594 108.363ZM14.9219 144.175C14.9219 138.635 17.1228 133.321 21.0406 129.403C24.9583 125.486 30.272 123.285 35.8125 123.285C41.353 123.285 46.6666 125.486 50.5844 129.403C54.5022 133.321 56.7031 138.635 56.7031 144.175C56.7031 147.506 48.3096 151.08 35.8125 151.08C23.3154 151.08 14.9219 147.506 14.9219 144.175ZM176.078 174.959H14.9219V168.99H176.078V174.959ZM152.203 163.021H38.7969V156.978C44.262 156.739 49.3168 155.859 53.2562 154.393C61.0379 151.528 62.6719 147.253 62.6719 144.175C62.6661 138.838 61.0724 133.623 58.0936 129.194C55.1149 124.765 50.8857 121.322 45.9445 119.304C47.957 117.44 49.4165 115.057 50.1627 112.417C50.9089 109.777 50.9129 106.982 50.1742 104.34C49.4356 101.698 47.9828 99.3105 45.9756 97.4403C43.9684 95.5702 41.4845 94.2896 38.7969 93.7392V85.4277H56.7031V106.318C56.7031 107.11 57.0175 107.869 57.5772 108.429C58.1369 108.988 58.896 109.303 59.6875 109.303H68.6406V118.256C68.6406 119.047 68.955 119.806 69.5147 120.366C70.0744 120.926 70.8335 121.24 71.625 121.24C75.0635 121.235 78.3952 120.045 81.0588 117.871C83.7225 115.697 85.5553 112.671 86.2484 109.303H152.203V163.021Z" fill="#0773BD"/>
<path d="M83.5625 85.4277H155.188C155.979 85.4277 156.738 85.1133 157.298 84.5536C157.857 83.994 158.172 83.2349 158.172 82.4434C158.172 81.6519 157.857 80.8928 157.298 80.3331C156.738 79.7734 155.979 79.459 155.188 79.459H83.5625C82.771 79.459 82.0119 79.7734 81.4522 80.3331C80.8925 80.8928 80.5781 81.6519 80.5781 82.4434C80.5781 83.2349 80.8925 83.994 81.4522 84.5536C82.0119 85.1133 82.771 85.4277 83.5625 85.4277ZM83.5625 73.4902H155.188C155.979 73.4902 156.738 73.1758 157.298 72.6161C157.857 72.0565 158.172 71.2974 158.172 70.5059C158.172 69.7144 157.857 68.9553 157.298 68.3956C156.738 67.8359 155.979 67.5215 155.188 67.5215H83.5625C82.771 67.5215 82.0119 67.8359 81.4522 68.3956C80.8925 68.9553 80.5781 69.7144 80.5781 70.5059C80.5781 71.2974 80.8925 72.0565 81.4522 72.6161C82.0119 73.1758 82.771 73.4902 83.5625 73.4902ZM83.5625 61.5527H155.188C155.979 61.5527 156.738 61.2383 157.298 60.6786C157.857 60.119 158.172 59.3599 158.172 58.5684C158.172 57.7769 157.857 57.0178 157.298 56.4581C156.738 55.8984 155.979 55.584 155.188 55.584H83.5625C82.771 55.584 82.0119 55.8984 81.4522 56.4581C80.8925 57.0178 80.5781 57.7769 80.5781 58.5684C80.5781 59.3599 80.8925 60.119 81.4522 60.6786C82.0119 61.2383 82.771 61.5527 83.5625 61.5527Z" fill="#0773BD"/>
</svg>
