<svg width="152" height="152" viewBox="0 0 152 152" fill="none" xmlns="http://www.w3.org/2000/svg">
<path d="M130.026 11.3107C129.686 10.757 129.21 10.2998 128.643 9.98274C128.076 9.66572 127.437 9.49951 126.787 9.5H84.9869C84.2497 9.50015 83.5286 9.71469 82.9112 10.1175C82.2938 10.5203 81.807 11.094 81.5099 11.7686L48.6665 86.412C48.4118 86.9904 48.3054 87.6231 48.3569 88.253C48.4084 88.8828 48.6161 89.4899 48.9613 90.0192C49.3066 90.5486 49.7783 90.9834 50.334 91.2845C50.8896 91.5855 51.5115 91.7433 52.1435 91.7434H79.6175L63.4903 137.435C63.1951 138.264 63.1973 139.17 63.4965 139.998C63.7957 140.827 64.3733 141.525 65.1305 141.974C65.8877 142.423 66.7774 142.596 67.6476 142.462C68.5178 142.327 69.3143 141.895 69.9009 141.238L141.529 61.4384C142.019 60.8922 142.341 60.2158 142.455 59.4908C142.569 58.7658 142.471 58.0233 142.172 57.3529C141.873 56.6826 141.387 56.1131 140.771 55.7133C140.156 55.3135 139.438 55.1005 138.704 55.1H109.873L130.178 15.0157C130.472 14.4366 130.612 13.792 130.585 13.1434C130.558 12.4948 130.366 11.8639 130.026 11.3107ZM100.299 57.1843C100.006 57.7636 99.8661 58.4082 99.8929 59.0569C99.9197 59.7055 100.112 60.3365 100.452 60.8896C100.792 61.4427 101.268 61.8995 101.835 62.2164C102.401 62.5333 103.039 62.6998 103.689 62.7H130.186L77.024 121.927L88.5703 89.2088C88.7727 88.6358 88.8346 88.0226 88.7511 87.4207C88.6675 86.8188 88.4408 86.2458 88.0899 85.7496C87.7391 85.2534 87.2744 84.8486 86.7348 84.5691C86.1952 84.2897 85.5965 84.1437 84.9888 84.1434H57.9689L87.4683 17.1H120.604L100.299 57.1843ZM19.9993 114C20.2653 114 20.5389 113.972 20.8106 113.913L42.6036 109.172C43.0986 109.074 43.569 108.877 43.9874 108.595C44.4057 108.313 44.7637 107.95 45.0403 107.528C45.3169 107.106 45.5067 106.633 45.5985 106.137C45.6904 105.64 45.6824 105.131 45.5752 104.638C45.4679 104.144 45.2635 103.678 44.9738 103.264C44.6841 102.851 44.315 102.499 43.8881 102.23C43.4611 101.961 42.9848 101.78 42.487 101.697C41.9892 101.614 41.4798 101.631 40.9886 101.747L19.1956 106.487C18.2804 106.687 17.4713 107.218 16.9235 107.978C16.3757 108.737 16.1278 109.673 16.2274 110.604C16.3271 111.536 16.7672 112.397 17.4634 113.024C18.1595 113.651 19.0626 113.998 19.9993 114ZM9.49609 85.5C9.49609 86.5078 9.89645 87.4744 10.6091 88.187C11.3217 88.8997 12.2883 89.3 13.2961 89.3H35.0929C36.1007 89.3 37.0673 88.8997 37.7799 88.187C38.4925 87.4744 38.8929 86.5078 38.8929 85.5C38.8929 84.4922 38.4925 83.5256 37.7799 82.813C37.0673 82.1004 36.1007 81.7 35.0929 81.7H13.298C12.2902 81.7 11.3236 82.1004 10.611 82.813C9.89835 83.5256 9.49609 84.4922 9.49609 85.5ZM42.6055 61.8279L20.8125 57.0874C19.8341 56.8891 18.8169 57.0838 17.9809 57.6294C17.1448 58.175 16.5571 59.0277 16.3447 60.0031C16.1322 60.9786 16.3122 61.9985 16.8457 62.8423C17.3792 63.6861 18.2233 64.2861 19.1956 64.5126L40.9886 69.2531C41.9656 69.4475 42.9799 69.2505 43.813 68.7045C44.6462 68.1585 45.2317 67.3072 45.4434 66.3338C45.6551 65.3604 45.4761 64.3428 44.945 63.5001C44.4139 62.6573 43.575 62.0569 42.6055 61.8279Z" fill="#0773BD"/>
</svg>
