<svg width="178" height="178" viewBox="0 0 178 178" fill="none" xmlns="http://www.w3.org/2000/svg">
<path d="M121.402 116.395C116.708 114.761 111.632 114.657 106.939 113.023C105.514 112.536 102.698 111.945 102.107 110.311C101.55 108.712 101.55 106.835 101.446 105.166C101.377 103.845 101.342 102.524 101.342 101.203C101.342 100.334 103.567 98.491 104.054 97.6914C105.931 94.5624 106.105 90.3558 106.452 86.8097C109.477 87.6441 109.859 82.0468 110.381 80.3433C110.763 79.1613 113.093 71.0261 109.477 72.1386C110.346 70.6089 110.694 68.7316 110.937 67.0281C111.632 62.5781 111.911 57.7109 110.555 53.3652C107.739 44.3261 99.082 39.2503 89.9387 38.9722C80.6563 38.6593 71.3391 43.1093 67.8625 52.1136C66.1937 56.4941 66.3328 61.257 66.8891 65.846C67.1324 67.932 67.4801 70.2613 68.523 72.1386C65.1508 71.1304 66.9586 78.2921 67.341 79.5437C67.8973 81.3167 68.384 87.6789 71.5477 86.8097C71.8258 89.6257 72.1387 92.5113 72.9035 95.2578C73.425 97.1003 74.5027 98.6648 75.7543 100.09C76.3801 100.785 76.693 100.855 76.6582 101.759C76.6234 104.471 76.693 107.391 75.9977 110.033C75.3023 112.675 69.4965 113.788 67.1672 114.275C60.9094 115.561 55.1383 116.152 49.9234 120.046C43.8395 124.53 40.6758 131.518 40.6758 139.062H137.324C137.324 128.807 131.136 119.768 121.402 116.395C125.33 117.751 117.508 115.039 121.402 116.395ZM51.1402 126.408C53.0871 124.357 55.5555 122.549 58.2324 121.541C61.8828 120.15 66.0199 120.219 69.8094 119.246C72.9383 118.446 76.832 117.195 79.2656 114.935C81.4906 112.849 81.734 109.651 81.9426 106.765C82.1164 104.332 82.0816 101.933 82.0816 99.4992C82.0816 97.7957 80.1 96.8222 79.1266 95.4664C77.5621 93.3456 77.4926 90.182 77.1797 87.6441C77.0406 86.5316 77.0059 85.1062 76.0672 84.3414C75.0242 83.507 74.2594 83.055 73.7379 81.7339C73.0426 79.9261 72.7992 77.9792 72.243 76.1019C71.8953 74.8851 73.1121 73.7378 73.5988 72.7296C74.5027 70.8871 72.9383 68.0363 72.6254 66.1242C71.652 60.4226 71.6867 54.1996 75.7891 49.68C84.0285 40.5714 102.906 43.457 105.618 56.2507C106.452 60.2488 105.931 64.9074 104.818 68.8011C104.332 70.4699 103.775 71.6867 104.749 73.3206C106.209 75.6847 105.583 77.2144 104.888 79.8566C104.332 82.0468 103.636 83.0203 101.968 84.3761C100.577 85.4886 100.786 88.2699 100.542 89.8691C100.264 91.816 100.09 93.8671 98.9082 95.5011C98.4562 96.1269 95.9879 98.0738 95.9879 98.7343C95.9879 102.559 95.8141 106.452 96.4746 110.242C97.3785 115.63 101.898 116.917 106.418 118.759C111.007 120.532 116.326 119.872 120.776 122.062C125.365 124.322 129.78 128.459 131.101 133.569H46.9336C47.5941 130.684 49.1934 128.494 51.1402 126.408C54.3387 123.035 49.0891 128.598 51.1402 126.408Z" fill="#0773BD"/>
<path d="M50.0973 111.945C52.5309 110.728 55.173 110.45 57.85 110.172C58.8234 110.068 59.2754 109.407 58.5453 108.469C57.1547 106.696 52.357 106.348 50.3406 105.548C49.0891 105.062 48.7414 104.61 48.6371 103.219C48.6023 102.593 48.2547 99.812 48.7414 99.3601C49.0891 99.0124 51.2793 99.1515 51.766 99.082C53.7477 98.8386 55.7641 98.4214 57.6414 97.6913C58.441 97.3784 59.2059 96.996 59.9012 96.5093C60.7355 95.8835 59.2754 94.3538 58.893 93.5195C57.7109 90.912 57.1895 88.0613 57.0156 85.2105C56.668 79.6132 57.5371 73.9812 56.4941 68.4187C54.9297 59.9011 48.359 55.6249 39.9805 55.6249C34.8004 55.6249 29.6898 57.398 26.8043 61.9175C23.6059 66.889 23.7797 73.0773 23.9535 78.7441C24.0578 81.9773 24.1969 85.2452 23.7449 88.4784C23.5363 89.8691 23.2234 91.2249 22.7367 92.546C22.3543 93.5542 20.4074 96.0573 21.1723 96.5788C24.0578 98.63 28.925 99.3253 32.4016 99.0472C32.5059 100.751 32.8188 102.941 32.193 104.54C31.2195 107.043 23.9535 107.704 21.7633 108.434C15.6445 110.485 11.125 115.596 11.125 122.375H38.7637C39.2156 122.375 40.9539 119.142 41.4406 118.62C43.8742 115.909 46.8641 113.579 50.0973 111.945C53.2262 110.381 45.0215 114.518 50.0973 111.945ZM35.7391 116.812H18.7387C21.207 112.71 27.3953 112.988 31.4629 111.528C35.2176 110.172 37.6164 107.878 37.9988 103.88C38.0336 103.428 38.0684 93.7281 37.6859 93.7281C34.6613 93.6238 31.4977 93.6933 28.473 93.2413C30.8719 85.4886 28.5773 77.4925 29.8637 69.6702C30.8023 64.0034 34.418 60.8745 40.1891 60.8745C45.7168 60.8745 49.8191 63.4472 51.0012 69.0097C52.6699 77.0753 50.3059 85.3148 52.8785 93.3109C50.9664 93.7976 48.95 93.8671 46.9684 93.9366C45.9949 93.9714 44.9867 94.0062 44.0133 94.0409C43.3875 94.0757 43.5961 95.1534 43.5613 95.6749C43.2137 99.4644 41.823 105.444 44.8477 108.503C41.5102 110.589 37.8945 113.475 35.7391 116.812ZM138.993 122.375H166.875C166.875 115.596 162.321 110.45 156.202 108.434C153.386 107.53 147.962 107.252 145.946 104.818C144.938 103.601 145.494 100.507 145.598 99.0472C147.128 99.1863 148.797 98.9429 150.361 98.7343C151.787 98.5257 153.177 98.2476 154.533 97.7609C155.159 97.5175 155.785 97.2741 156.376 96.9265C157.732 96.1269 157.106 95.9878 156.411 94.8058C152.621 88.4437 154.325 80.3781 154.151 73.3902C154.012 67.5843 152.482 61.2222 147.198 57.9542C142.435 54.9991 135.377 54.8948 130.267 56.9808C115.526 62.8909 124.218 82.4292 119.177 93.6237C118.307 95.5011 117.056 96.1616 119.246 97.2741C120.463 97.8999 121.784 98.3171 123.105 98.63C125.121 99.1167 127.207 99.3949 129.293 99.4644C129.641 99.4644 129.398 103.845 129.293 104.297C128.911 106 125.191 106.487 123.8 106.869C122.375 107.252 120.011 107.356 119.316 108.851C118.273 111.076 122.757 110.52 123.87 110.728C127.451 111.389 130.614 113.371 133.396 115.63C135.447 117.299 138.228 119.663 138.993 122.375ZM138.854 112.953C137.081 111.319 135.238 109.72 133.187 108.434C136.246 105.375 134.821 99.4296 134.473 95.6054C134.265 93.4152 133.778 93.9714 131.588 93.9019C129.502 93.8324 127.138 93.9366 125.156 93.2761C127.659 85.5234 125.608 77.562 126.895 69.6702C127.868 63.7253 131.936 60.805 137.846 60.805C143.2 60.805 146.885 63.482 147.997 68.8011C149.701 76.832 147.093 85.1409 149.562 93.137C146.607 93.589 143.547 93.4847 140.557 93.589C139.827 93.6238 139.897 102.315 139.966 103.08C140.21 107.148 142.087 109.616 145.946 111.18C150.153 112.884 156.723 112.432 159.296 116.708H143.756C141.288 116.743 140.662 114.587 138.854 112.953C140.245 114.205 137.116 111.354 138.854 112.953Z" fill="#0773BD"/>
</svg>
