<svg width="147" height="147" viewBox="0 0 147 147" fill="none" xmlns="http://www.w3.org/2000/svg">
<g clip-path="url(#clip0_2206_432)">
<path d="M142.895 5.68474C142.579 4.96697 142.005 4.39275 141.315 4.10564C140.942 3.93337 104.192 -11.5131 73.9596 18.6908C68.1887 24.4617 62.6188 31.2662 57.5082 38.4439L50.5315 36.8361C39.9945 34.3957 29.1418 37.4965 21.476 45.1336L2.44064 64.1976C-2.61249 69.2508 0.631848 77.8353 7.66603 78.3808L34.482 80.5342C33.3049 83.6637 32.3 86.7357 31.7258 88.7742C31.209 90.583 31.2951 92.4492 31.8406 94.1719C26.9885 95.4926 22.567 97.9043 20.0692 100.402C14.5567 105.886 9.64708 129.917 8.72833 134.683C8.32638 136.98 10.3649 138.731 12.3172 138.272C17.0832 137.324 41.1143 132.415 46.5981 126.931C49.2108 124.318 51.5651 119.839 52.857 115.16C54.6945 115.734 56.5608 115.734 58.2547 115.246H58.2834C60.3219 114.671 63.3078 113.724 66.4947 112.489L68.6481 139.305C69.1936 146.34 77.8068 149.555 82.8313 144.531L101.895 125.467C109.532 117.83 112.662 106.948 110.193 96.4113L108.585 89.4345C115.763 84.324 122.567 78.7541 128.338 72.9832C158.542 42.808 143.067 6.05798 142.895 5.68474ZM6.8047 68.533L25.84 49.4689C32.0129 43.2961 40.741 40.8269 49.1533 42.808L53.7758 43.8703C46.9139 54.1775 41.1143 64.9728 36.9225 74.5623L8.15411 72.2654C6.2879 72.0931 5.484 69.825 6.8047 68.533ZM42.2627 122.624C39.5926 125.295 26.3568 128.998 15.6764 131.353C18.002 120.643 21.7057 107.436 24.4045 104.766C26.7301 102.412 31.2664 100.373 35.6879 99.5695L47.4594 111.341C47.4307 111.456 47.4307 111.571 47.402 111.714C46.5406 115.935 44.4447 120.442 42.2627 122.624ZM53.2877 108.47L38.5303 93.7125C37.669 92.8511 37.3244 91.5592 37.6402 90.4107C37.8986 89.5207 38.3867 87.8554 39.0184 85.9892L61.0109 107.982C59.6902 108.441 57.9389 108.987 56.5895 109.36C55.441 109.704 54.1777 109.36 53.2877 108.47ZM104.192 97.8468C106.145 106.317 103.675 115.016 97.5313 121.16L78.4672 140.224C77.1465 141.545 74.907 140.712 74.7348 138.875L72.4379 110.106C82.0274 105.943 92.8227 100.115 103.13 93.2531L104.192 97.8468ZM67.2986 105.599L41.3727 79.6728C48.694 61.7859 62.6762 38.6162 78.2662 23.0261C96.067 5.22536 119.466 2.55525 137.698 9.27361C139.851 15.3029 148.407 44.2722 123.945 68.734C108.355 84.324 85.1856 98.3062 67.2986 105.599Z" fill="#0773BD"/>
<path d="M89.7503 27.3902C81.5103 35.6303 81.5103 48.9809 89.7503 57.2496C97.9904 65.4896 111.341 65.4896 119.61 57.2496C127.85 49.0096 127.85 35.6303 119.61 27.3902C111.341 19.1502 97.9904 19.1502 89.7503 27.3902ZM115.274 52.9143C109.417 58.7713 99.9427 58.7713 94.0857 52.9143C88.2287 47.0572 88.2287 37.5826 94.0857 31.7256C99.9427 25.8686 109.417 25.8686 115.274 31.7256C121.103 37.5826 121.103 47.0859 115.274 52.9143Z" fill="#0773BD"/>
</g>
<defs>
<clipPath id="clip0_2206_432">
<rect width="147" height="147" fill="white"/>
</clipPath>
</defs>
</svg>
