<svg width="167" height="103" viewBox="0 0 167 103" fill="none" xmlns="http://www.w3.org/2000/svg">
<path d="M14.7344 0.03125C13.976 0.03125 13.2487 0.332505 12.7125 0.868742C12.1763 1.40498 11.875 2.13227 11.875 2.89062V85.8125H3.29688C2.53852 85.8125 1.81123 86.1138 1.27499 86.65C0.738755 87.1862 0.4375 87.9135 0.4375 88.6719C0.4375 96.7296 7.64312 102.969 16.1069 102.969H150.612C159.076 102.969 166.281 96.7296 166.281 88.6719C166.281 87.9135 165.98 87.1862 165.444 86.65C164.908 86.1138 164.18 85.8125 163.422 85.8125H154.844V2.89062C154.844 2.13227 154.542 1.40498 154.006 0.868742C153.47 0.332505 152.743 0.03125 151.984 0.03125H14.7344ZM17.5938 5.75H149.125V85.8125H17.5938V5.75ZM29.0312 17.1875V74.375H137.688V68.6562H44.5119L59.6494 53.5244L71.0869 64.9619L93.9619 42.0869L99.6807 47.8057L120.531 26.9494V31.4844H126.25V17.1875H111.953V22.9062H116.488L99.675 39.7194L93.9562 34.0006L71.0812 56.8756L59.6437 45.4381L36.4313 68.6562H34.75V17.1875H29.0312ZM7.49444 91.5312H159.224C157.812 94.6766 154.975 97.25 150.612 97.25H16.1069C11.7435 97.25 8.90697 94.6766 7.49444 91.5312Z" fill="#0773BD"/>
</svg>
