<svg width="156" height="156" viewBox="0 0 156 156" fill="none" xmlns="http://www.w3.org/2000/svg">
<path d="M138.669 64.1551L145.494 47.5069C145.762 46.8732 145.737 46.1419 145.445 45.5326C145.152 44.9232 144.592 44.4357 143.934 44.2407L126.652 39.2194L125.579 21.2551C125.53 20.5726 125.214 19.9388 124.677 19.5001C124.141 19.0613 123.434 18.8907 122.752 18.9882L105.007 21.9132L96.2561 6.19131C95.9148 5.58194 95.3542 5.16756 94.6717 4.99694C94.0136 4.82631 93.2823 4.99694 92.7217 5.38694L78.0236 15.7707L63.3255 5.38694C62.7648 4.99694 62.058 4.85069 61.3755 4.99694C60.693 5.14319 60.1323 5.58194 59.7911 6.19131L51.0405 21.9132L33.2955 18.9638C32.6373 18.8419 31.9305 19.0369 31.3698 19.4757C30.8336 19.9144 30.4923 20.5482 30.468 21.2307L29.3955 39.1951L12.1136 44.2163C11.4555 44.4113 10.8948 44.8744 10.6023 45.5082C10.3098 46.1419 10.2855 46.8488 10.5536 47.4826L17.3786 64.1307L3.97234 76.1963C3.46047 76.6594 3.16797 77.3176 3.16797 78.0001C3.16797 78.6826 3.46047 79.3407 3.97234 79.8038L17.3298 91.8451L10.5048 108.493C10.2367 109.127 10.2611 109.858 10.5536 110.468C10.8461 111.077 11.4067 111.564 12.0648 111.759L29.3467 116.781L30.4192 134.745C30.468 135.428 30.7848 136.061 31.3211 136.5C31.8573 136.939 32.5642 137.109 33.2467 137.012L50.9917 134.087L59.7423 149.809C60.0836 150.418 60.6442 150.833 61.3267 151.003C61.9848 151.174 62.7161 151.003 63.2767 150.613L77.9748 140.229L92.673 150.613C93.0873 150.906 93.5748 151.052 94.0867 151.052C94.2573 151.052 94.4523 151.052 94.623 150.979C95.3055 150.833 95.8661 150.394 96.2074 149.784L104.958 134.063L122.703 137.012C123.361 137.134 124.068 136.939 124.629 136.5C125.165 136.061 125.506 135.428 125.53 134.745L126.603 116.781L143.885 111.759C144.543 111.564 145.104 111.101 145.396 110.468C145.689 109.834 145.713 109.127 145.445 108.493L138.62 91.8451L151.977 79.8038C152.489 79.3407 152.782 78.6826 152.782 78.0001C152.782 77.3176 152.489 76.6594 151.977 76.1963L138.62 64.1551H138.669ZM134.135 89.3832C133.379 90.0657 133.111 91.1626 133.525 92.1132L139.985 107.835L123.654 112.588C122.654 112.881 121.972 113.758 121.899 114.782L120.875 131.747L104.105 128.968C103.081 128.798 102.082 129.285 101.57 130.187L93.3067 145.031L79.413 135.233C78.9986 134.94 78.5111 134.794 77.9992 134.794C77.4873 134.794 77.0242 134.94 76.5855 135.233L62.6917 145.031L54.4286 130.187C53.9411 129.285 52.9173 128.798 51.8936 128.968L35.1236 131.747L34.0998 114.782C34.0267 113.758 33.3442 112.881 32.3448 112.588L16.038 107.835L22.473 92.1132C22.863 91.1626 22.6192 90.0657 21.8636 89.3832L9.23734 78.0001L21.8636 66.6169C22.6192 65.9344 22.8873 64.8376 22.473 63.8869L16.0136 48.1651L32.3448 43.4119C33.3442 43.1194 34.0267 42.2419 34.0998 41.2182L35.1236 24.2532L51.8936 27.0319C52.9173 27.2269 53.9167 26.7151 54.4286 25.8132L62.6917 10.9688L76.5855 20.7676C77.4386 21.3526 78.5598 21.3526 79.3886 20.7676L93.2823 10.9688L101.545 25.8132C102.057 26.7151 103.057 27.2026 104.08 27.0319L120.85 24.2532L121.874 41.2182C121.947 42.2419 122.63 43.1194 123.629 43.4119L139.936 48.1651L133.501 63.8869C133.111 64.8376 133.355 65.9344 134.11 66.6169L146.737 78.0001L134.11 89.3832H134.135Z" fill="#0773BD"/>
<path d="M78 29.25C51.1144 29.25 29.25 51.1144 29.25 78C29.25 85.5806 31.0294 92.7225 34.125 99.1087V99.9375H34.515C42.5587 115.806 59.0119 126.75 78 126.75C104.886 126.75 126.75 104.886 126.75 78C126.75 51.1144 104.886 29.25 78 29.25ZM34.125 78C34.125 75.5137 34.3931 73.0762 34.7831 70.6875H53.625V95.0625H37.5863C35.3681 89.8219 34.125 84.045 34.125 78ZM78 121.875C61.815 121.875 47.6531 113.027 40.0725 99.9375H56.0625C57.1106 99.9375 57.9881 99.2794 58.3294 98.3531L59.5238 99.1087C62.8387 101.254 66.6656 102.375 70.6144 102.375H97.0125C102.667 102.375 107.25 97.7925 107.25 92.1619V73.1981C107.25 68.2988 103.253 64.3012 98.3288 64.3012H85.7756C84.8981 64.3012 84.1669 63.5944 84.1669 62.7169V51.2363C84.1669 47.1656 80.8519 43.875 76.7812 43.875H73.8562C69.7856 43.875 66.4706 47.19 66.4706 51.2363V61.2787C66.4706 63.375 65.0325 65.2275 62.985 65.7637L58.1588 67.0312C57.7444 66.3 56.9888 65.7637 56.0625 65.7637H35.88C41.1694 47.4825 58.0369 34.0762 78 34.0762C102.18 34.0762 121.875 53.7712 121.875 77.9512C121.875 102.131 102.18 121.826 78 121.826V121.875ZM85.7756 69.1762H98.3288C100.547 69.1762 102.326 70.9313 102.375 73.125H90.1875V78H102.375V80.4375H90.1875V85.3125H102.375V87.75H90.1875V92.625H102.326C102.082 95.355 99.8156 97.5 97.0125 97.5H70.6144C67.6162 97.5 64.6912 96.6469 62.1806 95.0137L58.5244 92.6494V72.0281L64.2525 70.5169C68.4206 69.3956 71.3456 65.6175 71.3456 61.3031V51.2606C71.3456 49.8956 72.4669 48.7744 73.8562 48.7744H76.7812C78.1706 48.7744 79.2919 49.8956 79.2919 51.2606V62.7412C79.2919 66.3 82.1925 69.2006 85.7756 69.2006V69.1762Z" fill="#0773BD"/>
</svg>
