<svg width="159" height="159" viewBox="0 0 159 159" fill="none" xmlns="http://www.w3.org/2000/svg">
<path d="M66.3974 4.96387C65.7385 4.96387 65.1066 5.2255 64.6407 5.69141C64.1748 6.15732 63.913 6.78934 63.913 7.44824V20.4812C58.5965 21.8725 53.5035 23.9591 48.7484 26.7018L39.5761 17.5447C39.1102 17.0789 38.4784 16.8171 37.8196 16.8171C37.1609 16.8171 36.5291 17.0789 36.0632 17.5447L17.5447 36.068C17.0789 36.5339 16.8173 37.1658 16.8173 37.8245C16.8173 38.4833 17.0789 39.1152 17.5447 39.581L26.7368 48.7731C23.9742 53.5232 21.8625 58.6066 20.4563 63.9232H7.45312C6.79423 63.9232 6.16232 64.1845 5.69641 64.6504C5.2305 65.1163 4.96875 65.7487 4.96875 66.4076V72.0617C4.96875 72.7206 5.2305 73.3523 5.69641 73.8182C6.16232 74.2841 6.79423 74.5461 7.45312 74.5461C8.11202 74.5461 8.74393 74.2841 9.20984 73.8182C9.67575 73.3523 9.9375 72.7206 9.9375 72.0617V68.8919H22.0861C22.6518 68.8931 23.2009 68.7011 23.6427 68.3479C24.0845 67.9946 24.3925 67.5013 24.5158 66.9492C25.9261 60.7607 28.3702 54.8539 31.7453 49.4785C32.0439 49.0021 32.1721 48.439 32.1089 47.8803C32.0458 47.3216 31.795 46.801 31.3975 46.4034L22.8165 37.8269L37.8221 22.8115L46.3783 31.3728C46.7753 31.7678 47.2941 32.0169 47.8506 32.08C48.4071 32.1431 48.9686 32.0164 49.444 31.7203C54.832 28.3598 60.7483 25.9327 66.944 24.5408C67.4951 24.4165 67.9874 24.1078 68.3397 23.6661C68.692 23.2244 68.8832 22.6759 68.8818 22.111V9.93262H90.1182V22.0812C90.1163 22.6449 90.3061 23.1925 90.6564 23.634C91.0067 24.0755 91.4968 24.3848 92.0461 24.511C98.2372 25.9222 104.14 28.3616 109.516 31.7403C109.994 32.0415 110.559 32.1711 111.12 32.1079C111.681 32.0447 112.203 31.7926 112.602 31.3928L121.183 22.8115L136.188 37.8269L127.637 46.373C127.239 46.771 126.987 47.2932 126.924 47.853C126.861 48.4128 126.99 48.9768 127.289 49.4537C130.649 54.8387 133.076 60.7517 134.469 66.9437C134.591 67.4942 134.896 67.9872 135.335 68.3412C135.774 68.6952 136.32 68.8895 136.884 68.8919H149.062V90.1135H136.914C136.35 90.1118 135.802 90.302 135.36 90.6533C134.918 91.0046 134.609 91.4957 134.484 92.0459C133.073 98.2358 130.629 104.144 127.255 109.521C126.955 109.998 126.826 110.563 126.889 111.123C126.952 111.682 127.204 112.204 127.602 112.602L136.184 121.178L121.178 136.193L112.622 127.632C112.225 127.237 111.706 126.988 111.149 126.925C110.593 126.862 110.031 126.988 109.556 127.284C104.168 130.645 98.2517 133.072 92.056 134.464C91.5057 134.588 91.014 134.896 90.6618 135.337C90.3097 135.778 90.1179 136.325 90.1182 136.889V149.063H68.8818V136.909C68.8803 136.348 68.689 135.804 68.3389 135.365C67.9889 134.927 67.5007 134.62 66.9539 134.494C60.7654 133.084 54.8591 130.64 49.4838 127.264C49.0064 126.963 48.4408 126.834 47.88 126.897C47.3191 126.96 46.7965 127.213 46.3982 127.613L37.8172 136.193L22.8115 121.178L31.3627 112.632C31.7614 112.234 32.0129 111.712 32.0761 111.152C32.1393 110.593 32.0104 110.028 31.7106 109.551C28.3526 104.164 25.927 98.2497 24.5357 92.0562C24.4127 91.5058 24.1062 91.0136 23.6664 90.6606C23.2267 90.3075 22.6799 90.1146 22.1159 90.1135H9.9375V81.9792C9.9375 81.3203 9.67575 80.6886 9.20984 80.2227C8.74393 79.7567 8.11202 79.4948 7.45312 79.4948C6.79423 79.4948 6.16232 79.7567 5.69641 80.2227C5.2305 80.6886 4.96875 81.3203 4.96875 81.9792V92.5978C4.96875 93.2567 5.2305 93.8885 5.69641 94.3544C6.16232 94.8203 6.79423 95.0822 7.45312 95.0822H20.4862C21.8774 100.399 23.9643 105.492 26.717 110.252L17.5447 119.424C17.0789 119.89 16.8173 120.522 16.8173 121.18C16.8173 121.839 17.0789 122.471 17.5447 122.937L36.0632 141.46C36.5291 141.926 37.1609 142.188 37.8196 142.188C38.4784 142.188 39.1102 141.926 39.5761 141.46L48.7683 132.268C53.5184 135.031 58.6014 137.138 63.913 138.539V151.542C63.913 152.201 64.1748 152.833 64.6407 153.299C65.1066 153.765 65.7385 154.026 66.3974 154.026H92.6026C93.2615 154.026 93.8934 153.765 94.3593 153.299C94.8252 152.833 95.087 152.201 95.087 151.542V138.524C100.404 137.132 105.492 135.036 110.252 132.288L119.424 141.46C119.89 141.926 120.522 142.188 121.18 142.188C121.839 142.188 122.471 141.926 122.937 141.46L141.455 122.937C141.921 122.471 142.183 121.839 142.183 121.18C142.183 120.522 141.921 119.89 141.455 119.424L132.263 110.232C135.026 105.477 137.137 100.394 138.544 95.0822H151.547C152.206 95.0822 152.838 94.8203 153.304 94.3544C153.77 93.8885 154.031 93.2567 154.031 92.5978V66.4076C154.031 65.7487 153.77 65.1163 153.304 64.6504C152.838 64.1845 152.206 63.9232 151.547 63.9232H138.514C137.123 58.6017 135.036 53.5132 132.283 48.7531L141.455 39.581C141.921 39.1152 142.183 38.4833 142.183 37.8245C142.183 37.1658 141.921 36.5339 141.455 36.068L122.937 17.5447C122.471 17.0789 121.839 16.8171 121.18 16.8171C120.522 16.8171 119.89 17.0789 119.424 17.5447L110.232 26.737C105.487 23.9762 100.394 21.8651 95.087 20.4612V7.44824C95.087 6.78934 94.8252 6.15732 94.3593 5.69141C93.8934 5.2255 93.2615 4.96387 92.6026 4.96387H66.3974Z" fill="#0773BD"/>
<path fill-rule="evenodd" clip-rule="evenodd" d="M88.0314 69.3638L76.0766 80.7121L70.9389 75.8476L67.5254 79.4602L76.0716 87.5593L91.4449 72.9757L88.0314 69.3638Z" fill="#0773BD"/>
<path d="M79.4106 37.2708C79.1459 37.2788 78.8842 37.3287 78.6354 37.4194C69.8358 40.6739 56.1618 46.1595 44.7188 46.1595C44.0599 46.1595 43.4279 46.4215 42.962 46.8874C42.4961 47.3533 42.2344 47.985 42.2344 48.6439C42.2344 91.077 60.3107 110.654 78.228 121.382C78.6127 121.611 79.0522 121.732 79.5 121.732C79.9478 121.732 80.3873 121.611 80.772 121.382C82.9881 120.055 85.219 118.589 87.4202 116.959C89.6213 115.32 91.7977 113.521 93.9094 111.519C96.0931 109.458 98.1334 107.249 100.016 104.91C101.959 102.49 103.792 99.8423 105.487 96.9455C107.261 93.9104 108.809 90.748 110.117 87.4847C110.808 85.7705 111.459 83.9919 112.05 82.1436C112.149 81.8326 112.186 81.505 112.159 81.1798C112.132 80.8546 112.041 80.5381 111.891 80.2481C111.741 79.9581 111.536 79.7006 111.286 79.49C111.037 79.2794 110.749 79.1197 110.438 79.0205C110.127 78.9213 109.8 78.8846 109.474 78.9119C109.149 78.9393 108.833 79.0303 108.543 79.18C108.253 79.3297 107.995 79.5348 107.784 79.7841C107.574 80.0334 107.414 80.3218 107.315 80.6327C106.754 82.3717 106.152 84.0313 105.506 85.6263C104.293 88.6631 102.856 91.6059 101.208 94.4308C98.2928 99.411 94.6861 103.953 90.4958 107.921C88.5382 109.77 86.5159 111.444 84.4588 112.965C82.844 114.162 81.2093 115.201 79.5696 116.229C63.3714 106.177 48.018 89.0896 47.4168 50.6613C59.2424 49.9656 71.4158 45.4046 79.4702 42.3936C86.337 45.1115 97.2434 50.0405 111.693 50.7013C111.669 54.4058 111.487 58.1072 111.146 61.7961C111.098 62.1277 111.118 62.4658 111.204 62.7896C111.29 63.1134 111.441 63.4166 111.647 63.6806C111.853 63.9446 112.111 64.164 112.404 64.3259C112.697 64.4879 113.02 64.5887 113.354 64.6225C113.687 64.6564 114.024 64.6227 114.344 64.5231C114.664 64.4234 114.96 64.2598 115.215 64.0427C115.47 63.8255 115.679 63.5595 115.828 63.2596C115.978 62.9598 116.065 62.6327 116.085 62.2983C116.532 58.0252 116.766 53.4835 116.766 48.6439C116.766 47.985 116.504 47.3533 116.038 46.8874C115.572 46.4215 114.94 46.1595 114.281 46.1595C99.1017 46.1595 88.24 40.4359 80.3944 37.4248C80.0798 37.3093 79.7452 37.2536 79.4106 37.2708ZM112.453 67.2221C111.881 67.2442 111.335 67.463 110.905 67.8414C110.476 68.2198 110.191 68.7345 110.098 69.2989C109.869 70.5908 109.621 71.8528 109.352 73.0801C109.269 73.4031 109.252 73.7396 109.302 74.0693C109.352 74.3991 109.467 74.7157 109.642 74.9998C109.817 75.2839 110.047 75.5301 110.319 75.7234C110.59 75.9166 110.898 76.0532 111.224 76.1249C111.55 76.1966 111.887 76.2019 112.214 76.1407C112.542 76.0795 112.854 75.9527 113.132 75.7683C113.41 75.5839 113.648 75.3454 113.832 75.0671C114.015 74.7888 114.141 74.4768 114.202 74.1488C114.49 72.8569 114.748 71.5251 114.992 70.1736C115.062 69.8063 115.049 69.428 114.953 69.0666C114.857 68.7052 114.681 68.3702 114.437 68.0865C114.193 67.8027 113.889 67.5774 113.546 67.4278C113.203 67.2781 112.826 67.208 112.453 67.2221Z" fill="#0773BD"/>
</svg>
