<svg width="138" height="138" viewBox="0 0 138 138" fill="none" xmlns="http://www.w3.org/2000/svg">
<g clip-path="url(#clip0_28_470)">
<path d="M129.375 17.25H103.5C102.637 15.755 102.666 15.9275 96.6 9.86125C95.1876 8.45022 93.3293 7.5729 91.3423 7.37891C89.3552 7.18492 87.3624 7.68629 85.7038 8.7975C85.2925 9.0949 84.81 9.27816 84.305 9.32865C83.8 9.37915 83.2907 9.29508 82.8288 9.085C82.36 8.86219 81.9526 8.52841 81.642 8.11259C81.3314 7.69677 81.1269 7.21147 81.0462 6.69875C80.6213 4.83985 79.5924 3.17416 78.1203 1.96214C76.6482 0.750123 74.8159 0.0601124 72.91 3.57388e-06H65.09C63.0805 -0.00182496 61.1334 0.698062 59.585 1.97882C58.0365 3.25958 56.9839 5.04083 56.6088 7.015C56.517 7.46427 56.3192 7.88507 56.0317 8.2423C55.7442 8.59953 55.3755 8.88282 54.9562 9.06853C54.537 9.25423 54.0794 9.33697 53.6217 9.30983C53.164 9.28268 52.7194 9.14645 52.325 8.9125C50.664 7.74109 48.6426 7.19391 46.6175 7.36749C44.5924 7.54107 42.6937 8.42426 41.2563 9.86125C35.7363 15.41 35.2762 15.64 34.5 17.25H8.625C6.33751 17.25 4.14371 18.1587 2.5262 19.7762C0.908703 21.3937 0 23.5875 0 25.875L0 100.625C0 102.912 0.908703 105.106 2.5262 106.724C4.14371 108.341 6.33751 109.25 8.625 109.25H54.8838C52.0088 122.418 52.555 120.75 51.75 120.75C49.4625 120.75 47.2687 121.659 45.6512 123.276C44.0337 124.894 43.125 127.088 43.125 129.375V135.125C43.125 135.887 43.4279 136.619 43.9671 137.158C44.5062 137.697 45.2375 138 46 138H92C92.7625 138 93.4938 137.697 94.0329 137.158C94.5721 136.619 94.875 135.887 94.875 135.125V129.375C94.8776 128.192 94.637 127.022 94.168 125.936C93.6991 124.85 93.0118 123.872 92.149 123.064C91.2862 122.255 90.2662 121.632 89.1525 121.234C88.0388 120.836 86.8551 120.671 85.675 120.75L83.1162 109.25H129.375C131.662 109.25 133.856 108.341 135.474 106.724C137.091 105.106 138 102.912 138 100.625V25.875C138 23.5875 137.091 21.3937 135.474 19.7762C133.856 18.1587 131.662 17.25 129.375 17.25ZM45.3388 13.9438C45.8137 13.4628 46.443 13.1646 47.116 13.1015C47.789 13.0384 48.4627 13.2145 49.0187 13.5988C50.2003 14.3875 51.5583 14.8722 52.9722 15.0097C54.3861 15.1473 55.8122 14.9335 57.1236 14.3873C58.435 13.8411 59.5911 12.9795 60.4894 11.8789C61.3877 10.7784 62.0002 9.473 62.2725 8.07875C62.401 7.41429 62.7597 6.81644 63.2856 6.39047C63.8115 5.96449 64.4708 5.7377 65.1475 5.75H72.9675C73.6442 5.7377 74.3035 5.96449 74.8294 6.39047C75.3553 6.81644 75.714 7.41429 75.8425 8.07875C76.1244 9.47012 76.7453 10.7704 77.6503 11.8642C78.5552 12.958 79.7161 13.8116 81.0301 14.3491C82.344 14.8866 83.7703 15.0915 85.1824 14.9455C86.5945 14.7996 87.9488 14.3074 89.125 13.5125C91.5975 12.0463 92.6038 13.8863 98.1813 19.4638C98.6622 19.9387 98.9604 20.568 99.0235 21.241C99.0866 21.914 98.9105 22.5877 98.5263 23.1438C97.7375 24.3253 97.2528 25.6833 97.1153 27.0972C96.9777 28.5112 97.1915 29.9372 97.7377 31.2486C98.2839 32.56 99.1455 33.7162 100.246 34.6144C101.347 35.5127 102.652 36.1252 104.046 36.3975C104.711 36.526 105.309 36.8847 105.735 37.4106C106.161 37.9365 106.387 38.5958 106.375 39.2725V47.0925C106.375 51.3188 100.452 48.5875 97.75 55.0563C97.1988 56.3856 96.989 57.8316 97.1396 59.2628C97.2903 60.6939 97.7966 62.0646 98.6125 63.25C100.079 65.7225 98.2387 66.7575 92.6612 72.3063C92.1863 72.7872 91.557 73.0854 90.884 73.1485C90.211 73.2116 89.5373 73.0355 88.9813 72.6513C87.7997 71.8625 86.4417 71.3778 85.0278 71.2403C83.6139 71.1027 82.1878 71.3165 80.8764 71.8627C79.565 72.4089 78.4089 73.2705 77.5106 74.3711C76.6123 75.4716 75.9998 76.777 75.7275 78.1713C75.599 78.8357 75.2403 79.4336 74.7144 79.8595C74.1885 80.2855 73.5292 80.5123 72.8525 80.5H65.09C64.4133 80.5123 63.754 80.2855 63.2281 79.8595C62.7022 79.4336 62.3435 78.8357 62.215 78.1713C61.9372 76.7708 61.3161 75.4611 60.4074 74.3599C59.4986 73.2586 58.3307 72.4002 57.0085 71.8616C55.6862 71.323 54.2508 71.121 52.8313 71.2739C51.4117 71.4268 50.0523 71.9297 48.875 72.7375C46.4025 74.2038 45.3963 72.3638 39.8188 66.7863C39.3733 66.3207 39.0972 65.7191 39.0346 65.0778C38.972 64.4365 39.1267 63.7929 39.4737 63.25C40.2625 62.0685 40.7472 60.7104 40.8847 59.2965C41.0223 57.8826 40.8085 56.4566 40.2623 55.1452C39.7161 53.8338 38.8545 52.6776 37.7539 51.7794C36.6534 50.8811 35.348 50.2686 33.9538 49.9963C33.2893 49.8678 32.6914 49.509 32.2655 48.9831C31.8395 48.4572 31.6127 47.7979 31.625 47.1213V39.215C31.625 34.9888 37.5475 37.72 40.25 31.2513C40.8114 29.9143 41.0267 28.4573 40.876 27.0151C40.7252 25.5729 40.2133 24.192 39.3875 23C37.9212 20.5275 39.7612 19.4925 45.3388 13.9438ZM5.75 25.875C5.75 25.1125 6.0529 24.3812 6.59207 23.8421C7.13124 23.3029 7.8625 23 8.625 23H33.35C33.5666 24.2289 34.0472 25.3962 34.7588 26.4213C34.9987 26.8145 35.1407 27.2597 35.1727 27.7192C35.2047 28.1788 35.1258 28.6394 34.9426 29.0621C34.7595 29.4848 34.4774 29.8573 34.1202 30.1482C33.763 30.4391 33.341 30.64 32.89 30.7338C30.8913 31.1132 29.0911 32.1869 27.8074 33.7652C26.5238 35.3435 25.8393 37.3247 25.875 39.3588V47.1788C25.8747 49.1215 26.5304 51.0075 27.7357 52.5312C28.9411 54.0548 30.6256 55.1269 32.5163 55.5738C33.049 55.6145 33.5598 55.8028 33.9915 56.1176C34.4231 56.4325 34.7585 56.8614 34.96 57.3563C35.1701 57.8182 35.2541 58.3275 35.2036 58.8325C35.1532 59.3375 34.9699 59.8201 34.6725 60.2313C33.5613 61.8899 33.0599 63.8827 33.2539 65.8698C33.4479 67.8568 34.3252 69.7151 35.7363 71.1275L41.2563 76.6475C42.6884 78.0815 44.5797 78.9655 46.5985 79.1442C48.6172 79.323 50.6345 78.7851 52.2963 77.625C52.6895 77.385 53.1347 77.243 53.5942 77.211C54.0538 77.179 54.5144 77.2579 54.9371 77.4411C55.3598 77.6243 55.7323 77.9064 56.0232 78.2636C56.3141 78.6208 56.515 79.0427 56.6088 79.4938C57.0363 81.4202 58.1114 83.1418 59.6549 84.3714C61.1983 85.6009 63.1167 86.264 65.09 86.25H72.91C74.8528 86.2503 76.7388 85.5946 78.2624 84.3893C79.7861 83.1839 80.8582 81.4995 81.305 79.6088C81.3457 79.076 81.534 78.5652 81.8489 78.1335C82.1637 77.7019 82.5927 77.3665 83.0875 77.165C83.5495 76.9549 84.0588 76.8709 84.5637 76.9214C85.0687 76.9719 85.5513 77.1551 85.9625 77.4525C87.6212 78.5637 89.614 79.0651 91.601 78.8711C93.5881 78.6771 95.4463 77.7998 96.8587 76.3888L102.379 70.8688C103.813 69.4367 104.697 67.5453 104.875 65.5265C105.054 63.5078 104.516 61.4905 103.356 59.8288C103.116 59.4355 102.974 58.9903 102.942 58.5308C102.91 58.0712 102.989 57.6106 103.172 57.1879C103.356 56.7652 103.638 56.3927 103.995 56.1018C104.352 55.8109 104.774 55.61 105.225 55.5163C107.178 55.1176 108.933 54.0548 110.191 52.5086C111.448 50.9624 112.132 49.0283 112.125 47.035V39.215C112.125 37.2722 111.47 35.3862 110.264 33.8626C109.059 32.3389 107.374 31.2668 105.484 30.82C104.951 30.7793 104.44 30.591 104.009 30.2761C103.577 29.9613 103.241 29.5323 103.04 29.0375C102.12 26.8238 104.018 26.3638 104.65 23H129.375C130.137 23 130.869 23.3029 131.408 23.8421C131.947 24.3812 132.25 25.1125 132.25 25.875V92H5.75V25.875ZM89.125 129.375V132.25H48.875V129.375C48.875 128.613 49.1779 127.881 49.7171 127.342C50.2562 126.803 50.9875 126.5 51.75 126.5H86.25C87.0125 126.5 87.7438 126.803 88.2829 127.342C88.8221 127.881 89.125 128.613 89.125 129.375ZM79.7812 120.75H58.2188L60.7487 109.25H77.2513L79.7812 120.75ZM132.25 100.625C132.25 101.387 131.947 102.119 131.408 102.658C130.869 103.197 130.137 103.5 129.375 103.5H8.625C7.8625 103.5 7.13124 103.197 6.59207 102.658C6.0529 102.119 5.75 101.387 5.75 100.625V97.75H132.25V100.625Z" fill="#0773BD"/>
<path d="M69 69C74.1176 69 79.1203 67.4825 83.3754 64.6393C87.6305 61.7961 90.947 57.755 92.9054 53.0269C94.8638 48.2989 95.3762 43.0963 94.3778 38.077C93.3794 33.0578 90.9151 28.4473 87.2964 24.8286C83.6777 21.2099 79.0672 18.7456 74.048 17.7472C69.0287 16.7488 63.8261 17.2612 59.0981 19.2196C54.37 21.178 50.3289 24.4945 47.4857 28.7496C44.6425 33.0048 43.125 38.0074 43.125 43.125C43.125 49.9875 45.8511 56.5689 50.7036 61.4214C55.5561 66.2739 62.1375 69 69 69ZM69 23C72.9803 23 76.8713 24.1803 80.1809 26.3917C83.4904 28.603 86.0699 31.7461 87.5931 35.4235C89.1163 39.1009 89.5148 43.1473 88.7383 47.0512C87.9618 50.9551 86.0451 54.541 83.2305 57.3555C80.416 60.1701 76.8301 62.0868 72.9262 62.8633C69.0223 63.6398 64.9759 63.2413 61.2985 61.7181C57.6211 60.1949 54.478 57.6154 52.2667 54.3059C50.0553 50.9963 48.875 47.1054 48.875 43.125C48.875 37.7875 50.9953 32.6687 54.7695 28.8945C58.5436 25.1203 63.6625 23 69 23Z" fill="#0773BD"/>
<path d="M69 34.5C69.5686 34.5 70.1245 34.3314 70.5973 34.0155C71.0701 33.6996 71.4386 33.2506 71.6562 32.7252C71.8738 32.1999 71.9307 31.6218 71.8198 31.0641C71.7088 30.5064 71.435 29.9941 71.0329 29.5921C70.6309 29.19 70.1186 28.9162 69.5609 28.8052C69.0032 28.6943 68.4251 28.7512 67.8998 28.9688C67.3744 29.1864 66.9254 29.5549 66.6095 30.0277C66.2936 30.5005 66.125 31.0564 66.125 31.625C66.125 32.3875 66.4279 33.1188 66.9671 33.6579C67.5062 34.1971 68.2375 34.5 69 34.5ZM66.125 57.5H71.875C72.6375 57.5 73.3688 57.1971 73.9079 56.6579C74.4471 56.1188 74.75 55.3875 74.75 54.625C74.75 53.8625 74.4471 53.1312 73.9079 52.5921C73.3688 52.0529 72.6375 51.75 71.875 51.75V40.25C71.875 39.4875 71.5721 38.7562 71.0329 38.2171C70.4938 37.6779 69.7625 37.375 69 37.375H66.125C65.3625 37.375 64.6312 37.6779 64.0921 38.2171C63.5529 38.7562 63.25 39.4875 63.25 40.25C63.25 41.0125 63.5529 41.7438 64.0921 42.2829C64.6312 42.8221 65.3625 43.125 66.125 43.125V51.75C65.3625 51.75 64.6312 52.0529 64.0921 52.5921C63.5529 53.1312 63.25 53.8625 63.25 54.625C63.25 55.3875 63.5529 56.1188 64.0921 56.6579C64.6312 57.1971 65.3625 57.5 66.125 57.5Z" fill="#0773BD"/>
</g>
<defs>
<clipPath id="clip0_28_470">
<rect width="138" height="138" fill="white"/>
</clipPath>
</defs>
</svg>
