<svg width="142" height="141" viewBox="0 0 142 141" fill="none" xmlns="http://www.w3.org/2000/svg">
<path d="M96.0165 9.40986C95.3926 9.40986 94.7942 9.6577 94.3531 10.0989C93.9119 10.54 93.6641 11.1384 93.6641 11.7623C93.6641 12.3862 93.9119 12.9845 94.3531 13.4257C94.7942 13.8669 95.3926 14.1147 96.0165 14.1147C104.26 14.0845 112.182 17.3127 118.056 23.0962C118.507 23.5039 119.097 23.7217 119.704 23.7038C120.312 23.686 120.888 23.4339 121.314 23.0004C121.739 22.567 121.981 21.9857 121.987 21.3783C121.994 20.7709 121.766 20.1844 121.35 19.7417C114.598 13.0924 105.493 9.37908 96.0165 9.40986Z" fill="#0773BD"/>
<path d="M124.753 30.5823C126.052 30.5823 127.105 29.5291 127.105 28.2299C127.105 26.9307 126.052 25.8774 124.753 25.8774C123.454 25.8774 122.4 26.9307 122.4 28.2299C122.4 29.5291 123.454 30.5823 124.753 30.5823Z" fill="#0773BD"/>
<path d="M44.7723 63.6643C46.0715 63.6643 47.1248 62.6111 47.1248 61.3119C47.1248 60.0127 46.0715 58.9595 44.7723 58.9595C43.4731 58.9595 42.4199 60.0127 42.4199 61.3119C42.4199 62.6111 43.4731 63.6643 44.7723 63.6643Z" fill="#0773BD"/>
<path d="M63.5907 63.6643C64.8899 63.6643 65.9431 62.6111 65.9431 61.3119C65.9431 60.0127 64.8899 58.9595 63.5907 58.9595C62.2915 58.9595 61.2383 60.0127 61.2383 61.3119C61.2383 62.6111 62.2915 63.6643 63.5907 63.6643Z" fill="#0773BD"/>
<path d="M54.1805 63.6643C55.4798 63.6643 56.533 62.6111 56.533 61.3119C56.533 60.0127 55.4798 58.9595 54.1805 58.9595C52.8813 58.9595 51.8281 60.0127 51.8281 61.3119C51.8281 62.6111 52.8813 63.6643 54.1805 63.6643Z" fill="#0773BD"/>
<path d="M98.8766 58.9565H75.3524C74.7285 58.9565 74.1302 59.2044 73.689 59.6455C73.2478 60.0867 73 60.6851 73 61.309C73 61.9329 73.2478 62.5312 73.689 62.9724C74.1302 63.4135 74.7285 63.6614 75.3524 63.6614H98.8766C99.5005 63.6614 100.099 63.4135 100.54 62.9724C100.981 62.5312 101.229 61.9329 101.229 61.309C101.229 60.6851 100.981 60.0867 100.54 59.6455C100.099 59.2044 99.5005 58.9565 98.8766 58.9565Z" fill="#0773BD"/>
<path d="M96.0148 0.000647088C85.8883 0.00125499 76.0489 3.36574 68.0422 9.56559C63.7942 8.08815 59.2932 7.47719 54.8051 7.7688C50.317 8.06041 45.9328 9.24868 41.9118 11.2634C37.8907 13.2781 34.3142 16.0784 31.3937 19.4987C28.4732 22.9191 26.268 26.8902 24.9082 31.1773C19.1963 32.0156 13.8621 34.5316 9.5824 38.4063C5.30269 42.2809 2.27035 47.3395 0.870109 52.9402C-0.530134 58.5409 -0.235175 64.4314 1.71756 69.8642C3.6703 75.297 7.19281 80.0274 11.8382 83.4551V127.031C11.8382 127.655 12.086 128.254 12.5272 128.695C12.9684 129.136 13.5667 129.384 14.1906 129.384H32.5395V133.943C32.5395 135.814 33.283 137.609 34.6065 138.933C35.93 140.256 37.725 141 39.5967 141H106.405C108.277 141 110.072 140.256 111.396 138.933C112.719 137.609 113.463 135.814 113.463 133.943V129.384H127.107C127.731 129.384 128.329 129.136 128.77 128.695C129.211 128.254 129.459 127.655 129.459 127.031V110.564C129.459 109.94 129.211 109.342 128.77 108.901C128.329 108.46 127.731 108.212 127.107 108.212C126.483 108.212 125.884 108.46 125.443 108.901C125.002 109.342 124.754 109.94 124.754 110.564V124.679H113.463V120.12C113.463 118.248 112.719 116.453 111.396 115.13C110.072 113.806 108.277 113.063 106.405 113.063H104.171V108.066H106.405C108.277 108.066 110.072 107.323 111.396 105.999C112.719 104.676 113.463 102.881 113.463 101.009V87.186C113.459 86.7612 113.416 86.3376 113.336 85.9204C117.455 84.2359 121.303 81.9522 124.754 79.1431V91.745C124.754 92.3689 125.002 92.9673 125.443 93.4084C125.884 93.8496 126.483 94.0975 127.107 94.0975C127.731 94.0975 128.329 93.8496 128.77 93.4084C129.211 92.9673 129.459 92.3689 129.459 91.745V74.7276C137.041 66.5622 141.268 55.8394 141.297 44.6966C141.205 32.7692 136.386 21.3649 127.897 12.9858C119.408 4.60661 107.942 -0.0632451 96.0148 0.000647088ZM32.5395 120.12V124.679H16.543V86.3345C20.6279 88.3442 25.1193 89.3904 29.6719 89.3926H32.5395V101.009C32.5395 102.881 33.283 104.676 34.6065 105.999C35.93 107.323 37.725 108.066 39.5967 108.066H41.8315V113.063H39.5967C37.725 113.063 35.93 113.806 34.6065 115.13C33.283 116.453 32.5395 118.248 32.5395 120.12ZM106.405 117.768C107.029 117.768 107.628 118.015 108.069 118.457C108.51 118.898 108.758 119.496 108.758 120.12V133.943C108.758 134.567 108.51 135.165 108.069 135.606C107.628 136.047 107.029 136.295 106.405 136.295H39.5967C38.9728 136.295 38.3745 136.047 37.9333 135.606C37.4922 135.165 37.2443 134.567 37.2443 133.943V120.12C37.2443 119.496 37.4922 118.898 37.9333 118.457C38.3745 118.015 38.9728 117.768 39.5967 117.768H106.405ZM46.5364 113.063V108.358H99.4658V113.063H46.5364ZM108.758 101.009C108.758 101.633 108.51 102.231 108.069 102.672C107.628 103.113 107.029 103.361 106.405 103.361H39.5967C38.9728 103.361 38.3745 103.113 37.9333 102.672C37.4922 102.231 37.2443 101.633 37.2443 101.009V87.186C37.2598 86.567 37.5126 85.9776 37.9505 85.5398C38.3883 85.1019 38.9777 84.8491 39.5967 84.8336H106.405C107.026 84.8457 107.617 85.0974 108.056 85.5359C108.494 85.9745 108.746 86.5659 108.758 87.186V101.009ZM46.5364 75.4239H99.4658V80.1288H46.5364V75.4239ZM39.5967 70.4274C38.9728 70.4274 38.3745 70.1796 37.9333 69.7384C37.4922 69.2972 37.2443 68.6989 37.2443 68.075V54.2522C37.2443 53.6283 37.4922 53.0299 37.9333 52.5887C38.3745 52.1476 38.9728 51.8997 39.5967 51.8997H106.405C107.029 51.8997 107.628 52.1476 108.069 52.5887C108.51 53.0299 108.758 53.6283 108.758 54.2522V68.075C108.758 68.6989 108.51 69.2972 108.069 69.7384C107.628 70.1796 107.029 70.4274 106.405 70.4274H39.5967ZM110.99 81.8249C109.698 80.7562 108.082 80.1581 106.405 80.1288H104.171V75.1322H106.405C108.277 75.1322 110.072 74.3887 111.396 73.0652C112.719 71.7417 113.463 69.9467 113.463 68.075V54.2522C113.463 52.3805 112.719 50.5854 111.396 49.2619C110.072 47.9384 108.277 47.1949 106.405 47.1949H39.5967C37.725 47.1949 35.93 47.9384 34.6065 49.2619C33.283 50.5854 32.5395 52.3805 32.5395 54.2522V68.075C32.5395 69.9467 33.283 71.7417 34.6065 73.0652C35.93 74.3887 37.725 75.1322 39.5967 75.1322H41.8315V80.1288H39.5967C38.1687 80.1425 36.7777 80.5843 35.6034 81.397C34.4292 82.2098 33.5258 83.3561 33.01 84.6878H29.6719C23.321 84.7859 17.1789 82.4213 12.5332 78.0899C7.88762 73.7585 5.09939 67.7967 4.75318 61.4545C4.40697 55.1124 6.52968 48.8825 10.6762 44.0711C14.8227 39.2598 20.671 36.2407 26.9948 35.6469C27.4729 35.5969 27.9242 35.4018 28.288 35.0876C28.6518 34.7734 28.9106 34.3553 29.0297 33.8896C30.6401 27.7108 34.2628 22.2444 39.3256 18.3534C44.3884 14.4625 50.603 12.3687 56.9882 12.4026C60.6267 12.405 64.2326 13.0896 67.6188 14.421C68.0089 14.5733 68.4326 14.6188 68.8461 14.5526C69.2597 14.4864 69.6481 14.3111 69.9712 14.0446C77.3067 8.00561 86.5133 4.70419 96.0148 4.70549C106.695 4.64032 116.965 8.81408 124.572 16.3112C132.179 23.8083 136.502 34.0166 136.592 44.6966C136.547 52.7406 134.08 60.5845 129.514 67.2068C124.947 73.8292 118.493 78.923 110.99 81.8249Z" fill="#0773BD"/>
<path d="M44.7723 96.5979C46.0715 96.5979 47.1248 95.5447 47.1248 94.2455C47.1248 92.9463 46.0715 91.8931 44.7723 91.8931C43.4731 91.8931 42.4199 92.9463 42.4199 94.2455C42.4199 95.5447 43.4731 96.5979 44.7723 96.5979Z" fill="#0773BD"/>
<path d="M63.5907 96.5979C64.8899 96.5979 65.9431 95.5447 65.9431 94.2455C65.9431 92.9463 64.8899 91.8931 63.5907 91.8931C62.2915 91.8931 61.2383 92.9463 61.2383 94.2455C61.2383 95.5447 62.2915 96.5979 63.5907 96.5979Z" fill="#0773BD"/>
<path d="M54.1805 96.5979C55.4798 96.5979 56.533 95.5447 56.533 94.2455C56.533 92.9463 55.4798 91.8931 54.1805 91.8931C52.8813 91.8931 51.8281 92.9463 51.8281 94.2455C51.8281 95.5447 52.8813 96.5979 54.1805 96.5979Z" fill="#0773BD"/>
<path d="M98.8766 91.8906H75.3524C74.7285 91.8906 74.1302 92.1385 73.689 92.5796C73.2478 93.0208 73 93.6191 73 94.243C73 94.8669 73.2478 95.4653 73.689 95.9065C74.1302 96.3476 74.7285 96.5955 75.3524 96.5955H98.8766C99.5005 96.5955 100.099 96.3476 100.54 95.9065C100.981 95.4653 101.229 94.8669 101.229 94.243C101.229 93.6191 100.981 93.0208 100.54 92.5796C100.099 92.1385 99.5005 91.8906 98.8766 91.8906Z" fill="#0773BD"/>
<path d="M44.7723 129.532C46.0715 129.532 47.1248 128.479 47.1248 127.18C47.1248 125.88 46.0715 124.827 44.7723 124.827C43.4731 124.827 42.4199 125.88 42.4199 127.18C42.4199 128.479 43.4731 129.532 44.7723 129.532Z" fill="#0773BD"/>
<path d="M63.5907 129.532C64.8899 129.532 65.9431 128.479 65.9431 127.18C65.9431 125.88 64.8899 124.827 63.5907 124.827C62.2915 124.827 61.2383 125.88 61.2383 127.18C61.2383 128.479 62.2915 129.532 63.5907 129.532Z" fill="#0773BD"/>
<path d="M54.1805 129.532C55.4798 129.532 56.533 128.479 56.533 127.18C56.533 125.88 55.4798 124.827 54.1805 124.827C52.8813 124.827 51.8281 125.88 51.8281 127.18C51.8281 128.479 52.8813 129.532 54.1805 129.532Z" fill="#0773BD"/>
<path d="M75.3527 129.53H98.8769C99.5008 129.53 100.099 129.282 100.54 128.841C100.981 128.399 101.229 127.801 101.229 127.177C101.229 126.553 100.981 125.955 100.54 125.514C100.099 125.073 99.5008 124.825 98.8769 124.825H75.3527C74.7288 124.825 74.1305 125.073 73.6893 125.514C73.2481 125.955 73.0003 126.553 73.0003 127.177C73.0003 127.801 73.2481 128.399 73.6893 128.841C74.1305 129.282 74.7288 129.53 75.3527 129.53ZM42.4188 23.5249C41.7949 23.5249 41.1966 23.7727 40.7554 24.2139C40.3142 24.6551 40.0664 25.2534 40.0664 25.8773V39.9918C40.0664 40.6157 40.3142 41.2141 40.7554 41.6553C41.1966 42.0964 41.7949 42.3443 42.4188 42.3443C43.0427 42.3443 43.6411 42.0964 44.0822 41.6553C44.5234 41.2141 44.7712 40.6157 44.7712 39.9918V25.8773C44.7712 25.2534 44.5234 24.6551 44.0822 24.2139C43.6411 23.7727 43.0427 23.5249 42.4188 23.5249ZM61.2382 23.5249C59.3665 23.5249 57.5714 24.2684 56.2479 25.5919C54.9245 26.9154 54.1809 28.7105 54.1809 30.5822V35.287C54.1809 37.1587 54.9245 38.9537 56.2479 40.2772C57.5714 41.6007 59.3665 42.3443 61.2382 42.3443C63.1099 42.3443 64.9049 41.6007 66.2284 40.2772C67.5519 38.9537 68.2954 37.1587 68.2954 35.287V30.5822C68.2954 28.7105 67.5519 26.9154 66.2284 25.5919C64.9049 24.2684 63.1099 23.5249 61.2382 23.5249ZM63.5906 35.287C63.5906 35.9109 63.3428 36.5093 62.9016 36.9504C62.4604 37.3916 61.8621 37.6394 61.2382 37.6394C60.6143 37.6394 60.0159 37.3916 59.5748 36.9504C59.1336 36.5093 58.8858 35.9109 58.8858 35.287V30.5822C58.8858 29.9583 59.1336 29.3599 59.5748 28.9188C60.0159 28.4776 60.6143 28.2297 61.2382 28.2297C61.8621 28.2297 62.4604 28.4776 62.9016 28.9188C63.3428 29.3599 63.5906 29.9583 63.5906 30.5822V35.287ZM80.0575 23.5249C79.4336 23.5249 78.8353 23.7727 78.3941 24.2139C77.953 24.6551 77.7051 25.2534 77.7051 25.8773V39.9918C77.7051 40.6157 77.953 41.2141 78.3941 41.6553C78.8353 42.0964 79.4336 42.3443 80.0575 42.3443C80.6814 42.3443 81.2798 42.0964 81.721 41.6553C82.1621 41.2141 82.41 40.6157 82.41 39.9918V25.8773C82.41 25.2534 82.1621 24.6551 81.721 24.2139C81.2798 23.7727 80.6814 23.5249 80.0575 23.5249ZM98.8769 23.5249C97.0052 23.5249 95.2102 24.2684 93.8867 25.5919C92.5632 26.9154 91.8196 28.7105 91.8196 30.5822V35.287C91.8196 37.1587 92.5632 38.9537 93.8867 40.2772C95.2102 41.6007 97.0052 42.3443 98.8769 42.3443C100.749 42.3443 102.544 41.6007 103.867 40.2772C105.191 38.9537 105.934 37.1587 105.934 35.287V30.5822C105.934 28.7105 105.191 26.9154 103.867 25.5919C102.544 24.2684 100.749 23.5249 98.8769 23.5249ZM101.229 35.287C101.229 35.9109 100.981 36.5093 100.54 36.9504C100.099 37.3916 99.5008 37.6394 98.8769 37.6394C98.253 37.6394 97.6547 37.3916 97.2135 36.9504C96.7723 36.5093 96.5245 35.9109 96.5245 35.287V30.5822C96.5245 29.9583 96.7723 29.3599 97.2135 28.9188C97.6547 28.4776 98.253 28.2297 98.8769 28.2297C99.5008 28.2297 100.099 28.4776 100.54 28.9188C100.981 29.3599 101.229 29.9583 101.229 30.5822V35.287Z" fill="#0773BD"/>
<path d="M127.106 103.508C128.406 103.508 129.459 102.454 129.459 101.155C129.459 99.8559 128.406 98.8027 127.106 98.8027C125.807 98.8027 124.754 99.8559 124.754 101.155C124.754 102.454 125.807 103.508 127.106 103.508Z" fill="#0773BD"/>
</svg>
