<svg width="119" height="110" viewBox="0 0 119 110" fill="none" xmlns="http://www.w3.org/2000/svg">
<path d="M116.6 30.8C117.817 30.8 118.8 29.8144 118.8 28.6V2.2C118.8 0.9856 117.817 0 116.6 0H2.2C0.9856 0 0 0.9856 0 2.2V28.6C0 29.8144 0.9856 30.8 2.2 30.8H57.2V39.6H2.2C0.9856 39.6 0 40.5856 0 41.8V68.2C0 69.4166 0.9856 70.4 2.2 70.4H57.2V79.2H2.2C0.9856 79.2 0 80.1834 0 81.4V107.8C0 109.017 0.9856 110 2.2 110H116.6C117.817 110 118.8 109.017 118.8 107.8V81.4C118.8 80.1834 117.817 79.2 116.6 79.2H61.6V70.4H116.6C117.817 70.4 118.8 69.4166 118.8 68.2V41.8C118.8 40.5856 117.817 39.6 116.6 39.6H61.6V30.8H116.6ZM114.4 105.6H4.4V83.6H114.4V105.6ZM114.4 66H4.4V44H114.4V66ZM4.4 4.4H114.4V26.4H4.4V4.4Z" fill="#0773BD"/>
<path d="M11.0008 13.2H77.0008C78.2174 13.2 79.2008 12.2144 79.2008 11C79.2008 9.78565 78.2174 8.80005 77.0008 8.80005H11.0008C9.78638 8.80005 8.80078 9.78565 8.80078 11C8.80078 12.2144 9.78638 13.2 11.0008 13.2ZM79.2008 19.8C79.2008 18.5856 78.2174 17.6 77.0008 17.6H11.0008C9.78638 17.6 8.80078 18.5856 8.80078 19.8C8.80078 21.0144 9.78638 22 11.0008 22H77.0008C78.2174 22 79.2008 21.0144 79.2008 19.8ZM99.0008 22C102.64 22 105.601 19.0388 105.601 15.4C105.601 11.7612 102.64 8.80005 99.0008 8.80005C95.362 8.80005 92.4008 11.7612 92.4008 15.4C92.4008 19.0388 95.362 22 99.0008 22ZM99.0008 13.2C100.215 13.2 101.201 14.1878 101.201 15.4C101.201 16.6122 100.215 17.6 99.0008 17.6C97.7864 17.6 96.8008 16.6122 96.8008 15.4C96.8008 14.1878 97.7864 13.2 99.0008 13.2ZM8.80078 50.6C8.80078 51.8144 9.78638 52.8 11.0008 52.8H77.0008C78.2174 52.8 79.2008 51.8144 79.2008 50.6C79.2008 49.3857 78.2174 48.4001 77.0008 48.4001H11.0008C9.78638 48.4001 8.80078 49.3857 8.80078 50.6ZM77.0008 57.2001H11.0008C9.78638 57.2001 8.80078 58.1834 8.80078 59.4001C8.80078 60.6166 9.78638 61.6001 11.0008 61.6001H77.0008C78.2174 61.6001 79.2008 60.6166 79.2008 59.4001C79.2008 58.1834 78.2174 57.2001 77.0008 57.2001ZM99.0008 61.6001C102.64 61.6001 105.601 58.6389 105.601 55C105.601 51.3612 102.64 48.4001 99.0008 48.4001C95.362 48.4001 92.4008 51.3612 92.4008 55C92.4008 58.6389 95.362 61.6001 99.0008 61.6001ZM99.0008 52.8C100.215 52.8 101.201 53.7878 101.201 55C101.201 56.2122 100.215 57.2001 99.0008 57.2001C97.7864 57.2001 96.8008 56.2122 96.8008 55C96.8008 53.7878 97.7864 52.8 99.0008 52.8ZM8.80078 90.2001C8.80078 91.4166 9.78638 92.4 11.0008 92.4H77.0008C78.2174 92.4 79.2008 91.4166 79.2008 90.2001C79.2008 88.9835 78.2174 88.0001 77.0008 88.0001H11.0008C9.78638 88.0001 8.80078 88.9835 8.80078 90.2001ZM77.0008 96.8H11.0008C9.78638 96.8 8.80078 97.7834 8.80078 99.0001C8.80078 100.217 9.78638 101.2 11.0008 101.2H77.0008C78.2174 101.2 79.2008 100.217 79.2008 99.0001C79.2008 97.7834 78.2174 96.8 77.0008 96.8ZM99.0008 101.2C102.64 101.2 105.601 98.2389 105.601 94.6001C105.601 90.9613 102.64 88.0001 99.0008 88.0001C95.362 88.0001 92.4008 90.9613 92.4008 94.6001C92.4008 98.2389 95.362 101.2 99.0008 101.2ZM99.0008 92.4C100.215 92.4 101.201 93.3857 101.201 94.6001C101.201 95.8145 100.215 96.8 99.0008 96.8C97.7864 96.8 96.8008 95.8145 96.8008 94.6001C96.8008 93.3857 97.7864 92.4 99.0008 92.4Z" fill="#0773BD"/>
</svg>
