<svg width="139" height="141" viewBox="0 0 139 141" fill="none" xmlns="http://www.w3.org/2000/svg">
<path d="M120.566 51.8679C130.709 51.8679 138.975 43.6596 138.975 33.5882C138.975 23.5168 130.709 15.3086 120.566 15.3086C110.424 15.3086 102.158 23.5168 102.158 33.5882C102.158 37.1132 103.223 40.3864 104.973 43.1812L93.7401 52.447C91.0531 49.742 87.8515 47.5944 84.3213 46.129C80.7911 44.6637 77.0028 43.9099 73.1766 43.9114C66.1023 43.9114 59.7127 46.53 54.6669 50.7348L38.7942 34.973C41.528 31.5371 43.1461 27.3576 43.4343 22.988L65.012 21.8298C66.4573 27.3439 71.3002 31.4984 77.3095 31.4984C84.4345 31.4984 90.241 25.7325 90.241 18.6573C90.241 11.5821 84.4345 5.81625 77.3095 5.81625C70.8438 5.81625 65.6966 10.6505 64.7585 16.8193L43.2315 17.9775C41.4566 7.78018 32.5567 0 21.8059 0C9.7873 0 0 9.71893 0 21.6536C0 33.5882 9.7873 43.3071 21.8059 43.3071C26.9024 43.3071 31.5425 41.4943 35.2698 38.5736L51.1425 54.3354C46.9081 59.3459 44.2711 65.6909 44.2711 72.7157C44.2711 74.2768 44.4993 75.7623 44.7275 77.2478L33.3935 80.093C31.3143 75.7875 26.9531 72.7409 21.8059 72.7409C14.681 72.7409 8.8745 78.5068 8.8745 85.582C8.8745 92.6571 14.681 98.423 21.8059 98.423C22.237 98.423 22.5919 98.2216 22.9976 98.1712L25.4318 106.178C19.1436 109.074 14.7317 115.393 14.7317 122.72C14.7317 132.792 22.9976 141 33.1399 141C43.2822 141 51.5482 132.792 51.5482 122.72C51.5482 117.836 49.5958 113.429 46.4517 110.156L57.2785 96.6605C61.7665 99.6316 67.1419 101.369 72.8977 101.419L73.8612 113.983C68.4604 115.519 64.4035 120.278 64.4035 126.119C64.4035 133.195 70.21 138.961 77.3349 138.961C84.4599 138.961 90.2663 133.195 90.2663 126.119C90.2663 119.598 85.2712 114.386 78.907 113.581L77.9434 100.966C82.9892 100.135 87.5279 97.995 91.3313 94.9484L96.9856 100.765C95.0078 103.408 93.6133 106.505 93.6133 110.056C93.6133 118.767 100.764 125.868 109.537 125.868C118.31 125.868 125.46 118.767 125.46 110.056C125.46 104.441 122.341 99.7575 117.904 96.9375L123.533 83.7691C124.37 83.9453 125.156 84.2727 126.069 84.2727C133.194 84.2727 139 78.5068 139 71.4316C139 64.3564 133.194 58.5905 126.069 58.5905C118.944 58.5905 113.137 64.3564 113.137 71.4316C113.137 75.8127 115.495 79.4887 118.868 81.8304L113.239 94.9988C112.022 94.6966 110.171 94.5455 108.852 94.6211C106.874 94.747 103.223 95.5275 100.662 97.29L94.9825 91.4486C99.3944 86.3877 102.184 79.8916 102.184 72.6905C102.184 66.6225 100.256 61.0077 97.0109 56.3496L108.269 47.0588C111.63 50.1452 116.039 51.8621 120.617 51.8679H120.566ZM77.2842 10.852C81.62 10.852 85.1445 14.3518 85.1445 18.6573C85.1445 22.9629 81.62 26.4627 77.2842 26.4627C72.9484 26.4627 69.4239 22.9629 69.4239 18.6573C69.4239 14.3518 72.9484 10.852 77.2842 10.852ZM126.018 63.6263C130.354 63.6263 133.878 67.1261 133.878 71.4316C133.878 75.7371 130.354 79.237 126.018 79.237C121.682 79.237 118.158 75.7371 118.158 71.4316C118.158 67.1261 121.682 63.6263 126.018 63.6263ZM5.02043 21.6284C5.02043 12.4634 12.5257 5.01054 21.7552 5.01054C30.9847 5.01054 38.49 12.4634 38.49 21.6284C38.49 30.7934 30.9847 38.2463 21.7552 38.2463C12.5257 38.2463 5.02043 30.7934 5.02043 21.6284ZM13.8949 85.5568C13.8949 81.2513 17.4194 77.7514 21.7552 77.7514C26.091 77.7514 29.6155 81.2513 29.6155 85.5568C29.6155 89.8623 26.091 93.3621 21.7552 93.3621C17.4194 93.3621 13.8949 89.8623 13.8949 85.5568ZM33.0892 135.939C25.736 135.939 19.7521 129.997 19.7521 122.695C19.7521 115.393 25.736 109.451 33.0892 109.451C40.4424 109.451 46.4263 115.393 46.4263 122.695C46.4263 129.997 40.4424 135.939 33.0892 135.939ZM42.3947 107.034C39.6563 105.423 36.4869 104.441 33.0892 104.441C32.1257 104.441 31.1875 104.592 30.2494 104.718L27.8152 96.7109C31.9735 94.47 34.8387 90.3407 34.5852 84.9525L45.9445 82.1073C47.4912 86.4632 49.9761 90.3659 53.2723 93.488L42.4201 107.034H42.3947ZM85.1445 126.119C85.1445 130.425 81.62 133.925 77.2842 133.925C72.9484 133.925 69.4239 130.425 69.4239 126.119C69.4239 121.814 72.9484 118.314 77.2842 118.314C81.62 118.314 85.1445 121.814 85.1445 126.119ZM120.313 110.056C120.313 115.998 115.445 120.832 109.461 120.832C103.477 120.832 98.6084 115.998 98.6084 110.056C98.6084 104.113 103.477 99.2791 109.461 99.2791C115.445 99.2791 120.313 104.113 120.313 110.056ZM73.1259 96.4088C59.9409 96.4088 49.2408 85.7582 49.2408 72.6905C49.2408 59.6229 59.9663 48.9723 73.1259 48.9723C86.2855 48.9723 97.0109 59.6229 97.0109 72.6905C97.0109 85.7582 86.2855 96.4088 73.1259 96.4088ZM120.566 20.3695C127.92 20.3695 133.903 26.3116 133.903 33.6134C133.903 40.9152 127.92 46.8573 120.566 46.8573C113.213 46.8573 107.229 40.9152 107.229 33.6134C107.229 26.3116 113.213 20.3695 120.566 20.3695Z" fill="#0773BD"/>
</svg>
