<svg width="148" height="142" viewBox="0 0 148 142" fill="none" xmlns="http://www.w3.org/2000/svg">
<path d="M103.012 139H44.9876M3 90.357H145M138.06 112.344H9.94025C8.09958 112.344 6.3343 111.615 5.03275 110.318C3.7312 109.021 3 107.262 3 105.427V9.91615C3 8.08188 3.7312 6.32273 5.03275 5.02569C6.3343 3.72866 8.09958 3 9.94025 3H138.06C139.9 3 141.666 3.72866 142.967 5.02569C144.269 6.32273 145 8.08188 145 9.91615V105.427C145 107.262 144.269 109.021 142.967 110.318C141.666 111.615 139.9 112.344 138.06 112.344ZM97.4655 139H50.5345L61.2259 112.344H86.7741L97.4655 139Z" stroke="#0773BD" stroke-width="6" stroke-miterlimit="10" stroke-linecap="round" stroke-linejoin="round"/>
<path d="M55.554 46.97L37.2715 65.1891M110.668 32.5835L88.4506 54.7234M75.8777 54.6645L68.1269 46.9406" stroke="#0773BD" stroke-width="6" stroke-miterlimit="10" stroke-linecap="round" stroke-linejoin="round"/>
<path d="M116.953 35.1659C121.855 35.1659 125.828 31.2062 125.828 26.3217C125.828 21.4372 121.855 17.4775 116.953 17.4775C112.052 17.4775 108.078 21.4372 108.078 26.3217C108.078 31.2062 112.052 35.1659 116.953 35.1659Z" stroke="#0773BD" stroke-width="6" stroke-miterlimit="10" stroke-linecap="round" stroke-linejoin="round"/>
<path d="M82.1602 69.7582C87.0617 69.7582 91.0352 65.7985 91.0352 60.914C91.0352 56.0295 87.0617 52.0698 82.1602 52.0698C77.2586 52.0698 73.2852 56.0295 73.2852 60.914C73.2852 65.7985 77.2586 69.7582 82.1602 69.7582Z" stroke="#0773BD" stroke-width="6" stroke-miterlimit="10" stroke-linecap="round" stroke-linejoin="round"/>
<path d="M61.834 49.5556C66.7355 49.5556 70.709 45.5959 70.709 40.7114C70.709 35.8269 66.7355 31.8672 61.834 31.8672C56.9325 31.8672 52.959 35.8269 52.959 40.7114C52.959 45.5959 56.9325 49.5556 61.834 49.5556Z" stroke="#0773BD" stroke-width="6" stroke-miterlimit="10" stroke-linecap="round" stroke-linejoin="round"/>
<path d="M31.0469 80.306C35.9484 80.306 39.9219 76.3464 39.9219 71.4619C39.9219 66.5774 35.9484 62.6177 31.0469 62.6177C26.1453 62.6177 22.1719 66.5774 22.1719 71.4619C22.1719 76.3464 26.1453 80.306 31.0469 80.306Z" stroke="#0773BD" stroke-width="6" stroke-miterlimit="10" stroke-linecap="round" stroke-linejoin="round"/>
</svg>
