<svg width="111" height="121" viewBox="0 0 111 121" fill="none" xmlns="http://www.w3.org/2000/svg">
<path d="M55.4049 0.00792728L52.5426 3.21842C40.4119 16.8373 23.5716 23.2662 3.48064 25.7157L0 26.1358V29.6475C0 50.0996 4.329 69.9412 13.2883 86.2077C22.2476 102.474 35.9957 115.166 54.3662 120.643L55.5476 121L56.721 120.596C92.2251 109.125 111 71.7566 111 29.6475V26.4925L107.916 25.7632C88.3719 21.2606 70.3502 15.7909 58.3781 3.14708L55.4049 0V0.00792728ZM55.5951 10.551C68.4315 22.5369 85.2876 28.3078 102.746 32.4775C101.914 70.3772 85.3273 101.991 55.4683 112.399C39.9204 107.365 28.1781 96.7826 20.2416 82.3789C12.5034 68.3479 8.66593 50.813 8.25364 32.5806C26.6083 29.7982 42.9966 23.2265 55.5872 10.551H55.5951ZM76.6693 44.4872L47.7538 69.7985L34.5131 56.5761L28.9076 62.1806L47.3811 80.6508L81.9021 50.4563L76.6693 44.4872Z" fill="#0773BD"/>
</svg>
