<svg width="141" height="128" viewBox="0 0 141 128" fill="none" xmlns="http://www.w3.org/2000/svg">
<path d="M70.5 0C63.2297 0 57.2812 5.95821 57.2812 13.2405C57.2927 16.3611 58.4042 19.3773 60.4197 21.757C62.4351 24.1367 65.2249 25.7269 68.2969 26.247V66.2112H52.875V57.4945L41.8594 57.3224V48.3189C44.9321 47.7987 47.7225 46.2078 49.738 43.8272C51.7535 41.4466 52.8646 38.4293 52.875 35.3079C52.875 28.0257 46.9266 22.0674 39.6562 22.0674C32.3859 22.0674 26.4375 28.0257 26.4375 35.3079C26.449 38.4285 27.5605 41.4448 29.5759 43.8245C31.5914 46.2042 34.3812 47.7944 37.4531 48.3145V61.6697L48.4688 61.8418V66.2112H37.4531C36.8688 66.2112 36.3084 66.4436 35.8953 66.8575C35.4821 67.2713 35.25 67.8326 35.25 68.4179V88.2698H15.4219V70.3819C18.4938 69.8618 21.2836 68.2716 23.2991 65.8919C25.3145 63.5122 26.426 60.496 26.4375 57.3754C26.4375 50.0931 20.4891 44.1349 13.2188 44.1349C5.94844 44.1349 0 50.0931 0 57.3754C0.0114685 60.496 1.12299 63.5122 3.13842 65.8919C5.15386 68.2716 7.94369 69.8618 11.0156 70.3819V92.6833H35.25V114.76H62.0224C61.9783 116.657 61.8682 118.162 61.4628 119.173C60.9473 120.457 59.784 121.746 57.2901 123.587H50.7336C50.1493 123.587 49.5889 123.819 49.1757 124.233C48.7626 124.647 48.5304 125.208 48.5304 125.793C48.5304 126.379 48.7626 126.94 49.1757 127.354C49.5889 127.767 50.1493 128 50.7336 128H90.24C90.8243 128 91.3847 127.767 91.7978 127.354C92.211 126.94 92.4431 126.379 92.4431 125.793C92.4431 125.208 92.211 124.647 91.7978 124.233C91.3847 123.819 90.8243 123.587 90.24 123.587H83.7099C81.216 121.746 80.0527 120.457 79.5372 119.173C79.1318 118.162 79.0261 116.657 78.9776 114.76H105.75V92.6833H129.984V70.3819C133.056 69.8618 135.846 68.2716 137.862 65.8919C139.877 63.5122 140.989 60.496 141 57.3754C141 50.0931 135.052 44.1349 127.781 44.1349C120.511 44.1349 114.562 50.0931 114.562 57.3754C114.574 60.496 115.685 63.5122 117.701 65.8919C119.716 68.2716 122.506 69.8618 125.578 70.3819V88.2698H105.75V68.4179C105.75 67.8326 105.518 67.2713 105.105 66.8575C104.692 66.4436 104.131 66.2112 103.547 66.2112H92.5312V61.833L103.547 61.6697V48.3145C106.619 47.7944 109.409 46.2042 111.424 43.8245C113.44 41.4448 114.551 38.4285 114.562 35.3079C114.562 28.0257 108.614 22.0674 101.344 22.0674C94.0734 22.0674 88.125 28.0257 88.125 35.3079C88.1365 38.4285 89.248 41.4448 91.2634 43.8245C93.2789 46.2042 96.0687 47.7944 99.1406 48.3145V57.3224L88.125 57.4989V66.2112H72.7031V26.247C75.7751 25.7269 78.5649 24.1367 80.5803 21.757C82.5958 19.3773 83.7073 16.3611 83.7188 13.2405C83.7188 5.95821 77.7703 0 70.5 0ZM70.5 4.41349C75.3909 4.41349 79.3125 8.34149 79.3125 13.2405C79.3125 18.1394 75.3909 22.0674 70.5 22.0674C65.6091 22.0674 61.6875 18.1394 61.6875 13.2405C61.6875 8.34149 65.6091 4.41349 70.5 4.41349ZM39.6562 26.4809C44.5472 26.4809 48.4688 30.4089 48.4688 35.3079C48.4688 40.2069 44.5472 44.1349 39.6562 44.1349C34.7653 44.1349 30.8438 40.2069 30.8438 35.3079C30.8438 30.4089 34.7653 26.4809 39.6562 26.4809ZM101.344 26.4809C106.235 26.4809 110.156 30.4089 110.156 35.3079C110.156 40.2069 106.235 44.1349 101.344 44.1349C96.4528 44.1349 92.5312 40.2069 92.5312 35.3079C92.5312 30.4089 96.4528 26.4809 101.344 26.4809ZM13.2188 48.5484C18.1097 48.5484 22.0312 52.4764 22.0312 57.3754C22.0312 62.2743 18.1097 66.2023 13.2188 66.2023C8.32781 66.2023 4.40625 62.2743 4.40625 57.3754C4.40625 52.4764 8.32781 48.5484 13.2188 48.5484ZM127.781 48.5484C132.672 48.5484 136.594 52.4764 136.594 57.3754C136.594 62.2743 132.672 66.2023 127.781 66.2023C122.89 66.2023 118.969 62.2743 118.969 57.3754C118.969 52.4764 122.89 48.5484 127.781 48.5484ZM39.6562 70.6246H101.344V101.519H39.6562V70.6246ZM39.6562 105.933H101.344V110.346H39.6562V105.933ZM66.2392 114.76H74.7608C74.7961 116.909 74.7168 119.01 75.4482 120.819C75.8536 121.83 77.2283 122.682 77.9774 123.587H63.0226C63.7717 122.682 65.1464 121.83 65.5518 120.819C66.2788 119.01 66.2039 116.909 66.2392 114.76Z" fill="#0773BD"/>
</svg>
