<svg width="85" height="85" viewBox="0 0 85 85" fill="none" xmlns="http://www.w3.org/2000/svg">
<path d="M77.0312 27.8906C77.7657 27.8906 78.3594 27.2956 78.3594 26.5625V10.625C78.3594 9.89188 77.7657 9.29688 77.0312 9.29688H7.96875C7.23563 9.29688 6.64062 9.89188 6.64062 10.625V26.5625C6.64062 27.2956 7.23563 27.8906 7.96875 27.8906H41.1719V33.2031H7.96875C7.23563 33.2031 6.64062 33.7981 6.64062 34.5312V50.4688C6.64062 51.2032 7.23563 51.7969 7.96875 51.7969H41.1719V57.1094H7.96875C7.23563 57.1094 6.64062 57.703 6.64062 58.4375V74.375C6.64062 75.1095 7.23563 75.7031 7.96875 75.7031H77.0312C77.7657 75.7031 78.3594 75.1095 78.3594 74.375V58.4375C78.3594 57.703 77.7657 57.1094 77.0312 57.1094H43.8281V51.7969H77.0312C77.7657 51.7969 78.3594 51.2032 78.3594 50.4688V34.5312C78.3594 33.7981 77.7657 33.2031 77.0312 33.2031H43.8281V27.8906H77.0312ZM75.7031 73.0469H9.29688V59.7656H75.7031V73.0469ZM75.7031 49.1406H9.29688V35.8594H75.7031V49.1406ZM9.29688 11.9531H75.7031V25.2344H9.29688V11.9531Z" fill="#0773BD"/>
<path d="M13.2812 17.2656H53.125C53.8595 17.2656 54.4531 16.6706 54.4531 15.9375C54.4531 15.2044 53.8595 14.6094 53.125 14.6094H13.2812C12.5481 14.6094 11.9531 15.2044 11.9531 15.9375C11.9531 16.6706 12.5481 17.2656 13.2812 17.2656ZM54.4531 21.25C54.4531 20.5169 53.8595 19.9219 53.125 19.9219H13.2812C12.5481 19.9219 11.9531 20.5169 11.9531 21.25C11.9531 21.9831 12.5481 22.5781 13.2812 22.5781H53.125C53.8595 22.5781 54.4531 21.9831 54.4531 21.25ZM66.4062 22.5781C68.603 22.5781 70.3906 20.7905 70.3906 18.5938C70.3906 16.397 68.603 14.6094 66.4062 14.6094C64.2095 14.6094 62.4219 16.397 62.4219 18.5938C62.4219 20.7905 64.2095 22.5781 66.4062 22.5781ZM66.4062 17.2656C67.1394 17.2656 67.7344 17.862 67.7344 18.5938C67.7344 19.3255 67.1394 19.9219 66.4062 19.9219C65.6731 19.9219 65.0781 19.3255 65.0781 18.5938C65.0781 17.862 65.6731 17.2656 66.4062 17.2656ZM11.9531 39.8438C11.9531 40.5769 12.5481 41.1719 13.2812 41.1719H53.125C53.8595 41.1719 54.4531 40.5769 54.4531 39.8438C54.4531 39.1106 53.8595 38.5156 53.125 38.5156H13.2812C12.5481 38.5156 11.9531 39.1106 11.9531 39.8438ZM53.125 43.8281H13.2812C12.5481 43.8281 11.9531 44.4218 11.9531 45.1562C11.9531 45.8907 12.5481 46.4844 13.2812 46.4844H53.125C53.8595 46.4844 54.4531 45.8907 54.4531 45.1562C54.4531 44.4218 53.8595 43.8281 53.125 43.8281ZM66.4062 46.4844C68.603 46.4844 70.3906 44.6967 70.3906 42.5C70.3906 40.3033 68.603 38.5156 66.4062 38.5156C64.2095 38.5156 62.4219 40.3033 62.4219 42.5C62.4219 44.6967 64.2095 46.4844 66.4062 46.4844ZM66.4062 41.1719C67.1394 41.1719 67.7344 41.7682 67.7344 42.5C67.7344 43.2318 67.1394 43.8281 66.4062 43.8281C65.6731 43.8281 65.0781 43.2318 65.0781 42.5C65.0781 41.7682 65.6731 41.1719 66.4062 41.1719ZM11.9531 63.75C11.9531 64.4845 12.5481 65.0781 13.2812 65.0781H53.125C53.8595 65.0781 54.4531 64.4845 54.4531 63.75C54.4531 63.0155 53.8595 62.4219 53.125 62.4219H13.2812C12.5481 62.4219 11.9531 63.0155 11.9531 63.75ZM53.125 67.7344H13.2812C12.5481 67.7344 11.9531 68.328 11.9531 69.0625C11.9531 69.797 12.5481 70.3906 13.2812 70.3906H53.125C53.8595 70.3906 54.4531 69.797 54.4531 69.0625C54.4531 68.328 53.8595 67.7344 53.125 67.7344ZM66.4062 70.3906C68.603 70.3906 70.3906 68.603 70.3906 66.4062C70.3906 64.2095 68.603 62.4219 66.4062 62.4219C64.2095 62.4219 62.4219 64.2095 62.4219 66.4062C62.4219 68.603 64.2095 70.3906 66.4062 70.3906ZM66.4062 65.0781C67.1394 65.0781 67.7344 65.6731 67.7344 66.4062C67.7344 67.1394 67.1394 67.7344 66.4062 67.7344C65.6731 67.7344 65.0781 67.1394 65.0781 66.4062C65.0781 65.6731 65.6731 65.0781 66.4062 65.0781Z" fill="#0773BD"/>
</svg>
