<svg width="73" height="73" viewBox="0 0 73 73" fill="none" xmlns="http://www.w3.org/2000/svg">
<path d="M36.4452 1.68813L34.7982 3.53594C27.8176 11.3743 18.1268 15.0745 6.56544 16.4843L4.5625 16.7261V18.7473C4.5625 30.5186 7.05363 41.9385 12.2093 51.3008C17.3649 60.663 25.2762 67.9676 35.8476 71.1203L36.5274 71.3256L37.2026 71.0929C57.6335 64.4909 68.4375 42.9833 68.4375 18.7473V16.9314L66.6627 16.5117C55.4161 13.9202 45.0456 10.7721 38.1562 3.49488L36.4452 1.68356V1.68813ZM36.5548 7.75625C43.9414 14.6548 53.6413 17.9763 63.6879 20.3761C63.2089 42.1894 53.6641 60.3847 36.4817 66.3753C27.5347 63.4781 20.7776 57.3871 16.2106 49.0971C11.7576 41.0214 9.54931 30.9292 9.31206 20.4354C19.8742 18.834 29.3049 15.0517 36.5502 7.75625H36.5548ZM48.6819 27.2883L32.0424 41.8564L24.4231 34.2461L21.1974 37.4718L31.828 48.1024L51.6931 30.7239L48.6819 27.2883Z" fill="#0773BD"/>
</svg>
