<svg width="76" height="69" viewBox="0 0 76 69" fill="none" xmlns="http://www.w3.org/2000/svg">
<path d="M38 0C34.0813 0 30.875 3.21185 30.875 7.13744C30.8812 8.81964 31.4803 10.4456 32.5666 11.7284C33.653 13.0112 35.1567 13.8684 36.8125 14.1488V35.692H28.5V30.9931L22.5625 30.9003V26.0469C24.2187 25.7665 25.7227 24.9089 26.8091 23.6256C27.8955 22.3423 28.4944 20.7158 28.5 19.0332C28.5 15.1076 25.2937 11.8957 21.375 11.8957C17.4563 11.8957 14.25 15.1076 14.25 19.0332C14.2562 20.7154 14.8553 22.3413 15.9416 23.6241C17.028 24.9069 18.5317 25.7642 20.1875 26.0445V33.2438L26.125 33.3366V35.692H20.1875C19.8726 35.692 19.5705 35.8173 19.3478 36.0404C19.1251 36.2635 19 36.566 19 36.8815V47.5829H8.3125V37.9402C9.9683 37.6599 11.472 36.8027 12.5584 35.5199C13.6447 34.2371 14.2438 32.6111 14.25 30.9289C14.25 27.0033 11.0437 23.7915 7.125 23.7915C3.20625 23.7915 0 27.0033 0 30.9289C0.00618162 32.6111 0.605298 34.2371 1.69163 35.5199C2.77797 36.8027 4.2817 37.6599 5.9375 37.9402V49.9621H19V61.8626H33.4305C33.4068 62.8856 33.3474 63.6969 33.1289 64.2417C32.851 64.934 32.224 65.6287 30.8797 66.6209H27.3457C27.0308 66.6209 26.7288 66.7462 26.5061 66.9693C26.2834 67.1924 26.1582 67.4949 26.1582 67.8104C26.1582 68.1259 26.2834 68.4285 26.5061 68.6516C26.7288 68.8747 27.0308 69 27.3457 69H48.64C48.9549 69 49.257 68.8747 49.4797 68.6516C49.7024 68.4285 49.8275 68.1259 49.8275 67.8104C49.8275 67.4949 49.7024 67.1924 49.4797 66.9693C49.257 66.7462 48.9549 66.6209 48.64 66.6209H45.1202C43.776 65.6287 43.149 64.934 42.8711 64.2417C42.6526 63.6969 42.5956 62.8856 42.5695 61.8626H57V49.9621H70.0625V37.9402C71.7183 37.6599 73.222 36.8027 74.3084 35.5199C75.3947 34.2371 75.9938 32.6111 76 30.9289C76 27.0033 72.7937 23.7915 68.875 23.7915C64.9563 23.7915 61.75 27.0033 61.75 30.9289C61.7562 32.6111 62.3553 34.2371 63.4416 35.5199C64.528 36.8027 66.0317 37.6599 67.6875 37.9402V47.5829H57V36.8815C57 36.566 56.8749 36.2635 56.6522 36.0404C56.4295 35.8173 56.1274 35.692 55.8125 35.692H49.875V33.3318L55.8125 33.2438V26.0445C57.4683 25.7642 58.972 24.9069 60.0584 23.6241C61.1447 22.3413 61.7438 20.7154 61.75 19.0332C61.75 15.1076 58.5437 11.8957 54.625 11.8957C50.7063 11.8957 47.5 15.1076 47.5 19.0332C47.5062 20.7154 48.1053 22.3413 49.1916 23.6241C50.278 24.9069 51.7817 25.7642 53.4375 26.0445V30.9003L47.5 30.9955V35.692H39.1875V14.1488C40.8433 13.8684 42.347 13.0112 43.4334 11.7284C44.5197 10.4456 45.1188 8.81964 45.125 7.13744C45.125 3.21185 41.9187 0 38 0ZM38 2.37915C40.6363 2.37915 42.75 4.49659 42.75 7.13744C42.75 9.77829 40.6363 11.8957 38 11.8957C35.3637 11.8957 33.25 9.77829 33.25 7.13744C33.25 4.49659 35.3637 2.37915 38 2.37915ZM21.375 14.2749C24.0113 14.2749 26.125 16.3923 26.125 19.0332C26.125 21.674 24.0113 23.7915 21.375 23.7915C18.7387 23.7915 16.625 21.674 16.625 19.0332C16.625 16.3923 18.7387 14.2749 21.375 14.2749ZM54.625 14.2749C57.2613 14.2749 59.375 16.3923 59.375 19.0332C59.375 21.674 57.2613 23.7915 54.625 23.7915C51.9887 23.7915 49.875 21.674 49.875 19.0332C49.875 16.3923 51.9887 14.2749 54.625 14.2749ZM7.125 26.1706C9.76125 26.1706 11.875 28.288 11.875 30.9289C11.875 33.5698 9.76125 35.6872 7.125 35.6872C4.48875 35.6872 2.375 33.5698 2.375 30.9289C2.375 28.288 4.48875 26.1706 7.125 26.1706ZM68.875 26.1706C71.5113 26.1706 73.625 28.288 73.625 30.9289C73.625 33.5698 71.5113 35.6872 68.875 35.6872C66.2387 35.6872 64.125 33.5698 64.125 30.9289C64.125 28.288 66.2387 26.1706 68.875 26.1706ZM21.375 38.0711H54.625V54.7251H21.375V38.0711ZM21.375 57.1043H54.625V59.4834H21.375V57.1043ZM35.7034 61.8626H40.2966C40.3156 63.0212 40.2729 64.1537 40.6671 65.1291C40.8856 65.6739 41.6266 66.1331 42.0304 66.6209H33.9696C34.3734 66.1331 35.1144 65.6739 35.3329 65.1291C35.7247 64.1537 35.6844 63.0212 35.7034 61.8626Z" fill="#0773BD"/>
</svg>
