<svg width="68" height="68" viewBox="0 0 68 68" fill="none" xmlns="http://www.w3.org/2000/svg">
<g clip-path="url(#clip0_210_121)">
<path d="M63.75 8.5H51C50.575 7.76334 50.5892 7.84833 47.6 4.85917C46.904 4.16388 45.9884 3.73157 45.0092 3.63598C44.0301 3.5404 43.0482 3.78745 42.2308 4.335C42.0282 4.48154 41.7904 4.57184 41.5416 4.59673C41.2928 4.62161 41.0418 4.58019 40.8142 4.47667C40.5832 4.36688 40.3825 4.2024 40.2294 3.99751C40.0764 3.79261 39.9756 3.55348 39.9358 3.30083C39.7265 2.38485 39.2194 1.56408 38.494 0.966852C37.7687 0.369626 36.8658 0.0296206 35.9267 1.76104e-06H32.0733C31.0831 -0.000899257 30.1237 0.343973 29.3607 0.975072C28.5977 1.60617 28.079 2.48389 27.8942 3.45667C27.849 3.67804 27.7515 3.8854 27.6098 4.06142C27.4682 4.23745 27.2865 4.37704 27.0799 4.46855C26.8733 4.56006 26.6478 4.60082 26.4223 4.58745C26.1967 4.57408 25.9777 4.50695 25.7833 4.39167C24.9649 3.81445 23.9688 3.54482 22.971 3.63036C21.9731 3.71589 21.0375 4.15108 20.3292 4.85917C17.6092 7.59333 17.3825 7.70667 17 8.5H4.25C3.12283 8.5 2.04183 8.94777 1.2448 9.7448C0.447767 10.5418 0 11.6228 0 12.75L0 49.5833C0 50.7105 0.447767 51.7915 1.2448 52.5885C2.04183 53.3856 3.12283 53.8333 4.25 53.8333H27.0442C25.6275 60.3217 25.8967 59.5 25.5 59.5C24.3728 59.5 23.2918 59.9478 22.4948 60.7448C21.6978 61.5418 21.25 62.6228 21.25 63.75V66.5833C21.25 66.9591 21.3993 67.3194 21.6649 67.5851C21.9306 67.8507 22.2909 68 22.6667 68H45.3333C45.7091 68 46.0694 67.8507 46.3351 67.5851C46.6007 67.3194 46.75 66.9591 46.75 66.5833V63.75C46.7513 63.1672 46.6327 62.5904 46.4016 62.0554C46.1706 61.5204 45.8319 61.0386 45.4068 60.64C44.9816 60.2414 44.479 59.9345 43.9302 59.7384C43.3814 59.5423 42.7982 59.4611 42.2167 59.5L40.9558 53.8333H63.75C64.8772 53.8333 65.9582 53.3856 66.7552 52.5885C67.5522 51.7915 68 50.7105 68 49.5833V12.75C68 11.6228 67.5522 10.5418 66.7552 9.7448C65.9582 8.94777 64.8772 8.5 63.75 8.5ZM22.3408 6.87084C22.5749 6.63385 22.8849 6.48691 23.2166 6.45582C23.5482 6.42473 23.8802 6.51148 24.1542 6.70084C24.7364 7.08949 25.4055 7.32832 26.1023 7.3961C26.799 7.46389 27.5016 7.35854 28.1478 7.08941C28.794 6.82028 29.3638 6.3957 29.8064 5.85339C30.249 5.31109 30.5508 4.66785 30.685 3.98083C30.7483 3.65342 30.9251 3.35883 31.1842 3.14893C31.4434 2.93903 31.7682 2.82727 32.1017 2.83333H35.955C36.2884 2.82727 36.6133 2.93903 36.8724 3.14893C37.1316 3.35883 37.3084 3.65342 37.3717 3.98083C37.5106 4.66643 37.8165 5.30715 38.2624 5.84613C38.7084 6.38511 39.2804 6.80569 39.9279 7.07056C40.5753 7.33542 41.2781 7.43638 41.9739 7.36447C42.6698 7.29256 43.3371 7.05001 43.9167 6.65833C45.135 5.93583 45.6308 6.8425 48.3792 9.59084C48.6162 9.82488 48.7631 10.1349 48.7942 10.4666C48.8253 10.7982 48.7385 11.1302 48.5492 11.4042C48.1605 11.9864 47.9217 12.6555 47.8539 13.3523C47.7861 14.049 47.8915 14.7516 48.1606 15.3978C48.4297 16.044 48.8543 16.6138 49.3966 17.0564C49.9389 17.499 50.5821 17.8008 51.2692 17.935C51.5966 17.9983 51.8912 18.1751 52.1011 18.4342C52.311 18.6934 52.4227 19.0182 52.4167 19.3517V23.205C52.4167 25.2875 49.4983 23.9417 48.1667 27.1292C47.8951 27.7842 47.7917 28.4967 47.8659 29.2019C47.9401 29.9071 48.1896 30.5826 48.5917 31.1667C49.3142 32.385 48.4075 32.895 45.6592 35.6292C45.4251 35.8662 45.1151 36.0131 44.7834 36.0442C44.4518 36.0753 44.1198 35.9885 43.8458 35.7992C43.2636 35.4105 42.5945 35.1717 41.8977 35.1039C41.201 35.0361 40.4984 35.1415 39.8522 35.4106C39.206 35.6797 38.6362 36.1043 38.1936 36.6466C37.751 37.1889 37.4492 37.8321 37.315 38.5192C37.2517 38.8466 37.0749 39.1412 36.8158 39.3511C36.5566 39.561 36.2318 39.6727 35.8983 39.6667H32.0733C31.7399 39.6727 31.415 39.561 31.1559 39.3511C30.8968 39.1412 30.72 38.8466 30.6567 38.5192C30.5198 37.8291 30.2137 37.1837 29.7659 36.6411C29.3182 36.0984 28.7427 35.6754 28.0911 35.41C27.4396 35.1446 26.7323 35.0451 26.0328 35.1205C25.3333 35.1958 24.6634 35.4436 24.0833 35.8417C22.865 36.5642 22.3692 35.6575 19.6208 32.9092C19.4013 32.6798 19.2653 32.3833 19.2344 32.0673C19.2036 31.7513 19.2798 31.4342 19.4508 31.1667C19.8395 30.5845 20.0783 29.9153 20.1461 29.2186C20.2139 28.5219 20.1085 27.8192 19.8394 27.173C19.5703 26.5268 19.1457 25.9571 18.6034 25.5145C18.0611 25.0718 17.4179 24.77 16.7308 24.6358C16.4034 24.5725 16.1088 24.3957 15.8989 24.1366C15.689 23.8775 15.5773 23.5526 15.5833 23.2192V19.3233C15.5833 17.2408 18.5017 18.5867 19.8333 15.3992C20.11 14.7404 20.2161 14.0225 20.1418 13.3118C20.0675 12.6011 19.8152 11.9207 19.4083 11.3333C18.6858 10.115 19.5925 9.605 22.3408 6.87084ZM2.83333 12.75C2.83333 12.3743 2.98259 12.0139 3.24827 11.7483C3.51394 11.4826 3.87428 11.3333 4.25 11.3333H16.4333C16.54 11.9389 16.7769 12.5141 17.1275 13.0192C17.2458 13.2129 17.3157 13.4323 17.3315 13.6588C17.3473 13.8852 17.3084 14.1122 17.2181 14.3204C17.1279 14.5287 16.9889 14.7123 16.8128 14.8556C16.6368 14.999 16.4289 15.0979 16.2067 15.1442C15.2218 15.3311 14.3347 15.8602 13.7022 16.6379C13.0697 17.4156 12.7324 18.3919 12.75 19.3942V23.2475C12.7499 24.2048 13.0729 25.1341 13.6669 25.8849C14.2608 26.6357 15.0909 27.164 16.0225 27.3842C16.285 27.4042 16.5367 27.497 16.7494 27.6522C16.9621 27.8073 17.1274 28.0187 17.2267 28.2625C17.3302 28.4901 17.3716 28.7411 17.3467 28.9899C17.3218 29.2387 17.2315 29.4765 17.085 29.6792C16.5374 30.4965 16.2904 31.4785 16.386 32.4576C16.4816 33.4367 16.9139 34.3523 17.6092 35.0483L20.3292 37.7683C21.0348 38.475 21.9668 38.9105 22.9616 38.9986C23.9563 39.0867 24.9503 38.8216 25.7692 38.25C25.9629 38.1317 26.1823 38.0618 26.4088 38.046C26.6352 38.0302 26.8622 38.0691 27.0704 38.1594C27.2787 38.2496 27.4623 38.3886 27.6056 38.5647C27.749 38.7407 27.8479 38.9486 27.8942 39.1708C28.1048 40.1201 28.6346 40.9684 29.3952 41.5743C30.1557 42.1801 31.101 42.5069 32.0733 42.5H35.9267C36.884 42.5001 37.8133 42.1771 38.5641 41.5831C39.3149 40.9892 39.8432 40.1592 40.0633 39.2275C40.0834 38.965 40.1762 38.7133 40.3313 38.5006C40.4865 38.2879 40.6978 38.1226 40.9417 38.0233C41.1693 37.9198 41.4203 37.8784 41.6691 37.9033C41.9179 37.9282 42.1557 38.0185 42.3583 38.165C43.1757 38.7126 44.1576 38.9596 45.1367 38.864C46.1159 38.7684 47.0315 38.3361 47.7275 37.6408L50.4475 34.9208C51.1541 34.2152 51.5897 33.2832 51.6778 32.2884C51.7658 31.2937 51.5008 30.2997 50.9292 29.4808C50.8109 29.2871 50.7409 29.0677 50.7252 28.8412C50.7094 28.6148 50.7483 28.3878 50.8385 28.1796C50.9288 27.9713 51.0678 27.7877 51.2438 27.6444C51.4199 27.501 51.6277 27.4021 51.85 27.3558C52.8123 27.1594 53.6769 26.6357 54.2968 25.8738C54.9166 25.1119 55.2535 24.1589 55.25 23.1767V19.3233C55.2501 18.366 54.9271 17.4367 54.3331 16.6859C53.7392 15.9351 52.9091 15.4069 51.9775 15.1867C51.715 15.1666 51.4633 15.0738 51.2506 14.9187C51.0379 14.7635 50.8726 14.5522 50.7733 14.3083C50.32 13.2175 51.255 12.9908 51.5667 11.3333H63.75C64.1257 11.3333 64.4861 11.4826 64.7517 11.7483C65.0174 12.0139 65.1667 12.3743 65.1667 12.75V45.3333H2.83333V12.75ZM43.9167 63.75V65.1667H24.0833V63.75C24.0833 63.3743 24.2326 63.0139 24.4983 62.7483C24.7639 62.4826 25.1243 62.3333 25.5 62.3333H42.5C42.8757 62.3333 43.2361 62.4826 43.5017 62.7483C43.7674 63.0139 43.9167 63.3743 43.9167 63.75ZM39.3125 59.5H28.6875L29.9342 53.8333H38.0658L39.3125 59.5ZM65.1667 49.5833C65.1667 49.9591 65.0174 50.3194 64.7517 50.5851C64.4861 50.8507 64.1257 51 63.75 51H4.25C3.87428 51 3.51394 50.8507 3.24827 50.5851C2.98259 50.3194 2.83333 49.9591 2.83333 49.5833V48.1667H65.1667V49.5833Z" fill="#0773BD"/>
<path d="M34 34C36.5217 34 38.9868 33.2522 41.0835 31.8512C43.1802 30.4503 44.8144 28.459 45.7795 26.1292C46.7445 23.7995 46.997 21.2359 46.505 18.7626C46.0131 16.2893 44.7987 14.0175 43.0156 12.2344C41.2325 10.4513 38.9607 9.23695 36.4874 8.74499C34.0141 8.25303 31.4505 8.50552 29.1208 9.47054C26.791 10.4356 24.7998 12.0698 23.3988 14.1665C21.9978 16.2632 21.25 18.7283 21.25 21.25C21.25 24.6315 22.5933 27.8745 24.9844 30.2656C27.3755 32.6567 30.6185 34 34 34ZM34 11.3333C35.9613 11.3333 37.8786 11.9149 39.5094 13.0046C41.1402 14.0943 42.4112 15.643 43.1618 17.4551C43.9124 19.2671 44.1088 21.261 43.7261 23.1847C43.3435 25.1083 42.399 26.8753 41.0121 28.2621C39.6253 29.649 37.8583 30.5935 35.9346 30.9761C34.011 31.3588 32.0171 31.1624 30.2051 30.4118C28.393 29.6612 26.8442 28.3902 25.7546 26.7594C24.6649 25.1286 24.0833 23.2113 24.0833 21.25C24.0833 18.6199 25.1281 16.0976 26.9879 14.2379C28.8476 12.3781 31.3699 11.3333 34 11.3333Z" fill="#0773BD"/>
<path d="M33.9998 17C34.28 17 34.5539 16.9169 34.7869 16.7612C35.0199 16.6056 35.2014 16.3843 35.3087 16.1255C35.4159 15.8666 35.4439 15.5818 35.3893 15.3069C35.3346 15.0321 35.1997 14.7797 35.0016 14.5816C34.8034 14.3835 34.551 14.2485 34.2762 14.1939C34.0014 14.1392 33.7166 14.1673 33.4577 14.2745C33.1988 14.3817 32.9776 14.5633 32.8219 14.7963C32.6663 15.0292 32.5832 15.3031 32.5832 15.5833C32.5832 15.959 32.7324 16.3194 32.9981 16.5851C33.2638 16.8507 33.6241 17 33.9998 17ZM32.5832 28.3333H35.4165C35.7922 28.3333 36.1526 28.1841 36.4182 27.9184C36.6839 27.6527 36.8332 27.2924 36.8332 26.9167C36.8332 26.5409 36.6839 26.1806 36.4182 25.9149C36.1526 25.6492 35.7922 25.5 35.4165 25.5V19.8333C35.4165 19.4576 35.2672 19.0973 35.0016 18.8316C34.7359 18.5659 34.3756 18.4167 33.9998 18.4167H32.5832C32.2074 18.4167 31.8471 18.5659 31.5814 18.8316C31.3158 19.0973 31.1665 19.4576 31.1665 19.8333C31.1665 20.209 31.3158 20.5694 31.5814 20.8351C31.8471 21.1007 32.2074 21.25 32.5832 21.25V25.5C32.2074 25.5 31.8471 25.6492 31.5814 25.9149C31.3158 26.1806 31.1665 26.5409 31.1665 26.9167C31.1665 27.2924 31.3158 27.6527 31.5814 27.9184C31.8471 28.1841 32.2074 28.3333 32.5832 28.3333Z" fill="#0773BD"/>
</g>
<defs>
<clipPath id="clip0_210_121">
<rect width="68" height="68" fill="white"/>
</clipPath>
</defs>
</svg>
