<svg width="115" height="103" viewBox="0 0 115 103" fill="none" xmlns="http://www.w3.org/2000/svg">
<path d="M87.8896 14.6856C87.5303 14.1223 86.8564 13.8406 86.2051 13.8809C86.1601 13.8809 86.1152 13.8809 86.0703 13.8809H29.7158C29.6709 13.8809 29.626 13.8809 29.6035 13.8809C28.9297 13.8406 28.2783 14.1223 27.9189 14.6856L13.7012 36.734C13.3643 37.257 13.3867 37.8807 13.7236 38.3836L56.3769 99.8617C56.7139 100.345 57.2754 100.626 57.9043 100.626C58.5332 100.626 59.0947 100.345 59.4316 99.8617L102.04 38.3836C102.399 37.8807 102.399 37.2369 102.062 36.734L87.8896 14.6856ZM69.8535 39.1481L57.9043 91.1711L45.8652 39.1481H69.8535ZM46.8086 35.9293L57.9043 18.709L69 35.9293H46.8086ZM61.0039 17.1197H83.1953L72.0996 34.34L61.0039 17.1197ZM43.6865 34.3199L32.5908 17.0996H54.7822L43.6865 34.3199ZM54.0635 90.4067L18.5078 39.1481H42.2041L54.0635 90.4067ZM73.5371 39.1481H97.3008L61.7676 90.4469L73.5371 39.1481ZM97.4131 35.9293H75.2217L86.3174 18.709L97.4131 35.9293ZM29.4687 18.7291L40.5645 35.9494H18.373L29.4687 18.7291ZM4.98633 20.8213H1.79687C0.808594 20.8213 0 20.0971 0 19.2119C0 18.3268 0.808594 17.6026 1.79687 17.6026H4.98633V14.7258C4.98633 13.8406 5.79492 13.1164 6.7832 13.1164C7.77148 13.1164 8.58008 13.8406 8.58008 14.7258V17.5824H11.7695C12.7578 17.5824 13.5664 18.3067 13.5664 19.1918C13.5664 20.077 12.7578 20.8012 11.7695 20.8012H8.60254V23.6578C8.60254 24.543 7.79394 25.2672 6.80566 25.2672C5.81738 25.2672 5.00879 24.543 5.00879 23.6578V20.8213H4.98633ZM99.3896 88.0932C99.3896 88.9783 98.581 89.7026 97.5928 89.7026H94.4033V92.5592C94.4033 93.4444 93.5947 94.1686 92.6064 94.1686C91.6182 94.1686 90.8096 93.4444 90.8096 92.5592V89.7026H87.5976C86.6094 89.7026 85.8008 88.9783 85.8008 88.0932C85.8008 87.208 86.6094 86.4838 87.5976 86.4838H90.7871V83.6272C90.7871 82.742 91.5957 82.0178 92.584 82.0178C93.5723 82.0178 94.3809 82.742 94.3809 83.6272V86.4838H97.5703C98.581 86.4838 99.3896 87.208 99.3896 88.0932ZM25.583 70.8326L19.6533 68.4387L16.9805 63.1277C16.6885 62.5443 16.0371 62.1822 15.3408 62.1822C14.6445 62.1822 13.9932 62.5443 13.7012 63.1277L11.0059 68.4387L5.07617 70.8326C4.4248 71.0942 4.02051 71.6574 4.02051 72.3012C4.02051 72.9248 4.4248 73.5082 5.07617 73.7697L11.0059 76.1637L13.7012 81.4746C13.9932 82.058 14.6445 82.4201 15.3408 82.4201C16.0371 82.4201 16.6885 82.058 16.9805 81.4746L19.6533 76.1637L25.583 73.7697C26.2344 73.5082 26.6387 72.9248 26.6387 72.3012C26.6387 71.6574 26.2119 71.0942 25.583 70.8326ZM17.542 73.4881C17.1377 73.649 16.8232 73.9307 16.6436 74.2928L15.3184 76.908L13.9932 74.2928C13.8135 73.9307 13.499 73.649 13.0947 73.4881L10.1748 72.3012L13.0947 71.1143C13.499 70.9533 13.8135 70.6717 13.9932 70.3096L15.3184 67.6944L16.6436 70.3096C16.8232 70.6717 17.1377 70.9533 17.542 71.1143L20.4619 72.3012L17.542 73.4881ZM113.944 11.0242L108.015 8.63029L105.342 3.31935C105.05 2.73595 104.398 2.37384 103.702 2.37384C103.006 2.37384 102.354 2.73595 102.062 3.31935L99.3896 8.63029L93.4375 11.0242C92.7861 11.2858 92.3818 11.8692 92.3818 12.4928C92.3818 13.1164 92.7861 13.6998 93.4375 13.9613L99.3672 16.3553L102.04 21.6662C102.332 22.2496 102.983 22.6117 103.68 22.6117C104.376 22.6117 105.027 22.2496 105.319 21.6662L107.992 16.3553L113.922 13.9613C114.573 13.6998 114.978 13.1365 114.978 12.4928C115 11.8692 114.596 11.2858 113.944 11.0242ZM105.926 13.6797C105.521 13.8406 105.207 14.1223 105.027 14.4844L103.702 17.0996L102.377 14.4844C102.197 14.1223 101.883 13.8406 101.479 13.6797L98.5586 12.4928L101.479 11.3059C101.883 11.1449 102.197 10.8633 102.377 10.5012L103.702 7.88595L105.027 10.5012C105.207 10.8633 105.521 11.1449 105.926 11.3059L108.846 12.4928L105.926 13.6797Z" fill="#0773BD"/>
</svg>
