<svg width="111" height="111" viewBox="0 0 111 111" fill="none" xmlns="http://www.w3.org/2000/svg">
<path d="M50.2762 3.46181C49.9301 3.46111 49.5918 3.56394 49.3047 3.75708C49.0175 3.95022 48.7947 4.22483 48.6649 4.54561C48.5351 4.86639 48.5043 5.21866 48.5763 5.55713C48.6483 5.8956 48.8199 6.20479 49.0691 6.44494L53.2454 10.6144C29.4151 11.8007 10.4064 31.472 10.4064 55.5937C10.3852 64.5818 13.0683 73.3685 18.107 80.8115C21.3491 85.6115 25.4823 89.7447 30.2823 92.9868C32.6827 94.6067 35.2496 96.0046 37.9483 97.1458C38.1595 97.2452 38.3886 97.3009 38.6218 97.3096C38.8551 97.3183 39.0877 97.2798 39.3057 97.1965C39.5237 97.1131 39.7227 96.9866 39.8907 96.8246C40.0587 96.6625 40.1922 96.4682 40.2833 96.2533C40.3744 96.0384 40.4212 95.8073 40.4209 95.5739C40.4205 95.3405 40.3731 95.1096 40.2814 94.8949C40.1897 94.6803 40.0556 94.4864 39.8871 94.3248C39.7187 94.1632 39.5193 94.0373 39.3011 93.9546C34.3563 91.863 29.8636 88.8333 26.0713 85.0329C22.1985 81.1726 19.1272 76.5845 17.0341 71.5328C14.941 66.4811 13.8674 61.0653 13.8751 55.5971C13.8751 33.4804 31.0801 15.4706 52.8361 14.0935L49.0691 17.8641C48.908 18.0253 48.7803 18.2167 48.6933 18.4273C48.6062 18.6379 48.5615 18.8636 48.5617 19.0915C48.5618 19.3194 48.6069 19.545 48.6942 19.7555C48.7816 19.966 48.9095 20.1572 49.0708 20.3182C49.2321 20.4792 49.4235 20.6069 49.6341 20.694C49.8447 20.781 50.0703 20.8258 50.2982 20.8256C50.5261 20.8254 50.7517 20.7804 50.9622 20.693C51.1727 20.6057 51.3639 20.4777 51.5249 20.3165L58.4624 13.379C58.6245 13.2178 58.7531 13.0262 58.8408 12.8152C58.9286 12.6041 58.9737 12.3778 58.9737 12.1493C58.9737 11.9208 58.9286 11.6945 58.8408 11.4834C58.7531 11.2724 58.6245 11.0808 58.4624 10.9196L51.5249 3.98906C51.3629 3.82184 51.1688 3.68898 50.9542 3.59839C50.7397 3.50781 50.5091 3.46136 50.2762 3.46181ZM72.2056 13.9027C71.8151 13.9333 71.4465 14.0951 71.1597 14.3619C70.8729 14.6286 70.6848 14.9846 70.6261 15.3719C70.5674 15.7591 70.6415 16.1549 70.8363 16.4946C71.0312 16.8344 71.3353 17.0982 71.6992 17.2432C76.6441 19.3345 81.1368 22.3642 84.929 26.1648C88.7987 30.026 91.868 34.6133 93.9609 39.6634C96.0538 44.7135 97.1291 50.1271 97.1251 55.5937C97.1251 77.7659 79.8265 95.8034 57.9803 97.0903L61.9312 93.1429C62.1816 92.8991 62.3525 92.5853 62.4215 92.2427C62.4905 91.9001 62.4544 91.5446 62.3179 91.2229C62.1814 90.9012 61.9509 90.6282 61.6566 90.4397C61.3623 90.2512 61.0179 90.1561 60.6686 90.1667C60.2183 90.1786 59.7904 90.3652 59.4753 90.687L52.5378 97.6245C52.3763 97.7856 52.2482 97.977 52.1607 98.1877C52.0733 98.3984 52.0283 98.6243 52.0283 98.8524C52.0283 99.0806 52.0733 99.3065 52.1607 99.5172C52.2482 99.7279 52.3763 99.9193 52.5378 100.08L59.4753 107.018C59.6363 107.179 59.8276 107.307 60.038 107.394C60.2485 107.482 60.4741 107.527 60.702 107.527C60.9299 107.527 61.1556 107.482 61.3662 107.395C61.5768 107.308 61.7682 107.181 61.9295 107.02C62.0907 106.859 62.2187 106.667 62.306 106.457C62.3934 106.246 62.4384 106.021 62.4386 105.793C62.4388 105.565 62.394 105.339 62.307 105.129C62.2199 104.918 62.0922 104.727 61.9312 104.565L57.9283 100.566C81.6823 99.293 100.594 79.6564 100.594 55.5937C100.614 46.6079 97.9306 37.8238 92.8933 30.3828C87.997 23.1342 81.1054 17.4595 73.052 14.045C72.8405 13.9536 72.6129 13.9052 72.3825 13.9027C72.3248 13.8999 72.2634 13.8999 72.2056 13.9027ZM55.5001 27.8471C40.196 27.8471 27.7501 40.2895 27.7501 55.5971C27.7501 70.9012 40.196 83.3471 55.5001 83.3471C70.8043 83.3471 83.2501 70.9012 83.2501 55.5971C83.2501 40.2895 70.8043 27.8471 55.5001 27.8471ZM55.5001 31.3159C68.9311 31.3159 79.7814 42.1627 79.7814 55.5971C79.7814 69.0247 68.9311 79.8784 55.5001 79.8784C42.0691 79.8784 31.2189 69.0247 31.2189 55.5971C31.2189 42.1627 42.0691 31.3159 55.5001 31.3159ZM54.2722 38.1562V42.1731C53.183 42.3083 52.1944 42.5685 51.3133 42.9605C50.4323 43.349 49.683 43.8485 49.0587 44.4555C48.4442 45.0703 47.9604 45.803 47.6365 46.6096C47.3054 47.4848 47.1407 48.4142 47.1508 49.3499C47.1508 50.4322 47.3416 51.3861 47.7058 52.2151C48.0943 53.0407 48.6355 53.7691 49.3431 54.4004C50.0646 55.0352 50.9318 55.5867 51.9447 56.0654C52.9679 56.5233 54.123 56.9326 55.4065 57.2899C56.3673 57.6021 57.1859 57.9385 57.8589 58.2785C58.5457 58.6184 59.1007 58.9861 59.5169 59.3885C59.9505 59.7908 60.2593 60.221 60.4535 60.6823C60.6443 61.1437 60.7449 61.6536 60.7449 62.2016C60.7449 62.8607 60.6269 63.4504 60.3841 63.988C60.1413 64.5118 59.7875 64.9593 59.3227 65.3374C58.8717 65.7016 58.3168 65.9895 57.6404 66.1976C56.3041 66.5726 54.8931 66.5917 53.5472 66.2531C52.9403 66.0949 52.3747 65.8074 51.8892 65.4102C51.3657 64.9722 50.9542 64.4157 50.689 63.7868C50.3837 63.1035 50.238 62.2467 50.238 61.2096H46.0027C46.0027 62.5867 46.2178 63.7695 46.6513 64.7546C47.0849 65.7259 47.6573 66.541 48.3788 67.1862C49.1176 67.8314 49.9605 68.324 50.9075 68.6639C51.8545 69.0038 52.8292 69.2328 53.8386 69.3403V72.8438H57.1859V69.3403C58.3896 69.2189 59.4719 68.9761 60.4327 68.6119C61.3935 68.2442 62.2122 67.7551 62.8851 67.1446C63.558 66.5376 64.0818 65.8195 64.4495 64.994C64.8172 64.1511 64.9976 63.2145 64.9976 62.1669C64.9976 61.0951 64.8241 60.1516 64.4703 59.333C64.1111 58.5111 63.5772 57.7772 62.9059 57.1823C62.1439 56.5125 61.2841 55.9627 60.3564 55.552C59.23 55.0338 58.0644 54.6058 56.8703 54.2721C55.9823 53.998 55.1142 53.663 54.2722 53.2696C53.6652 52.973 53.0987 52.6 52.5864 52.1596C52.1822 51.8085 51.8622 51.3711 51.6498 50.8796C51.3016 49.8005 51.3016 48.6392 51.6498 47.56C51.8441 47.0397 52.1216 46.5888 52.4927 46.2246C52.8992 45.8353 53.384 45.5373 53.9149 45.3504C54.4768 45.1423 55.1359 45.0382 55.906 45.0382C56.6448 45.0382 57.3004 45.177 57.8797 45.458C58.4555 45.7389 58.9377 46.1274 59.3227 46.6235C59.7043 47.123 59.9956 47.7196 60.1899 48.3995C60.398 49.0828 60.5021 49.8251 60.5021 50.6437H64.7131C64.7131 48.1705 64.0922 46.228 62.8573 44.8024C61.6398 43.3663 59.9124 42.4991 57.6681 42.1939V38.1562H54.2722Z" fill="#0773BD"/>
</svg>
