<svg width="108" height="108" viewBox="0 0 108 108" fill="none" xmlns="http://www.w3.org/2000/svg">
<path d="M11.8125 3.375C11.3649 3.375 10.9357 3.55279 10.6193 3.86926C10.3028 4.18572 10.125 4.61495 10.125 5.0625V33.75H8.4375C7.98995 33.75 7.56073 33.9278 7.24426 34.2443C6.92779 34.5607 6.75 34.9899 6.75 35.4375V45.549C6.75 45.9966 6.92779 46.4258 7.24426 46.7422C7.56073 47.0587 7.98995 47.2365 8.4375 47.2365H33.7432V65.8834C30.483 66.231 27.6075 67.9894 25.5285 70.551C25.0627 70.4835 24.6004 70.3755 24.1245 70.3755C20.5099 70.3755 17.3542 72.5726 15.7747 75.7789C12.4706 77.139 10.1182 80.2271 10.1182 83.8755C10.1227 86.2385 11.0617 88.5038 12.7304 90.1769C14.3991 91.85 16.6619 92.7951 19.0249 92.8057H41.7184C45.8595 92.8057 49.3324 89.9201 50.3145 86.0625H77.625V102.938C77.625 103.385 77.8028 103.814 78.1193 104.131C78.4357 104.447 78.8649 104.625 79.3125 104.625H99.5625C100.01 104.625 100.439 104.447 100.756 104.131C101.072 103.814 101.25 103.385 101.25 102.938V65.8125C101.25 65.3649 101.072 64.9357 100.756 64.6193C100.439 64.3028 100.01 64.125 99.5625 64.125H79.3125C78.8649 64.125 78.4357 64.3028 78.1193 64.6193C77.8028 64.9357 77.625 65.3649 77.625 65.8125V82.6875H50.4664C50.1027 80.4001 48.8739 78.34 47.034 76.9331C46.467 71.4758 42.39 67.014 37.1182 66.0218V47.2365H65.8226C66.2702 47.2365 66.6994 47.0587 67.0159 46.7422C67.3323 46.4258 67.5101 45.9966 67.5101 45.549V35.4375C67.5101 34.9899 67.3323 34.5607 67.0159 34.2443C66.6994 33.9278 66.2702 33.75 65.8226 33.75H64.125V5.0625C64.125 4.61495 63.9472 4.18572 63.6307 3.86926C63.3143 3.55279 62.8851 3.375 62.4375 3.375H11.8125ZM13.5 6.75H60.75V33.75H13.5V6.75ZM10.125 37.125H30.2771C30.2039 37.3779 30.1909 37.6445 30.2391 37.9034C30.2874 38.1622 30.3955 38.4062 30.5549 38.6158C30.7143 38.8254 30.9206 38.9948 31.1571 39.1104C31.3937 39.226 31.6541 39.2846 31.9174 39.2816H42.3529C42.6167 39.2857 42.8779 39.2278 43.1153 39.1127C43.3528 38.9975 43.5599 38.8283 43.7201 38.6185C43.8803 38.4088 43.989 38.1644 44.0376 37.905C44.0862 37.6457 44.0733 37.3785 43.9999 37.125H64.1385V43.8615H10.125V37.125ZM81 67.5H97.875V70.875H81V67.5ZM34.857 69.1875H34.911C39.6596 69.1875 43.632 73.035 43.8345 77.7904C43.8478 78.0627 43.9269 78.3278 44.065 78.5629C44.2031 78.798 44.3962 78.9962 44.6276 79.1404H44.6344C46.2476 80.1529 47.2433 81.9585 47.2433 83.8755C47.2433 86.9603 44.7795 89.4307 41.7184 89.4307H19.0249C18.2965 89.4308 17.5752 89.2869 16.9025 89.0074C16.2299 88.728 15.619 88.3184 15.105 87.8022C14.5911 87.2861 14.1841 86.6735 13.9075 85.9996C13.6309 85.3258 13.4901 84.6039 13.4932 83.8755C13.4932 81.4219 15.1031 79.2518 17.4082 78.5464C17.6494 78.4739 17.8712 78.3484 18.0575 78.179C18.2438 78.0096 18.3898 77.8007 18.4849 77.5676C19.042 76.2057 20.0701 75.0893 21.3816 74.4221C22.6932 73.7548 24.2009 73.5812 25.6297 73.9327C25.9695 74.0185 26.3275 73.9963 26.6541 73.8693C26.9807 73.7423 27.2597 73.5167 27.4522 73.224C28.2511 71.9862 29.3474 70.9683 30.6408 70.2632C31.9343 69.5581 33.3838 69.1883 34.857 69.1875ZM81 74.25H97.875V94.5H81V74.25ZM81 97.875H97.875V101.25H81V97.875Z" fill="#0773BD"/>
</svg>
