<svg width="111" height="111" viewBox="0 0 111 111" fill="none" xmlns="http://www.w3.org/2000/svg">
<g clip-path="url(#clip0_2206_160)">
<path d="M24.5241 82.8164C24.2987 82.8164 24.0732 82.7817 23.8651 82.6777C23.2407 82.4175 22.8418 81.8105 22.8418 81.1341V80.7178C22.8418 68.9067 29.259 57.9802 39.5612 52.2047C39.804 52.0659 40.0988 51.9966 40.3763 51.9966C41.3129 51.9966 42.0587 52.7423 42.0587 53.6789C42.0587 54.3727 41.6598 54.9623 41.0701 55.2225C32.9012 59.8533 27.4899 68.0916 26.3973 77.2838C31.2362 73.5028 37.1504 70.7452 43.7063 69.2189C44.6082 69.0108 45.5101 69.5658 45.7182 70.4677C45.9263 71.3695 45.3713 72.2714 44.4694 72.4969C37.0463 74.2313 30.5598 77.648 25.6862 82.3655C25.374 82.643 24.9577 82.8164 24.5241 82.8164ZM86.476 82.8511C86.0424 82.8511 85.6262 82.6777 85.2966 82.3655C80.4577 77.6306 73.9712 74.2139 66.496 72.4622C65.5941 72.2541 65.0218 71.3522 65.2473 70.4503C65.4554 69.5484 66.3573 68.9761 67.2591 69.2016C73.8498 70.7452 79.764 73.5028 84.5855 77.2838C83.4929 68.0222 78.0123 59.7319 69.7393 55.1184C68.9241 54.6675 68.6466 53.6442 69.0976 52.8291C69.5485 52.0139 70.5718 51.7191 71.3869 52.1873C81.7412 57.9628 88.1584 68.9067 88.1584 80.7352V81.1861C88.1584 81.8625 87.7594 82.4695 87.1351 82.7297C86.9096 82.7991 86.6841 82.8511 86.476 82.8511ZM62.3855 84.7416H48.5799C47.6954 84.7416 46.8455 84.36 46.2732 83.6836C45.7009 83.0072 45.458 82.1227 45.5968 81.2381L46.6548 75.0117C46.8109 74.0925 47.678 73.4855 48.5973 73.6416C49.5165 73.7977 50.1235 74.6649 49.9674 75.5841L48.9788 81.3942H61.9693L60.998 75.5841C60.8419 74.6649 61.4663 73.7977 62.3855 73.6416C63.2874 73.5028 64.172 74.1098 64.328 75.0291L65.3687 81.2381C65.5074 82.14 65.2646 83.0245 64.6923 83.7009C64.1026 84.36 63.2701 84.7416 62.3855 84.7416Z" fill="#0773BD"/>
<path d="M65.5428 76.9716H45.4414C44.7129 76.9716 44.0539 76.5033 43.8457 75.7922C35.9023 50.6784 35.937 30.7331 43.9498 14.8463C46.534 9.72985 49.916 5.02969 54.2867 0.48563C54.911 -0.173433 56.0731 -0.173433 56.7148 0.48563C61.1721 5.11641 64.6062 9.92063 67.1904 15.1584C75.0471 30.9586 75.0298 50.7999 67.1557 75.7922C66.9129 76.5033 66.2712 76.9716 65.5428 76.9716ZM46.6728 73.6069H64.294C71.5437 50.0541 71.4917 31.4095 64.1726 16.6673C61.97 12.2273 59.1256 8.09954 55.5007 4.12782C51.9453 8.03016 49.1529 12.0539 46.9503 16.3898C39.4578 31.2014 39.371 49.9327 46.6728 73.6069Z" fill="#0773BD"/>
<path d="M56.4191 18.7486C52.7248 18.7486 48.8919 18.2456 44.9548 17.257C44.053 17.0316 43.5153 16.1124 43.7408 15.2105C43.9663 14.3086 44.8855 13.7709 45.7873 13.9964C52.7942 15.7655 59.142 15.8695 65.1777 14.2913C66.0795 14.0658 66.9987 14.6034 67.2242 15.488C67.467 16.3899 66.912 17.3091 66.0275 17.5345C62.9403 18.3497 59.7317 18.7486 56.4191 18.7486Z" fill="#0773BD"/>
<path d="M55.5008 76.9715C54.9458 76.9715 54.4255 76.694 54.1133 76.2431C46.3433 64.9003 46.3953 52.8464 54.2347 43.9837C54.8764 43.2553 56.1078 43.2553 56.7496 43.9837C64.5716 52.829 64.6236 64.9003 56.871 76.2431C56.5761 76.694 56.0558 76.9715 55.5008 76.9715ZM55.5008 47.782C50.4711 54.6675 50.4711 63.5128 55.5008 72.15C60.5131 63.4954 60.5305 54.6501 55.5008 47.782Z" fill="#0773BD"/>
<path d="M55.5008 39.3703C50.9047 39.3703 47.1758 35.6414 47.1758 31.0453C47.1758 26.4492 50.9047 22.7203 55.5008 22.7203C60.0969 22.7203 63.8258 26.4492 63.8258 31.0453C63.8258 35.6414 60.0969 39.3703 55.5008 39.3703ZM55.5008 26.0677C52.7605 26.0677 50.5405 28.305 50.5405 31.028C50.5405 33.751 52.7605 35.9883 55.5008 35.9883C58.2411 35.9883 60.4611 33.751 60.4611 31.028C60.4611 28.305 58.2411 26.0677 55.5008 26.0677Z" fill="#0773BD"/>
<path d="M70.3113 102.207C69.3748 102.207 68.629 101.461 68.629 100.524V84.7415C68.629 83.805 69.3748 83.0592 70.3113 83.0592C71.2479 83.0592 71.9937 83.805 71.9937 84.7415V100.524C71.9937 101.444 71.2305 102.207 70.3113 102.207ZM62.9055 105.936C61.969 105.936 61.2232 105.19 61.2232 104.253V88.4531C61.2232 87.5165 61.969 86.7708 62.9055 86.7708C63.8421 86.7708 64.5879 87.5165 64.5879 88.4531V104.236C64.5879 105.172 63.8421 105.936 62.9055 105.936ZM55.4998 111C54.5632 111 53.8174 110.254 53.8174 109.318V91.5056C53.8174 90.569 54.5632 89.8233 55.4998 89.8233C56.4363 89.8233 57.1821 90.569 57.1821 91.5056V109.318C57.1821 110.254 56.4363 111 55.4998 111ZM48.094 105.936C47.1574 105.936 46.4116 105.19 46.4116 104.253V88.4531C46.4116 87.5165 47.1574 86.7708 48.094 86.7708C49.0305 86.7708 49.7763 87.5165 49.7763 88.4531V104.236C49.7763 105.172 49.0305 105.936 48.094 105.936ZM40.6882 102.207C39.7516 102.207 39.0059 101.461 39.0059 100.524V84.7415C39.0059 83.805 39.7516 83.0592 40.6882 83.0592C41.6248 83.0592 42.3705 83.805 42.3705 84.7415V100.524C42.3705 101.444 41.6248 102.207 40.6882 102.207Z" fill="#0773BD"/>
</g>
<defs>
<clipPath id="clip0_2206_160">
<rect width="111" height="111" fill="white"/>
</clipPath>
</defs>
</svg>
