<svg width="102" height="102" viewBox="0 0 102 102" fill="none" xmlns="http://www.w3.org/2000/svg">
<g clip-path="url(#clip0_2206_174)">
<path d="M84.9465 71.141C88.4527 65.2441 90.4848 58.3512 90.4848 51C90.4848 43.6488 88.4527 36.7559 84.9465 30.859C84.8867 30.7395 84.827 30.6 84.7273 30.5004C77.7945 19.125 65.2637 11.5148 50.9996 11.5148C36.7356 11.5148 24.2047 19.125 17.2719 30.5004C17.1922 30.6199 17.1125 30.7395 17.0527 30.859C13.5266 36.7559 11.5145 43.6488 11.5145 51C11.5145 58.3512 13.5465 65.2441 17.0527 71.141C17.1125 71.2606 17.1723 71.3801 17.2719 71.4996C24.2047 82.875 36.7356 90.4852 50.9996 90.4852C65.2637 90.4852 77.7945 82.875 84.7273 71.4996C84.827 71.4 84.8867 71.2606 84.9465 71.141ZM83.0141 68.093C79.9063 65.7621 76.0016 63.8297 71.5789 62.3754C72.1566 58.7297 72.4754 54.9047 72.4754 51C72.4754 47.0953 72.1766 43.2703 71.5789 39.6246C76.0016 38.1703 79.9063 36.2379 83.0141 33.907C85.7434 39.007 87.2973 44.8242 87.2973 51C87.2973 57.1758 85.7434 62.993 83.0141 68.093ZM32.7313 51C32.7313 47.4141 33.0102 43.8879 33.5082 40.541C38.3891 41.8359 43.768 42.573 49.4059 42.6926V59.3074C43.768 59.427 38.3891 60.1641 33.5082 61.459C32.9902 58.1121 32.7313 54.5859 32.7313 51ZM63.6301 24.9621C65.5227 28.548 66.957 32.7715 67.9133 37.3535C63.2117 38.6285 57.9922 39.3656 52.5934 39.4852V14.8418C56.6774 15.5789 60.5621 19.1051 63.6301 24.9621ZM49.4059 14.8418V39.5051C44.007 39.3855 38.7676 38.6285 34.086 37.3734C35.0422 32.7914 36.4965 28.568 38.3692 24.982C41.4371 19.1051 45.3219 15.5789 49.4059 14.8418ZM49.4059 62.4949V87.1582C45.3219 86.4211 41.4371 82.8949 38.3692 77.0379C36.4766 73.452 35.0422 69.2285 34.086 64.6465C38.7676 63.3715 44.007 62.6145 49.4059 62.4949ZM52.5934 87.1582V62.4949C57.9922 62.6145 63.2316 63.3715 67.9133 64.6266C66.957 69.2086 65.5027 73.432 63.6301 77.018C60.5621 82.8949 56.6774 86.4211 52.5934 87.1582ZM52.5934 59.3074V42.6926C58.2313 42.573 63.6102 41.8359 68.491 40.541C69.009 43.8879 69.268 47.4141 69.268 51C69.268 54.5859 68.9891 58.1121 68.491 61.459C63.6102 60.184 58.2313 59.427 52.5934 59.3074ZM81.3805 31.1379C78.6113 33.2695 75.0652 35.0625 70.9813 36.4371C69.9652 31.6559 68.4313 27.273 66.459 23.4879C64.9051 20.5195 63.132 18.0691 61.1996 16.1566C69.5668 18.607 76.6988 24.0059 81.3805 31.1379ZM40.7996 16.1566C38.8672 18.0492 37.0942 20.5195 35.5402 23.4879C33.568 27.273 32.034 31.6559 31.018 36.4371C26.934 35.0625 23.3879 33.2695 20.6188 31.1379C25.3004 24.0059 32.4324 18.607 40.7996 16.1566ZM18.9852 33.907C22.093 36.2379 25.9977 38.1703 30.4203 39.6246C29.8426 43.2703 29.5238 47.0953 29.5238 51C29.5238 54.9047 29.8227 58.7297 30.4203 62.3754C25.9977 63.8297 22.093 65.7621 18.9852 68.093C16.2559 62.993 14.702 57.1758 14.702 51C14.702 44.8242 16.2559 39.007 18.9852 33.907ZM20.6188 70.8621C23.3879 68.7305 26.934 66.9375 31.018 65.5629C32.034 70.3441 33.568 74.727 35.5402 78.5121C37.0942 81.4805 38.8672 83.9309 40.7996 85.8434C32.4324 83.393 25.3004 77.9941 20.6188 70.8621ZM61.1996 85.8434C63.132 83.9508 64.9051 81.4805 66.459 78.5121C68.4313 74.727 69.9652 70.3441 70.9813 65.5629C75.0652 66.9375 78.6113 68.7305 81.3805 70.8621C76.6988 77.9941 69.5668 83.393 61.1996 85.8434ZM78.452 91.9992C78.9102 92.7363 78.691 93.7324 77.9539 94.1906C69.8856 99.2309 60.5621 101.9 51.0195 101.9C37.4129 101.9 24.643 96.6012 15.0207 86.9988C5.37853 77.3766 0.0992341 64.6066 0.0992341 51C0.0992341 42.7523 2.09142 34.684 5.87658 27.4324L2.01173 28.4684C1.15509 28.6875 0.278531 28.1895 0.0593904 27.3328C-0.15975 26.4762 0.338297 25.5996 1.19494 25.3805L8.74533 23.3484H8.76525C8.78517 23.3484 8.82502 23.3285 8.84494 23.3285C8.86486 23.3285 8.88478 23.3285 8.9047 23.3086C8.92462 23.3086 8.96447 23.3086 8.98439 23.3086C9.00431 23.3086 9.02423 23.3086 9.06408 23.3086C9.084 23.3086 9.12384 23.3086 9.14376 23.3086C9.16369 23.3086 9.18361 23.3086 9.22345 23.3086C9.24337 23.3086 9.28322 23.3086 9.30314 23.3086C9.32306 23.3086 9.34298 23.3086 9.36291 23.3086C9.40275 23.3086 9.42267 23.3285 9.46251 23.3285C9.48244 23.3285 9.50236 23.3285 9.52228 23.3484C9.56212 23.3484 9.58205 23.3684 9.62189 23.3684C9.64181 23.3684 9.66173 23.3883 9.68165 23.3883C9.70158 23.4082 9.74142 23.4082 9.76134 23.4281C9.78126 23.4281 9.80119 23.448 9.82111 23.448C9.84103 23.468 9.88087 23.468 9.9008 23.4879C9.92072 23.5078 9.94064 23.5078 9.96056 23.5277C9.96056 23.5277 9.98048 23.5277 9.98048 23.5477C10.0004 23.5477 10.0004 23.5676 10.0203 23.5676C10.0402 23.5875 10.0602 23.5875 10.0801 23.6074C10.1 23.6273 10.1199 23.6473 10.1399 23.6672C10.1598 23.6871 10.1797 23.707 10.1996 23.707C10.2195 23.727 10.2395 23.7469 10.2594 23.7668C10.2793 23.7867 10.2992 23.8066 10.2992 23.8266C10.3192 23.8465 10.3391 23.8664 10.359 23.8863C10.3789 23.9062 10.3988 23.9262 10.3988 23.9461C10.4188 23.966 10.4387 23.9859 10.4387 24.0059C10.4586 24.0258 10.4586 24.0457 10.4785 24.0656C10.4985 24.0855 10.4985 24.1055 10.5184 24.1254C10.5383 24.1453 10.5383 24.1652 10.5582 24.1852C10.5781 24.2051 10.5781 24.2449 10.5981 24.2648C10.5981 24.2848 10.618 24.3047 10.618 24.3246C10.618 24.3445 10.6379 24.3844 10.6379 24.4043C10.6379 24.4242 10.6379 24.4242 10.6578 24.4441L12.6899 31.9945C12.909 32.8512 12.411 33.7277 11.5543 33.9469C11.4149 33.9867 11.2754 34.0066 11.136 34.0066C10.4387 34.0066 9.78126 33.5285 9.60197 32.8312L8.58595 29.0262C5.11955 35.8195 3.28673 43.3301 3.28673 51C3.28673 77.3168 24.7027 98.7129 50.9996 98.7129C59.9645 98.7129 68.6902 96.2227 76.2406 91.5012C76.9977 91.023 77.9738 91.2621 78.452 91.9992ZM100.824 76.5996L93.2738 78.6316C93.2738 78.6316 93.2738 78.6316 93.2539 78.6316C93.2141 78.6516 93.1742 78.6516 93.1145 78.6516C93.0945 78.6516 93.0746 78.6715 93.0547 78.6715C93.0149 78.6715 92.975 78.6715 92.9352 78.6715C92.9152 78.6715 92.8754 78.6715 92.8555 78.6715C92.8555 78.6715 92.8555 78.6715 92.8356 78.6715C92.7559 78.6715 92.6762 78.6715 92.5965 78.6516C92.5766 78.6516 92.5367 78.6316 92.5168 78.6316C92.457 78.6117 92.4172 78.6117 92.3574 78.5918C92.3375 78.5918 92.2977 78.5719 92.2777 78.5519C92.2379 78.532 92.1781 78.5121 92.1383 78.4922C92.1184 78.4723 92.0785 78.4523 92.0586 78.4523C92.0387 78.4324 92.0188 78.4324 91.9988 78.4324C91.959 78.4125 91.9391 78.3926 91.8992 78.3527C91.8992 78.3527 91.8793 78.3527 91.8793 78.3328C91.8195 78.293 91.7598 78.2332 91.7 78.1734C91.6801 78.1535 91.6801 78.1535 91.6602 78.1336C91.6004 78.0738 91.5606 78.0141 91.5207 77.9543C91.5207 77.9543 91.5207 77.9344 91.5008 77.9344C91.4609 77.8746 91.4211 77.8148 91.3813 77.7352C91.3813 77.7352 91.3813 77.7152 91.3613 77.7152C91.3215 77.6356 91.3016 77.5758 91.2816 77.4961V77.4762L89.2496 69.9258C89.0305 69.0691 89.5285 68.1926 90.3852 67.9734C91.2418 67.7543 92.1184 68.2523 92.3375 69.109L93.3535 72.9141C96.8598 66.1605 98.6926 58.65 98.6926 50.9801C98.6926 24.6633 77.2766 3.26719 50.9797 3.26719C42.0149 3.26719 33.2891 5.75742 25.7387 10.4988C25.0016 10.957 24.0055 10.7379 23.5473 10.0008C23.0891 9.26367 23.3082 8.26758 24.0453 7.80938C32.1336 2.74922 41.4371 0.0996094 50.9996 0.0996094C64.6063 0.0996094 77.3762 5.39883 86.9984 15.0012C96.6207 24.6234 101.9 37.3934 101.9 51C101.9 59.2477 99.9078 67.316 96.1227 74.5676L99.9875 73.5316C100.844 73.3125 101.721 73.8105 101.94 74.6672C102.179 75.5039 101.661 76.3805 100.824 76.5996Z" fill="#0773BD"/>
</g>
<defs>
<clipPath id="clip0_2206_174">
<rect width="102" height="102" fill="white"/>
</clipPath>
</defs>
</svg>
